<?xml version="1.0" encoding="utf-8"?>
<!-- Generator: Adobe Illustrator 28.0.0, SVG Export Plug-In . SVG Version: 6.00 Build 0)  -->
<svg version="1.1" id="Layer_1" xmlns="http://www.w3.org/2000/svg" xmlns:xlink="http://www.w3.org/1999/xlink" x="0px" y="0px"
	 viewBox="0 0 221.09 218.29" style="enable-background:new 0 0 221.09 218.29;" xml:space="preserve">
<style type="text/css">
	.st0{fill:#222222;}
</style>
<g>
	<path class="st0" d="M144.27,186.5c0,0.48,0,0.96,0,1.44c-0.01,0.71,0.17,1.51-0.09,2.12c-0.29,0.67,0.17,1.43-0.39,2
		c-0.04,2.03-0.83,3.88-1.47,5.74c-0.55,1.6-1.36,3.11-2.21,4.6c-0.85,1.48-1.95,2.77-2.84,4.21c-0.18,0.3-0.52,0.5-0.75,0.77
		c-0.32,0.38-0.78,0.63-0.96,1.16c-0.09,0.27-0.39,0.55-0.66,0.67c-0.57,0.25-0.91,0.73-1.33,1.12c-1.29,1.19-2.69,2.23-4.23,3.11
		c-0.87,0.5-1.7,1.1-2.6,1.54c-0.79,0.39-1.62,0.72-2.43,1.07c-0.81,0.35-1.66,0.76-2.49,0.91c-1.31,0.22-2.53,0.87-3.89,0.77
		c-0.79,0.51-1.71,0.15-2.58,0.43c-0.8,0.25-1.74,0.05-2.62,0.05c-0.92,0-1.84,0.02-2.76-0.01c-0.41-0.02-0.81-0.15-1.22-0.23
		c-0.45-0.09-0.9,0.12-1.36-0.21c-0.3-0.21-0.85,0.1-1.2-0.27c-1.65-0.01-3.15-0.7-4.64-1.24c-1.77-0.64-3.46-1.5-5.09-2.48
		c-1.09-0.66-2.18-1.34-3.19-2.09c-1.07-0.79-2-1.77-2.97-2.69c-1.69-1.6-3.15-3.41-4.39-5.37c-0.51-0.81-1.04-1.62-1.4-2.53
		c-0.36-0.89-0.83-1.73-1.22-2.61c-0.77-1.76-1.28-3.57-1.64-5.43c-0.44-0.49-0.07-1.14-0.34-1.66c-0.29-0.57,0.02-1.19-0.15-1.74
		c-0.41-1.32-0.16-2.65-0.21-3.98c-0.03-0.69-0.04-1.37,0.2-2.07c0.22-0.64-0.19-1.41,0.27-2.05c0.12-2.05,0.81-3.96,1.44-5.87
		c0.47-1.41,1.18-2.71,1.83-4.04c0.7-1.43,1.66-2.67,2.54-3.99c1.33-2,3.08-3.58,4.8-5.18c1.15-1.07,2.43-2.04,3.85-2.81
		c1.07-0.58,2.08-1.37,3.2-1.84c1.84-0.77,3.66-1.66,5.67-1.95c0.54-0.43,1.24-0.28,1.85-0.44c0.61-0.16,1.25-0.46,1.93-0.28
		c2.15-0.5,4.33-0.2,6.5-0.22c1.83-0.02,3.63,0.31,5.37,0.91c0.83-0.09,1.49,0.5,2.31,0.53c0.46,0.01,0.9,0.34,1.33,0.52
		c1.5,0.62,2.99,1.31,4.4,2.11c1.21,0.69,2.39,1.44,3.48,2.33c1.24,1.01,2.52,1.97,3.6,3.15c1.01,1.11,1.92,2.3,2.83,3.49
		c1.34,1.74,2.37,3.64,3.28,5.6c0.75,1.61,1.35,3.28,1.73,5.04c0.28,1.26,0.49,2.52,0.75,3.77
		C144.37,183.78,144.09,185.14,144.27,186.5z M124.83,171.18c-0.1-0.19-0.16-0.33-0.24-0.45c-0.4-0.6-0.69-1.32-1.22-1.75
		c-0.88-0.71-1.95-1.12-3.13-1.11c-1.08,0.01-2.16,0-3.24,0c-0.46,0-0.92,0.05-1.35-0.23c-0.21-0.14-0.49-0.23-0.73-0.23
		c-0.25,0-0.49,0.17-0.74,0.22c-1.07,0.21-2.76,1.06-3.47,1.77c-0.63,0.63-1.18,1.29-1.65,2.07c-0.61,1.01-1.43,1.92-2.27,2.77
		c-0.74,0.75-1.32,1.6-1.94,2.44c-1.03,1.4-1.58,3.03-2.07,4.65c-0.44,1.47-0.66,3.01-0.99,4.51c-0.1,0.43-0.27,0.85-0.41,1.27
		c-0.37,1.14-1.29,1.85-2.15,2.56c-0.64,0.53-1.43,0.94-2.27,1.14c-0.62,0.15-1.26,0.23-1.86,0.44c-0.69,0.25-1.39,0.48-2.07,0.79
		c-0.76,0.35-1.58,0.61-2.36,0.96c-0.8,0.37-1.63,0.7-2.47,0.99c-0.59,0.21-1.1,0.45-1.23,1c0.31,0.32,0.58,0.59,0.83,0.84
		c1.31-0.52,2.68-0.99,3.98-1.61c0.98-0.46,1.99-0.8,3-1.17c1.01-0.37,2.06-0.63,3.08-0.98c1.04-0.35,2.02-0.82,2.81-1.62
		c0.48-0.48,0.96-0.96,1.44-1.44c0.33-0.33,0.54-0.69,0.67-1.16c0.27-1.01,0.73-1.98,0.7-3.06c0.42-0.61,0.35-1.37,0.57-2.04
		c0.23-0.67,0.43-1.34,0.62-2.02c0.58-2.04,1.71-3.76,3.12-5.3c1-1.08,1.98-2.15,2.71-3.44c0.21-0.36,0.52-0.66,0.75-1.01
		c0.45-0.69,1.26-0.85,1.86-1.33c0.35-0.28,0.89-0.32,1.32-0.58c0.18-0.11,0.54-0.01,0.78,0.09c0.68,0.31,1.39,0.41,2.13,0.36
		c0.49-0.03,0.99,0.07,1.47-0.22c0.24-0.14,0.63-0.06,0.94-0.02c0.33,0.04,0.65,0.22,0.98,0.22c1.08,0,1.64,0.71,2.17,1.49
		c0.25,0.37,0.34,0.74,0.12,1.17c-0.32-0.24-0.65-0.45-0.93-0.7c-0.51-0.46-1.17-0.73-1.85-0.75c-0.82-0.03-1.59,0.4-2.42,0.25
		c-0.3-0.05-0.61-0.01-0.87-0.01c-0.12,0.54-0.21,0.96-0.3,1.34c0.54,0.1,1.02,0.35,1.38,0.23c0.48-0.16,0.93-0.09,1.38-0.12
		c0.48-0.03,0.96-0.01,1.52-0.01c0.39,0.51,0.93,1.01,1.21,1.62c0.24,0.51,0.65,0.61,1.04,0.76c0.44,0.17,0.94,0.22,1.39,0.32
		c0,0.15,0,0.23,0,0.32c-1.35-0.21-2.7-0.75-4.11,0.02c0.24,0.13,0.48,0.22,0.67,0.37c0.25,0.2,0.43,0.51,0.69,0.65
		c0.29,0.16,0.64,0.18,0.97,0.26c0.72,0.17,1.49,0.21,2.08,0.65c0.56,0.95,0.83,2.03,1.74,2.69c0.07-0.06,0.16-0.14,0.29-0.26
		c0.27,0.5,0.54,0.99,0.75,1.39c-0.22,1.02,0.26,1.7,0.75,2.4c0,0.62,0,1.25,0,1.81c0.27,0.4,0.51,0.74,0.62,0.91
		c0.36,1.38-0.17,2.24-1.04,2.96c-0.18,0.15-0.47,0.32-0.49,0.51c-0.12,1.2-1.17,1.63-1.91,2.28c-1.14,1-2.43,1.84-3.64,2.77
		c-1.48,1.14-2.73,2.52-4.07,3.8c-0.44,0.42-0.95,0.78-1.45,1.12c-1.36,0.93-2.85,1.62-4.3,2.37c-2.37,1.21-4.67,2.58-7.23,3.39
		c-1.57,0.5-2.92,1.45-4.37,2.18c-0.9,0.45-1.71,1.06-2.58,1.6c0.1,0.38,0.21,0.81,0.32,1.24c0.43-0.1,0.93-0.1,1.29-0.33
		c0.79-0.5,1.62-0.93,2.4-1.44c1.51-0.97,3.13-1.69,4.81-2.3c1.39-0.5,2.8-1,4.06-1.77c1.05-0.65,2.09-1.3,3.21-1.82
		c2.08-0.98,4.04-2.11,5.62-3.82c0.63-0.69,1.37-1.28,2.07-1.91c1.33-1.19,2.77-2.23,4.15-3.35c0.26-0.21,0.56-0.39,0.83-0.6
		c0.3-0.23,0.52-0.54,0.91-0.71c0.33-0.14,0.58-0.52,0.79-0.85c0.54-0.83,0.97-1.73,1.75-2.4c0.38-0.32,0.77-1.94,0.61-2.34
		c-0.37-0.95-0.44-1.97-0.65-2.96c-0.27-1.25-0.57-2.47-1.12-3.62c-0.18-0.37-0.32-0.8-0.61-1.05c-0.42-0.37,0.04-0.98-0.45-1.26
		c0.1-1.06-0.7-1.73-1.17-2.51c-0.62-1.01-1.46-1.87-2.24-2.84c0.1-0.13,0.19-0.25,0.29-0.38
		C124.83,171.9,124.83,171.5,124.83,171.18z"/>
	<path class="st0" d="M63.39,51.29c0,0.85,0.03,1.49-0.01,2.13c-0.04,0.61,0.15,1.23-0.16,1.85c-0.27,0.55,0.18,1.25-0.31,1.79
		c0.09,0.9-0.27,1.71-0.48,2.56c-0.34,1.37-0.77,2.71-1.35,4c-0.3,0.67-0.51,1.4-0.86,2.04c-0.86,1.54-1.77,3.04-2.78,4.49
		c-1.04,1.49-2.32,2.75-3.56,4.04c-1.54,1.6-3.31,2.9-5.13,4.13c-0.8,0.54-1.69,0.93-2.55,1.37c-0.85,0.44-1.74,0.83-2.61,1.23
		c-1.57,0.74-3.25,1.04-4.86,1.59c-0.6,0.21-1.29,0.17-1.93,0.26c-0.53,0.07-1.02,0.3-1.58,0.25c-0.53-0.04-1.1-0.15-1.58,0.22
		c-1.28,0-2.56,0-3.84,0c-0.56-0.41-1.22-0.15-1.82-0.25c-1.38-0.22-2.77-0.4-4.12-0.78c-1.18-0.33-2.33-0.74-3.49-1.14
		c-0.38-0.13-0.75-0.32-1.12-0.47c-1.88-0.75-3.6-1.79-5.28-2.88c-0.76-0.5-1.52-1.02-2.21-1.61c-1.08-0.92-2.17-1.84-3.12-2.89
		c-1.46-1.61-2.88-3.3-3.98-5.18c-1.09-1.88-2.2-3.79-2.71-5.94c-0.68-1.06-0.72-2.33-1.17-3.47c-0.23-0.58-0.18-1.28-0.27-1.93
		c-0.07-0.49-0.18-0.97-0.23-1.46c-0.06-0.49,0.1-1-0.23-1.47c-0.09-0.13-0.01-0.39-0.01-0.59c0-1.16-0.02-2.32,0.01-3.48
		c0.02-0.53,0.14-1.05,0.23-1.58c0.08-0.49-0.1-0.96,0.19-1.48c0.23-0.42,0.18-1.04,0.24-1.56c0.15-1.4,0.76-2.66,1.09-4
		c0.31-1.26,1.04-2.36,1.46-3.59c0.25-0.73,0.77-1.35,1.13-2.04c0.55-1.06,1.25-2.06,2-3c1.04-1.31,2.1-2.63,3.32-3.77
		c1.06-0.98,2.22-1.89,3.38-2.78c1.92-1.48,4.06-2.52,6.22-3.54c1.62-0.76,3.3-1.33,5.06-1.69c0.89-0.19,1.8-0.32,2.67-0.52
		c0.9-0.2,1.83,0.01,2.66-0.23c0.94-0.28,1.87-0.21,2.79-0.18c1.09,0.04,2.16,0.31,3.26,0.22c0.59,0.51,1.34,0.1,2.01,0.36
		c0.58,0.23,1.26,0.28,1.88,0.4c1.04,0.2,2.06,0.61,3.06,1c1.14,0.44,2.28,0.89,3.36,1.45c1.56,0.81,3.05,1.75,4.49,2.77
		c1.94,1.37,3.63,3.02,5.2,4.78c1.21,1.35,2.28,2.86,3.22,4.41c0.91,1.51,1.7,3.11,2.3,4.8c0.43,1.22,1,2.4,1.21,3.69
		c0.45,0.41,0.13,1.01,0.38,1.52c0.3,0.62,0.12,1.45,0.31,2.15C63.56,48.68,63.29,50.09,63.39,51.29z M38.47,59.5
		c-0.34,0.29-0.75,0.59-1.09,0.95c-0.36,0.37-0.89,0.56-1.1,1.08c-0.13,0.31-0.2,0.74-0.44,0.88c-0.69,0.41-1.14,1.08-1.76,1.54
		c-1.24,0.92-2.38,1.95-3.6,2.89C30,67.21,29.5,67.55,29,67.89c-0.72,0.48-1.47,0.91-2.17,1.42c-1.02,0.73-2.2,1.06-3.36,1.45
		c-0.47,0.16-1.7,0.61-2.06,0.82c-0.7,0.42-1.42,0.81-2.08,1.18c0.07,0.35,0.14,0.71,0.21,1.09c0.34,0,0.69,0,0.89,0
		c1.65-0.63,2.92-1.8,4.64-1.89c1.43-0.78,2.92-1.49,4.29-2.37c1.34-0.86,2.64-1.83,3.84-2.88c1.14-1,2.29-1.98,3.45-2.96
		c0.36-0.3,0.74-0.59,0.86-1.21c0.11-0.61,0.87-0.88,1.43-1.01c0.9-0.21,1.45-0.81,2.08-1.38c0.78-0.71,0.88-1.64,1-2.59
		c0.02-0.17-0.14-0.35-0.15-0.53c-0.07-0.66-0.46-1.17-0.79-1.58c0.44-0.78,0.82-1.46,1.21-2.17c-0.17-0.5,0.03-1.01-0.2-1.58
		c-0.53-1.34-1.72-1.95-2.78-2.79c0.65-0.4,1.23-0.79,1.83-1.13c1.18-0.67,2.36-1.33,3.4-2.21c1-0.84,2.07-1.58,3.11-2.35
		c1.45-1.07,3.05-1.92,4.53-2.94c0.78-0.54,1.66-1.02,2.12-2.4c0.09-0.43-0.23-1.19-0.64-1.85c-0.55-0.91-2-1.35-3.15-0.98
		c-1.09,0.35-2.17,0.76-3.19,1.27c-1.72,0.87-3.41,1.82-5.09,2.78c-1,0.57-2.05,1.05-3.05,1.63c-1.51,0.86-2.81,2-4.3,2.86
		c-0.1-0.21-0.21-0.44-0.27-0.56c0.08-0.47,0.09-0.86,0.22-1.2c0.71-1.78,1.23-3.64,2.02-5.4c0.91-2.02,1.9-4,2.76-6.05
		c0.42-0.99,0.87-1.95,0.71-3.06c-0.02-0.11,0-0.23,0-0.41c-0.35-0.41-0.71-0.85-0.98-1.16c-0.49-0.14-0.81-0.28-1.14-0.31
		c-1.31-0.11-2.21,0.65-2.91,1.59c-1.03,1.39-1.97,2.85-2.92,4.3c-0.75,1.16-1.5,2.32-2.16,3.53c-0.98,1.79-1.7,3.69-2.63,5.51
		c-0.31,0.6-0.67,1.17-1.13,1.7c-0.64,0.74-1.32,1.47-1.72,2.39c-0.06,0.14-0.1,0.28-0.17,0.41c-0.76,1.36-1.97,2.36-2.89,3.6
		c-0.69,0.93-1.52,1.76-2.18,2.7c-0.63,0.9-1.3,1.78-1.97,2.66c-0.21,0.27-0.4,0.55-0.59,0.83c-0.2,0.28-0.45,0.5-0.64,0.81
		c-0.5,0.81-1.14,1.53-1.73,2.28c-0.73,0.93-1.74,1.47-2.78,1.96c-0.97,0.46-1.93,0.96-2.9,1.45c0.02,0.44,0.04,0.81,0.06,1.18
		c0.48,0,0.88,0,1.19,0c1.29-0.66,2.49-1.34,3.75-1.89c0.6-0.26,1.04-0.64,1.47-1.09c0.18-0.19,0.28-0.44,0.43-0.66
		c0.18-0.25,0.37-0.49,0.56-0.73c0.78-1.04,1.54-2.08,2.33-3.11c0.63-0.82,1.32-1.62,1.91-2.45c1.23-1.74,2.63-3.32,4.03-4.91
		c0.64-0.72,1.22-1.44,1.61-2.33c0.29-0.66,0.68-1.28,1.25-1.76c0.54-0.45,0.88-1.05,1.19-1.66c0.61-1.23,1.31-2.42,1.75-3.71
		c0.41-1.18,1.12-2.18,1.68-3.26c0.71-1.36,1.6-2.63,2.49-3.88c0.93-1.3,1.61-2.82,2.97-3.76c0.35,0,0.7,0,1.03,0
		c0.22,0.56,0.41,1.01,0.08,1.63c-0.94,1.76-1.8,3.57-2.62,5.38c-0.47,1.04-0.84,2.13-1.24,3.2c-0.4,1.08-0.82,2.14-1.13,3.24
		c-0.24,0.87-0.73,1.7-0.55,2.65c0.08,0.41,0.17,0.81,0.28,1.27c0.24,0.23,0.53,0.51,0.72,0.69c0.61,0.27,1.11,0.11,1.53-0.16
		c0.68-0.42,1.26-0.99,1.94-1.42c1.01-0.64,1.94-1.41,3.04-1.92c1.75-0.8,3.44-1.76,5.11-2.71c1.63-0.92,3.27-1.73,5.03-2.34
		c0.6-0.21,1.06-0.23,1.5,0.16c0.34,0.4,0.39,0.83,0.2,1.31c-0.25,0.16-0.5,0.34-0.76,0.49c-1.51,0.86-2.8,2.03-4.31,2.91
		c-1.18,0.68-2.26,1.52-3.34,2.36c-1.05,0.82-3.09,2.29-4.82,3.14c-1.02,0.5-2.04,1.07-2.75,2.05c0,0.21,0,0.45,0,0.6
		c0.31,0.34,0.58,0.64,0.83,0.92c0.5,0,0.98,0,1.41,0c0.83,0.58,1.96,0.84,1.96,2.08c-0.08,0.61-0.5,1.03-0.82,1.71
		c-0.6-0.81-1.31-1.18-2.16-1.45c0,0.61,0,1.12,0,1.65c1.05,0.67,1.94,1.52,2.61,2.58c0,0.4,0,0.8,0,1.21
		c-0.27,0.36-0.54,0.73-0.79,1.07C39.18,59.5,38.86,59.5,38.47,59.5z"/>
	<path class="st0" d="M157.71,51.36c0-0.56,0-1.12,0-1.68c0-0.6-0.17-1.27,0.05-1.78c0.24-0.56-0.03-1.15,0.23-1.58
		c0.32-0.53-0.02-1.18,0.45-1.62c-0.01-1.23,0.54-2.33,0.88-3.47c0.45-1.54,1.25-2.92,1.93-4.36c0.97-2.03,2.27-3.81,3.64-5.57
		c0.98-1.26,2.14-2.33,3.26-3.43c0.82-0.8,1.74-1.52,2.69-2.18c1.63-1.13,3.3-2.18,5.11-3c0.87-0.4,1.78-0.73,2.67-1.08
		c0.83-0.33,1.74-0.47,2.53-0.83c0.48-0.22,0.95-0.02,1.44-0.32c0.51-0.31,1.28-0.14,1.9-0.31c0.96-0.27,1.97-0.04,2.89-0.27
		c0.91-0.22,1.79-0.22,2.67-0.17c1.13,0.06,2.24,0.3,3.38,0.22c0.49,0.34,1.18,0.03,1.55,0.29c0.48,0.34,0.98,0.03,1.44,0.34
		c0.41,0.27,1.02,0.2,1.53,0.34c0.82,0.24,1.65,0.47,2.42,0.81c1.53,0.66,3.05,1.34,4.52,2.13c1.19,0.64,2.33,1.39,3.4,2.2
		c1.21,0.92,2.4,1.88,3.44,2.97c1.14,1.19,2.19,2.48,3.2,3.81c1.13,1.48,2.05,3.07,2.91,4.68c0.69,1.3,1.3,2.68,1.68,4.09
		c0.31,1.15,0.86,2.27,0.82,3.5c0.35,0.48,0.05,1.14,0.28,1.55c0.32,0.56,0.05,1.09,0.2,1.6c0.44,1.43,0.17,2.89,0.22,4.34
		c0.03,0.65,0.04,1.29-0.2,1.95c-0.2,0.56,0.04,1.2-0.23,1.82c-0.2,0.45-0.13,1.04-0.23,1.57c-0.08,0.45-0.21,0.89-0.31,1.32
		c-0.25,1.08-0.54,2.17-0.96,3.2c-0.44,1.09-0.82,2.22-1.41,3.25c-0.99,1.72-1.94,3.47-3.2,5.03c-1.05,1.31-2.09,2.63-3.33,3.77
		c-1.67,1.53-3.48,2.89-5.36,4.15c-0.77,0.51-1.64,0.86-2.46,1.29c-1.68,0.85-3.89,1.57-5.84,2.13c-0.74,0.21-1.56,0.24-2.24,0.66
		c-0.09,0.05-0.23,0.03-0.35,0.02c-1.02-0.06-1.99,0.41-3.02,0.24c-1.26,0.48-2.57,0.18-3.86,0.22c-0.56,0.02-1.13-0.14-1.7-0.22
		c-0.57-0.08-1.13,0.1-1.72-0.2c-0.43-0.22-1.04-0.15-1.57-0.24c-1.45-0.24-2.85-0.62-4.23-1.12c-1.74-0.62-3.45-1.36-5.05-2.29
		c-1.54-0.89-3.01-1.89-4.4-3.01c-1.14-0.92-2.13-1.99-3.18-3c-1.45-1.39-2.56-3.06-3.69-4.71c-0.59-0.86-1.13-1.76-1.56-2.71
		c-0.77-1.68-1.53-3.36-2.05-5.14c-0.32-1.08-0.51-2.19-0.75-3.29c-0.21-0.97-0.31-1.95-0.43-2.93
		C157.62,53.37,157.71,52.36,157.71,51.36z M209.1,44.16c-0.14,1.07-0.61,2.04-1.2,2.95c-0.75,1.16-1.63,2.22-2.51,3.29
		c-1.13,1.37-2.3,2.71-3.45,4.06c-1.06,1.26-2.12,2.51-2.97,3.93c-0.64,1.06-1.38,2.06-2.35,2.87c-0.51,0.42-1.04,0.82-1.51,1.28
		c-1.23,1.21-2.57,2.27-3.86,3.4c-0.99,0.87-1.99,1.73-3.04,2.52c-1.02,0.76-2.07,1.48-3.2,2.1c-1.76,0.97-3.74,1.43-5.52,2.55
		c0.1,0.38,0.22,0.81,0.34,1.26c0.18-0.1,0.32-0.25,0.42-0.23c0.71,0.15,1.24-0.31,1.83-0.52c0.31-0.11,0.58-0.35,0.89-0.45
		c2.26-0.68,4.19-1.96,6.05-3.35c0.86-0.65,1.68-1.36,2.54-2.01c1.42-1.08,2.74-2.27,4.06-3.46c1.06-0.95,2.26-1.78,3.07-3
		c0.23-0.35,0.57-0.6,0.81-0.98c0.94-1.47,1.91-2.92,3.03-4.26c1-1.19,2.01-2.37,3.04-3.54c0.87-0.99,1.72-2,2.54-3.03
		c0.8-1.01,1.49-2.08,2.02-3.24c0.24-0.54,0.47-1.1,0.59-1.67c0.06-0.3-0.14-0.65-0.21-0.97c-0.14-0.66-0.35-1.24-1.09-1.46
		c-0.23-0.07-0.42-0.26-0.66-0.41c0.86-1.3,1.69-2.55,2.37-3.57c0.36-1.76-0.27-2.91-1.41-3.84c0.58-0.89,0.89-1.81,0.78-2.77
		c-0.18-0.31-0.38-0.55-0.46-0.83c-0.15-0.51-0.55-0.71-0.97-0.9c-0.33-0.15-1.09-0.17-1.91-0.14c-0.41,0.02-0.71,0.24-1.03,0.42
		c-0.32,0.19-0.63,0.4-0.97,0.62c-0.42-0.83-1.04-1.37-1.85-1.77c-0.48,0.16-1-0.01-1.57,0.19c-1.66,0.59-3.12,1.46-4.45,2.59
		c-0.65,0.55-1.24,1.21-1.96,1.67c-0.54,0.35-0.94,0.81-1.41,1.21c-0.47,0.4-0.96,0.78-1.43,1.19c-0.88,0.77-1.75,1.55-2.62,2.32
		c-0.41-0.28-0.79-0.53-1.13-0.76c-0.32,0-0.63-0.07-0.88,0.01c-0.91,0.29-1.81,0.64-2.72,0.97c-0.66,0.24-1.31,0.57-1.99,0.68
		c-1.55,0.24-2.77,0.89-3.64,2.25c-0.67,1.06-1.46,2.05-2.26,3.02c-0.72,0.88-1.52,1.69-2.28,2.54c-0.12,0.13-0.16,0.33-0.26,0.49
		c-0.72,1.19-0.95,2.56-1.42,3.84c-0.43,1.14-0.78,2.31-1.21,3.45c-0.56,1.47-1.03,2.95-1.22,4.34c-1.15,1.12-2.91,1.19-3.64,2.82
		c0.69,0,1.28,0,1.83,0c0.78-0.39,1.53-0.8,2.31-1.15c0.54-0.24,0.98-0.53,1.2-1.26c-0.06-0.8,0.13-1.72,0.4-2.66
		c0.59-2.03,1.55-3.93,2.01-6c0.09-0.39,0.34-0.74,0.52-1.14c0.24,0.21,0.44,0.37,0.68,0.59c0.58-0.5,1.11-1.01,1.7-1.43
		c1.69-1.22,3.42-2.39,5.1-3.63c1.24-0.92,2.57-1.71,3.83-2.62c1.34-0.96,2.61-1.99,3.89-3.02c1.11-0.9,2.24-1.81,3.27-2.8
		c1.36-1.3,2.93-2.35,4.24-3.7c0.16-0.16,0.38-0.25,0.55-0.39c0.96-0.8,2.1-1.3,3.21-1.88c0.39,0,0.82,0,1.27,0
		c0.17,0.29,0.33,0.57,0.46,0.8c-0.14,0.25-0.21,0.49-0.36,0.63c-0.82,0.73-1.52,1.57-2.41,2.24c-1.06,0.8-1.95,1.82-2.96,2.7
		c-1.17,1.02-2.21,2.2-3.33,3.28c-0.99,0.95-1.99,1.91-3.05,2.78c-0.45,0.36-0.94,0.61-1.03,1.24c0.21,0.3,0.42,0.59,0.68,0.94
		c0.82-0.61,1.71-1.15,2.44-1.85c2.24-2.14,4.35-4.41,6.7-6.43c1.04-0.9,2.03-1.86,3.04-2.79c0.06-0.05,0.1-0.15,0.17-0.16
		c0.58-0.15,0.84-0.68,1.26-1.02c0.45-0.37,0.93-0.7,1.33-1.11c0.58-0.59,1.21-0.95,1.9-0.8c0.32,0.26,0.54,0.43,0.7,0.56
		c0,0.47,0,0.87,0,1.16c-0.27,0.39-0.45,0.74-0.7,1.02c-0.92,1.02-1.86,2.03-2.79,3.04c-0.14,0.15-0.32,0.26-0.42,0.43
		c-0.72,1.17-1.77,2.06-2.66,3.08c-1.34,1.53-2.85,2.92-4.31,4.34c-0.61,0.6-1.29,1.13-1.93,1.7c-0.53,0.48-0.71,1.13-0.9,1.84
		c0.32,0.19,0.62,0.37,0.93,0.55c0.47-0.6,1.13-0.95,1.4-1.65c0.07-0.17,0.25-0.35,0.42-0.42c0.77-0.32,1.16-1.04,1.76-1.54
		c0.6-0.5,1.2-0.99,1.76-1.53c0.36-0.34,0.61-0.8,0.95-1.16c1.35-1.45,2.71-2.88,4.07-4.31c0.05-0.06,0.13-0.1,0.17-0.17
		c0.51-1,1.46-1.57,2.11-2.35c0.92,0.34,1.23,0.95,1.12,1.69c-0.21,0.29-0.34,0.48-0.47,0.67c-0.85,1.29-1.69,2.58-2.55,3.86
		c-0.43,0.63-0.92,1.22-1.35,1.84c-0.46,0.66-0.98,1.27-1.47,1.9c-0.69,0.89-1.61,1.6-2.28,2.54c-0.21,0.29-0.62,0.44-0.9,0.69
		c-1.56,1.4-2.56,3.22-3.71,4.93c0.02,0.49,0.04,0.96,0.07,1.43c0,0.03,0.06,0.05,0.09,0.08c1.1-0.63,1.38-0.89,1.79-1.62
		c0.07-0.13,0.14-0.26,0.22-0.39c0.97-1.5,2.12-2.85,3.39-4.11c1.96-1.94,3.9-3.9,5.88-5.87C208.66,43.63,208.83,43.84,209.1,44.16z
		"/>
	<path class="st0" d="M77.2,96.66c-0.52,0-1.04-0.01-1.56,0c-1.16,0.03-2.24-0.36-3.36-0.59c-1.43-0.29-2.73-0.96-4-1.63
		c-0.93-0.5-1.85-1.06-2.61-1.83c-0.35-0.35-0.81-0.59-1.16-0.95c-1.74-1.78-3.19-3.78-4.13-6.08c-0.53-1.3-0.9-2.67-1.13-4.1
		c-0.26-1.58-0.22-3.14-0.15-4.7c0.07-1.64,0.56-3.22,1.13-4.79c0.6-1.64,1.61-3.01,2.48-4.49c0.29-0.5,0.85-0.84,1.25-1.29
		c1.67-1.91,3.75-3.23,6.01-4.31c0.97-0.46,2.02-0.73,3.07-1c1.88-0.49,3.78-0.5,5.68-0.44c0.52,0.01,1.03,0.25,1.58,0.25
		c0.51,0,1.03,0.18,1.54,0.32c0.5,0.14,0.98,0.34,1.47,0.5c1.68,0.56,3.19,1.45,4.61,2.47c1.82,1.3,3.3,2.93,4.51,4.82
		c1.04,1.61,1.78,3.34,2.32,5.15c0.18,0.6,0.27,1.26,0.36,1.91c0.14,1.05,0.18,2.09,0.2,3.14c0.03,1.89-0.42,3.69-0.96,5.47
		c-0.37,1.21-1.43,3.36-2.34,4.54c-1.51,1.95-3.21,3.69-5.34,4.99c-2.11,1.29-2.93,1.54-5.22,2.17c-0.69,0.19-1.4,0.31-2.09,0.43
		C78.66,96.75,77.92,96.66,77.2,96.66z M80.19,80.97c0.7-0.43,1.41-0.4,2.05-0.56c0.57-0.14,1.33-0.32,1.93,0.18
		c1.04,0,1.98,0.36,2.95,0.7c0.53,0.19,1.13,0.17,1.69,0.27c0.17,0.03,0.33,0.16,0.35,0.17c0.59-0.09,1.04-0.16,1.46-0.23
		c2-0.8,2.72-2.34,2.53-4.32c-0.26-0.48-0.47-0.91-0.71-1.33c-0.13-0.23-0.27-0.48-0.48-0.64c-1.11-0.82-2.35-1.34-3.74-1.07
		c-0.96,0.19-1.83,0.56-2.35,1.57c-0.41,0.8-0.46,1.65-0.72,2.46c-1.81-0.25-3.62-0.51-5.37-0.75c-0.13-0.13-0.28-0.21-0.29-0.3
		c-0.18-1.26-0.71-2.43-1.07-3.64c-0.58-1.95-1.19-3.89-1.81-5.83c-0.43-1.34-1.03-2.35-2.14-3.18c-0.46-0.35-0.98-0.7-1.64-0.67
		c-0.21,0.01-0.42-0.15-0.63-0.19c-0.21-0.03-0.42-0.01-0.78-0.01c0.17,0.27,0.3,0.38,0.32,0.51c0.22,1.25,0.66,2.44,1.02,3.65
		c0.34,1.14,0.63,2.29,0.97,3.43c0.22,0.75,0.56,1.47,0.7,2.22c0.19,1.03,0.63,1.99,0.8,3.03c0.04,0.24,0.14,0.47,0.23,0.78
		c-0.44,0-0.76,0-1.07,0c-1.12,0-2.28,0.19-3.35-0.05c-1.11-0.26-2.19-0.11-3.27-0.17C66.64,76.95,65.52,77,64.4,77
		c-0.12,0-0.24,0.01-0.36,0c-0.11-0.01-0.24-0.01-0.34-0.05c-0.82-0.38-1.65-0.15-2.5-0.12c0.11,0.34,0.2,0.59,0.27,0.83
		c0.39,1.35,1.37,2.19,2.59,2.66c0.9,0.35,1.94,0.33,2.91,0.49c0.82,0.13,1.68,0,2.51,0.04c0.81,0.04,1.61,0.18,2.42,0.22
		c0.84,0.04,1.68,0.06,2.52-0.01c0.83-0.06,1.57,0.39,2.25,0.27c0.73,1.86,1.42,3.61,2.12,5.4c-0.46,0.13-0.89,0.26-1.32,0.39
		c-0.52,0.52-1.05,1.05-1.52,1.52c-0.12,0.34-0.28,0.61-0.31,0.9c-0.16,1.6,0.21,3.01,1.56,4.02c0.66,0.49,1.42,0.86,2.24,0.94
		c1.09,0.1,1.97-0.38,2.77-1.14c1.27-1.21,1.47-3.26,0.5-4.82c-0.65-1.04-1.31-2.08-1.81-3.21c-0.31-0.72-0.72-2.22-0.72-2.82
		C80.19,81.98,80.19,81.47,80.19,80.97z"/>
	<path class="st0" d="M112.6,115.84c0.7,0,1.22,0.02,1.74,0c1.01-0.04,1.96,0.22,2.92,0.48c1.29,0.35,2.54,0.8,3.72,1.44
		c1.3,0.71,2.59,1.45,3.63,2.53c0.28,0.29,0.55,0.58,0.85,0.85c1.62,1.45,2.79,3.23,3.68,5.19c0.57,1.25,1.16,2.51,1.21,3.93
		c0.39,0.48,0.09,1.09,0.27,1.57c0.21,0.57,0.21,1.13,0.21,1.71c0.01,0.56,0.09,1.14-0.01,1.67c-0.35,1.83-0.59,3.67-1.34,5.43
		c-0.7,1.65-1.6,3.13-2.68,4.52c-0.43,0.55-0.86,1.11-1.36,1.59c-1.07,1.04-2.26,1.9-3.55,2.69c-1.19,0.74-2.43,1.28-3.74,1.7
		c-1,0.32-2.03,0.55-3.08,0.69c-1.05,0.15-2.1,0.14-3.14,0.21c-0.53,0.04-0.98-0.17-1.46-0.26c-0.45-0.08-0.96,0.23-1.34-0.23
		c-3.58-0.68-3.36-0.97-5.63-2.05c-0.74-0.35-1.48-0.79-2.07-1.36c-1.3-1.26-2.72-2.42-3.7-3.97c-0.53-0.85-1.09-1.68-1.51-2.61
		c-0.5-1.09-0.79-2.23-1.15-3.36c-0.72-2.27-0.44-4.58-0.42-6.88c0.01-1.02,0.37-2.06,0.7-3.05c0.33-0.97,0.82-1.9,1.27-2.83
		c1-2.08,2.48-3.8,4.16-5.34c0.56-0.51,1.24-0.88,1.82-1.37c0.58-0.5,1.42-0.56,1.91-1.18c1.59-0.5,3.09-1.24,4.77-1.53
		C110.45,115.83,111.61,115.93,112.6,115.84z M116.53,145.12c0.79-0.08,1.79-0.17,2.79-0.28c0.21-0.02,0.41-0.15,0.62-0.23
		c1.59-0.6,3.26-0.97,4.74-1.87c0.86-0.52,1.57-1.15,2.06-1.99c0.73-1.28,1.13-2.68,0.94-4.14c-0.09-0.73-0.24-1.48-0.46-2.2
		c-0.36-1.17-0.71-2.34-1.44-3.36c-0.85-1.19-1.64-2.44-2.49-3.63c-0.8-1.12-1.29-2.54-2.67-3.2c-0.83-1.06-2.11-1.29-3.27-1.64
		c-1.28-0.39-2.56-0.76-3.84-1.14c-0.71-0.21-1.43-0.42-2.17-0.55c-0.93-0.17-1.84,0.18-2.75,0.31c-0.98,0.14-1.91,0.56-2.86,0.88
		c-1.85,0.61-3.28,1.81-4.41,3.36c-0.57,0.78-1.09,1.6-1.28,2.58c-0.53,0.47-0.43,1.19-0.61,1.78c-0.19,0.6-0.42,1.24-0.29,1.93
		c0.05,0.25-0.07,0.5-0.16,0.76c-0.37,1.08-0.25,2.26-0.53,3.37c-0.05,0.19,0.1,0.43,0.15,0.65c0.03,0.15,0.08,0.3,0.07,0.45
		c-0.05,0.74,0.26,1.4,0.44,2.09c0.17,0.66,0.5,1.1,0.93,1.54c0.25,0.26,0.51,0.5,0.76,0.76c0.67,0.7,1.57,1.1,2.45,1.31
		c1.21,0.3,2.46,0.6,3.75,0.53c0.6-0.03,1.2,0,1.8-0.01c0.2,0,0.4,0.02,0.59-0.03c1.16-0.28,1.34-0.2,2.35-0.03
		c0.74,0.12,1.31,0.56,1.97,0.74C114.65,144.12,115.44,144.67,116.53,145.12z"/>
	<path class="st0" d="M143.93,62.13c0.6,0,1.2-0.03,1.8,0.01c1.85,0.12,3.63,0.55,5.31,1.36c1.21,0.58,2.41,1.18,3.5,1.98
		c1.29,0.94,2.44,1.98,3.45,3.24c1,1.25,1.82,2.58,2.5,4.01c0.48,1,0.77,2.08,1.08,3.15c0.62,2.12,0.54,4.27,0.4,6.4
		c-0.1,1.62-0.58,3.22-1.21,4.76c-0.69,1.69-1.62,3.23-2.77,4.59c-1.25,1.48-2.69,2.8-4.38,3.85c-1.63,1.01-3.38,1.68-5.15,2.34
		c-0.41,0.15-0.93-0.08-1.33,0.27c-0.79-0.17-1.52,0.25-2.3,0.24c-0.76-0.01-1.54,0.11-2.28-0.02c-1.8-0.33-3.6-0.59-5.34-1.3
		c-1.4-0.57-2.73-1.27-3.9-2.13c-1.33-0.98-2.62-2.06-3.62-3.47c-0.78-1.11-1.59-2.2-2.16-3.43c-0.59-1.28-1.12-2.58-1.33-4.01
		c-0.07-0.48-0.06-1.02-0.23-1.45c-0.18-0.46-0.2-0.89-0.2-1.35c-0.01-0.52,0.03-1.04-0.01-1.56c-0.09-1.33,0.26-2.6,0.52-3.87
		c0.23-1.11,0.61-2.21,1.17-3.22c0.52-0.95,1.05-1.89,1.66-2.79c0.53-0.79,1.09-1.6,1.79-2.25c1.54-1.45,3.76-3.28,6.42-4.16
		c0.74-0.25,1.4-0.72,2.23-0.7c0.34-0.49,0.92-0.05,1.3-0.33c0.43-0.31,0.92-0.11,1.38-0.14C142.81,62.11,143.37,62.13,143.93,62.13
		z M134.23,65.99c0,9.24,0,18.37,0,27.51c3.44,0.16,20.3,0.1,21.28-0.07c0-6.11,0-12.21,0-18.19c-0.57-0.51-1.08-0.93-1.54-1.4
		c-0.32-0.32-0.54-0.75-0.86-1.07c-1.61-1.64-3.27-3.22-4.75-4.99c-0.5-0.59-1.06-1.14-1.67-1.79
		C142.65,65.99,138.46,65.99,134.23,65.99z"/>
	<path class="st0" d="M64.09,16c-0.37-0.59-0.64-1.03-0.91-1.46c1.01-0.62,2.03-1.24,3.05-1.87c0.1-0.06,0.19-0.12,0.29-0.17
		c2.3-1.2,4.56-2.49,6.92-3.57c1.77-0.81,3.6-1.53,5.43-2.24c2.04-0.79,4.08-1.56,6.16-2.21c1.6-0.5,3.2-1,4.85-1.34
		c1.13-0.23,2.24-0.58,3.35-0.89c0.47-0.13,1.02,0.1,1.44-0.29c1.12,0.02,2.15-0.57,3.28-0.48c0.53-0.37,1.18-0.08,1.69-0.28
		c0.55-0.21,1.13-0.03,1.58-0.23c0.92-0.42,1.94,0.07,2.82-0.44c0.06-0.04,0.16-0.01,0.24,0c1.14,0.13,2.25-0.19,3.38-0.23
		c1.16-0.04,2.33,0.08,3.48-0.04c1.05-0.1,2.11-0.38,3.14-0.19c1.85,0.33,3.71,0.04,5.54,0.26c1.01,0.12,2.04,0.05,3.02,0.24
		c0.7,0.13,1.38,0.16,2.07,0.21c0.41,0.03,0.81,0.17,1.22,0.22c0.38,0.05,0.74,0,1.12,0.22c0.27,0.15,0.71,0,1.06,0.04
		c0.33,0.04,0.66,0.14,0.98,0.23c1.13,0.31,2.34,0.22,3.42,0.72c1.93,0.11,3.72,0.92,5.62,1.22c0.76,0.12,1.48,0.47,2.23,0.7
		c1.24,0.37,2.49,0.71,3.71,1.18c1.62,0.63,3.28,1.15,4.88,1.82c2.55,1.07,5.11,2.13,7.55,3.45c0.01,0.01,0.05-0.05,0.13-0.13
		c-0.54-1.06-1.83-1.56-2.22-2.84c0.2-0.17,0.43-0.37,0.67-0.58c1.14,1.23,2.36,2.42,3.42,3.74c0.57,0.7,1.21,1.33,1.8,2
		c0.37,0.43,0.7,0.9,1.13,1.46c-0.59-0.14-1.14,0.23-1.62-0.26c-0.04-0.04-0.15-0.01-0.23,0c-0.58,0.02-1.14-0.06-1.71-0.21
		c-0.5-0.14-1.04-0.08-1.58-0.23c-0.81-0.22-1.69-0.18-2.53-0.28c-0.56-0.07-1.11-0.21-1.71-0.33c-0.05-0.05-0.14-0.14-0.19-0.19
		c0.08-0.29,0.15-0.57,0.25-0.91c0.66,0.08,1.33,0.15,2.01,0.24c0.64,0.08,1.25,0.41,2.02,0.15c-0.75-0.39-1.41-0.8-2.12-1.1
		c-0.75-0.31-1.42-0.81-2.23-0.99c-0.31-0.07-0.58-0.34-0.89-0.46c-1.27-0.5-2.55-1-3.81-1.51c-1.69-0.68-3.39-1.28-5.11-1.86
		c-1.48-0.5-2.96-1.04-4.46-1.36c-1.54-0.33-3.05-0.81-4.61-1.08c-0.94-0.16-1.91-0.29-2.85-0.62c-0.54-0.19-1.21-0.2-1.81-0.25
		c-0.77-0.06-1.51-0.44-2.3-0.27c-0.87-0.53-1.93,0.05-2.8-0.48c-1.22,0.18-2.4-0.31-3.62-0.25c-0.68,0.04-1.39,0.14-2.03-0.02
		c-1.13-0.28-2.26-0.18-3.39-0.21c-1.12-0.02-2.24-0.03-3.36,0.01c-0.81,0.03-1.61,0.18-2.42,0.22c-0.8,0.04-1.63-0.12-2.39,0.04
		c-0.82,0.18-1.63,0.09-2.42,0.23c-1.33,0.22-2.68,0.27-4,0.5c-0.49,0.08-1.01,0.07-1.45,0.23c-0.5,0.18-1.02,0.08-1.46,0.24
		c-0.65,0.23-1.33,0.25-1.97,0.44c-0.64,0.19-1.32,0.26-1.97,0.44c-0.64,0.18-1.31,0.39-1.95,0.48c-1.46,0.21-2.85,0.7-4.26,1.06
		c-1.27,0.33-2.52,0.84-3.79,1.26c-1.48,0.49-2.9,1.11-4.38,1.59c-0.62,0.2-1.22,0.53-1.82,0.8c-2.53,1.15-5.05,2.31-7.49,3.64
		c-1.54,0.84-3.04,1.74-4.55,2.62C64.42,15.62,64.31,15.79,64.09,16z"/>
	<path class="st0" d="M166.11,171.71c0.12-0.01,0.29,0.04,0.36-0.02c1.51-1.23,3.12-2.32,4.68-3.48c0.69-0.51,1.27-1.15,1.95-1.68
		c3.32-2.59,6.14-5.71,9.12-8.66c0.9-0.9,1.74-1.87,2.48-2.92c0.43-0.6,0.97-1.12,1.43-1.69c0.94-1.17,1.92-2.31,2.78-3.53
		c1.12-1.6,2.24-3.21,3.25-4.88c0.58-0.96,1.25-1.87,1.79-2.86c1.18-2.14,2.47-4.24,3.46-6.48c0.95-2.16,1.99-4.29,2.82-6.5
		c0.77-2.04,1.57-4.07,2.19-6.16c0.39-1.32,0.75-2.65,1.15-3.96c0.34-1.11,0.49-2.26,0.89-3.35c0.17-0.46-0.1-1.02,0.3-1.43
		c-0.02-1.12,0.57-2.15,0.48-3.28c0.34-0.49,0.05-1.14,0.28-1.55c0.29-0.52,0.02-1.03,0.21-1.48c0.31-0.72,0.01-1.51,0.28-2.16
		c0.3-0.72-0.01-1.42,0.2-2.08c0.37-1.2,0.13-2.42,0.23-3.62c0.06-0.68,0.21-1.35,0.32-2.06c0.4,0,0.83,0,1.35,0
		c0,1.31,0.14,2.63-0.05,3.91c-0.13,0.86-0.14,1.7-0.19,2.55c-0.03,0.49-0.33,0.93-0.26,1.46c0.07,0.49-0.06,0.97-0.19,1.47
		c-0.21,0.85-0.08,1.79-0.31,2.64c-0.28,1.05-0.33,2.14-0.64,3.2c-0.25,0.85-0.31,1.78-0.54,2.66c-0.44,1.73-0.83,3.47-1.36,5.19
		c-0.44,1.42-0.8,2.86-1.28,4.27c-0.41,1.19-0.91,2.35-1.28,3.54c-0.44,1.42-1.21,2.7-1.6,4.13c-0.09,0.31-0.32,0.59-0.47,0.88
		c-0.73,1.45-1.25,3-2.09,4.41c-0.99,1.66-1.84,3.4-2.85,5.06c-1.25,2.06-2.56,4.07-3.91,6.05c-0.4,0.59-0.85,1.15-1.24,1.76
		c-0.38,0.61-0.92,1.13-1.33,1.73c-0.7,1.05-1.63,1.93-2.3,3c-0.04,0.07-0.11,0.11-0.17,0.17c-0.93,1.01-1.92,1.98-2.79,3.05
		c-1.15,1.42-2.45,2.68-3.75,3.95c-1.13,1.1-2.28,2.18-3.47,3.22c-1.34,1.17-2.69,2.33-4.12,3.38c-1.32,0.96-2.55,2.04-3.96,2.86
		c-0.25,0.15-0.45,0.39-0.6,0.74c1.15-0.27,2.3-0.54,3.42-0.81c0.16,0.34,0.26,0.58,0.37,0.81c-0.04,0.07-0.06,0.18-0.11,0.19
		c-0.9,0.25-1.79,0.54-2.7,0.72c-0.78,0.15-1.5,0.53-2.32,0.5c-0.35,0.52-0.94,0.14-1.41,0.36c-0.69,0.33-1.51,0.41-2.27,0.59
		c-0.15,0.03-0.31,0-0.64,0c1.96-2.65,3.84-5.19,5.77-7.8c0.33,0.3,0.58,0.52,0.87,0.78c-0.42,0.54-0.88,1.02-1.19,1.57
		C166.83,170.65,166.2,171,166.11,171.71c0.01,0,0-0.02-0.02-0.04c-0.07,0.06-0.13,0.11-0.2,0.17c0.03,0.03,0.05,0.05,0.08,0.08
		C166.03,171.85,166.08,171.79,166.11,171.71z"/>
	<path class="st0" d="M18.99,102.7c-0.16-0.02-0.24-0.04-0.38-0.06c-0.36,1.11-0.51,2.3-1.09,3.3c-0.32-0.09-0.59-0.16-0.94-0.26
		c0-0.12-0.05-0.3,0.01-0.42c0.57-1.18,0.77-2.48,1.18-3.71c0.44-1.34,0.81-2.7,1.21-4.05c0.11-0.36,0.22-0.71,0.37-1.18
		c0.85,1.48,1.35,3.03,2.02,4.49c0.67,1.44,1.25,2.92,1.88,4.42c-0.28,0.1-0.63,0.23-1.03,0.38c-0.59-1.34-1.15-2.62-1.75-4.01
		c-0.01,0.69-0.22,1.28,0.17,1.86c0.06,0.08,0.05,0.23,0.03,0.34c-0.17,1.14,0.31,2.24,0.26,3.38c-0.02,0.4,0.2,0.81,0.21,1.22
		c0.01,0.47,0.12,0.9,0.24,1.34c0.11,0.39,0.07,0.81,0.21,1.23c0.16,0.52,0.16,1.12,0.27,1.69c0.26,1.33,0.61,2.63,0.88,3.95
		c0.22,1.07,0.58,2.09,0.81,3.15c0.34,1.53,0.83,3.01,1.34,4.48c0.52,1.5,1.02,3.01,1.55,4.51c0.17,0.49,0.37,0.97,0.58,1.44
		c1.27,2.88,2.53,5.76,4.02,8.52c0.78,1.44,1.58,2.88,2.47,4.26c0.85,1.32,1.67,2.67,2.53,3.98c0.9,1.36,1.89,2.66,2.85,3.98
		c0.67,0.92,1.33,1.85,2.04,2.75c0.41,0.51,0.89,0.97,1.29,1.5c0.68,0.91,1.5,1.71,2.27,2.54c0.8,0.87,1.66,1.66,2.4,2.59
		c0.65,0.82,1.55,1.43,2.33,2.14c1.25,1.15,2.42,2.39,3.74,3.45c1.66,1.35,3.26,2.78,5.08,3.93c0.65,0.41,1.19,0.98,1.83,1.52
		c-0.3,0.44-0.57,0.84-0.83,1.24c-0.91-0.63-1.81-1.23-2.68-1.87c-0.56-0.41-1.08-0.88-1.61-1.33c-1.01-0.85-1.97-1.76-3.04-2.52
		c-0.85-0.6-1.46-1.43-2.27-2.04c-1.75-1.32-3.16-3-4.72-4.51c-0.96-0.93-1.85-1.93-2.72-2.95c-1.16-1.35-2.34-2.68-3.38-4.12
		c-1.11-1.53-2.25-3.04-3.33-4.6c-0.9-1.3-1.69-2.68-2.62-3.96c-0.35-0.48-0.66-1-0.94-1.53c-1.32-2.45-2.78-4.82-3.9-7.37
		c-0.89-2.03-1.8-4.04-2.62-6.11c-0.89-2.27-1.73-4.57-2.45-6.89c-0.41-1.31-0.82-2.63-1.12-3.98c-0.16-0.73-0.3-1.49-0.56-2.17
		c-0.19-0.51-0.02-1.04-0.36-1.54c-0.25-0.37-0.19-0.95-0.28-1.44c-0.07-0.41-0.16-0.81-0.24-1.22c-0.08-0.37-0.18-0.73-0.23-1.1
		c-0.06-0.41-0.07-0.81-0.2-1.23c-0.23-0.72-0.19-1.52-0.29-2.28c-0.06-0.53-0.18-1.05-0.23-1.58c-0.05-0.49-0.07-0.97-0.2-1.47
		C18.86,104.14,18.99,103.39,18.99,102.7z"/>
	<path class="st0" d="M64.83,109.66c0,0.53-0.03,1.01,0.01,1.49c0.04,0.46-0.16,0.84-0.44,1.14c-0.47,0.51-0.91,1.08-1.75,1.39
		c-0.71-0.05-1.63,0.23-2.4-0.57c-1.01,1.51-1.99,2.97-2.99,4.47c-0.52-0.8-1.02-1.55-1.5-2.27c0.89-1.27,1.77-2.52,2.64-3.76
		c-0.39-0.53-0.73-0.99-1.1-1.49c-1.02,0.69-2,1.37-3,2.03c-0.18,0.12-0.42,0.14-0.63,0.21c-0.43-0.68-0.99-1.22-1.1-2.01
		c2.93-1.99,5.85-3.98,8.76-5.95C62.51,106.13,63.68,107.91,64.83,109.66z M62.8,109.97c-0.57-0.88-1.11-1.71-1.65-2.54
		c-0.74,0.49-1.42,0.93-2.21,1.45c0.57,0.81,0.97,1.7,1.68,2.4c0.4,0,0.8,0,1.29,0C62.17,110.9,62.46,110.46,62.8,109.97z"/>
	<path class="st0" d="M181.17,108.39c-1.53-0.53-2.89-1.01-4.31-1.5c-0.44,0.5-1.01,0.86-1.15,1.57c1.02,0.84,2.05,1.68,3.13,2.57
		c-0.35,0.69-0.88,1.34-1.54,1.89c-1.4-0.98-2.61-2.21-4-3.22c-0.75-0.55-1.37-1.28-2.12-1.83c-0.73-0.53-1.35-1.15-2.03-1.82
		c1.54-1.73,2.74-3.66,4.51-5.02c0.41-0.1,0.77-0.26,1.14-0.26c0.41,0,0.82,0.13,1.22,0.23c0.18,0.04,0.36,0.12,0.5,0.24
		c0.47,0.42,0.92,0.87,1.23,1.16c0.16,0.54,0.35,0.89,0.36,1.25c0.01,0.35-0.16,0.71-0.25,1.08c1.71,0.54,3.37,1.05,5.07,1.58
		C182.29,107.03,181.71,107.73,181.17,108.39z M175.94,104.49c-0.27-0.67-0.73-1.17-1.56-1.37c-0.38,0.31-0.82,0.62-1.19,0.99
		c-0.39,0.4-0.72,0.87-1.09,1.33c0.7,0.58,1.39,1.15,2.06,1.71c0.31-0.74,1.08-1.13,1.45-1.64
		C175.74,105.11,175.82,104.86,175.94,104.49z"/>
	<path class="st0" d="M135.6,26.92c-0.64,0-1.23,0-1.86,0c0,1.41,0,2.8,0,4.24c-0.82,0-1.59,0-2.4,0c0-3.55,0-7.09,0-10.73
		c1.81,0,3.64,0,5.46,0c0.5,0.36,1.22,0.12,1.68,0.58c0.44,0.44,0.84,0.9,1.21,1.3c0,0.84,0,1.55,0,2.31
		c-0.29,0.74-0.92,1.23-1.74,1.67c0.63,1.63,1.23,3.24,1.96,4.87c-0.42,0.12-0.88,0.04-1.34,0.05c-0.47,0.01-0.95,0-1.36,0
		C136.66,29.74,136.13,28.32,135.6,26.92z M133.75,22.35c0,0.93,0,1.75,0,2.6c0.87,0,1.69,0,2.52,0c0.69-0.2,0.94-0.72,1.06-1.33
		c-0.11-0.27-0.19-0.52-0.32-0.74c-0.14-0.24-0.32-0.45-0.39-0.53C135.54,22.35,134.67,22.35,133.75,22.35z"/>
	<path class="st0" d="M129.39,25.94c0.03,1.06-0.03,2.18-0.68,3.21c-0.65,1.03-1.34,1.89-2.7,2.1c-0.69,0.11-1.28,0.23-1.99,0.04
		c-0.63-0.18-1.21-0.32-1.72-0.78c-0.55-0.5-1.31-1.42-1.54-2.22c-0.12-0.43-0.3-0.85-0.27-1.34c0.02-0.36-0.26-0.76-0.19-1.09
		c0.14-0.7,0.19-1.42,0.35-2.12c0.2-0.86,0.65-1.6,1.15-2.27c0.34-0.46,0.93-0.8,1.48-1.01c0.56-0.21,1.2-0.24,1.8-0.27
		c0.77-0.04,2.14,0.48,2.72,0.95c0.37,0.3,1.13,1.64,1.36,2.4c0.08,0.25,0.21,0.49,0.23,0.74C129.42,24.8,129.39,25.32,129.39,25.94
		z M123.17,23.7c-0.08,0.67-0.24,1.39-0.24,2.11c0,0.72,0.16,1.44,0.24,2.1c0.43,1.05,1.18,1.51,2.3,1.35
		c0.35-0.26,0.72-0.53,1.02-0.75c0.67-3.32,0.61-2.22,0-5.4c-0.31-0.23-0.67-0.5-1.02-0.75C124.36,22.2,123.61,22.66,123.17,23.7z"
		/>
	<path class="st0" d="M59.55,121.05c0-0.31,0.03-0.71,0-1.11c-0.1-1.24,0.5-2.19,1.25-3.08c0.94-1.1,2.14-1.83,3.44-2.43
		c0.38-0.14,0.87,0.17,1.2-0.28c0.9-0.07,1.76,0.12,2.55,0.5c0.47,0.22,0.93,0.57,1.27,0.96c0.51,0.59,0.77,1.36,1.06,2.07
		c0.18,0.45,0.03,1.03,0.03,1.49c-0.17,0.38-0.33,0.71-0.48,1.05c-0.82,1.87-2.4,2.92-4.17,3.68c-0.91,0.39-1.98,0.47-2.98,0.29
		c-0.49-0.09-0.95-0.42-1.38-0.71C60.54,122.93,59.96,122.16,59.55,121.05z M66.83,116.6c-0.67-0.04-1.35-0.14-1.86,0.43
		c-1.06,0.2-1.69,1.01-2.42,1.69c-0.6,0.57-0.98,1.19-0.8,2.08c0.25,0.34,0.52,0.7,0.67,0.9c0.48,0.17,0.76,0.27,1.04,0.37
		c2.94-1.03,3.05-1.58,4.39-2.89c0.15-0.42,0.25-0.69,0.35-0.98C67.94,117.53,67.74,116.81,66.83,116.6z"/>
	<path class="st0" d="M174.8,112.81c0.38,0.73,1.44,0.68,1.41,1.68c-0.87,0.95-1.79,1.86-2.58,2.88c-0.69,0.88-1.31,1.8-2.18,2.62
		c-2.73-2.25-5.46-4.49-8.22-6.76c0.36-0.48,0.73-1,1.14-1.5c0.55-0.66,1.14-1.28,1.68-1.94c0.56-0.68,1.06-1.4,1.63-2.07
		c0.15-0.18,0.45-0.23,0.64-0.33c0.5,0.5,0.93,0.92,1.36,1.36c-1.03,1.23-2.06,2.47-3.14,3.77c0.46,0.55,0.93,1.1,1.68,1.4
		c0.83-1.01,1.69-2.05,2.55-3.09c0.51,0.47,1.02,0.94,1.59,1.46c-0.75,0.87-1.56,1.81-2.41,2.8c-0.08,0.98,1.03,0.92,1.4,1.56
		C172.75,115.59,173.47,114.06,174.8,112.81z"/>
	<path class="st0" d="M74.57,143.03c-0.29-0.41-0.51-0.75-0.75-1.08c-0.24-0.34-0.5-0.68-0.8-1.09c0.84-1.4,1.71-2.86,2.61-4.35
		c-0.9,0-1.81,0-2.72,0c-0.57,0.38-1.17,0.77-1.81,1.19c-0.74-0.42-0.97-1.24-1.52-1.91c2.96-1.98,5.91-3.96,8.93-5.99
		c0.38,0.56,0.82,1.2,1.26,1.85c-0.49,0.71-1.23,0.99-1.84,1.42c-0.61,0.44-1.24,0.86-2.02,1.41c2.08,0,3.94,0,5.82,0
		c0.45,0.64,0.87,1.26,1.33,1.92c-1.47,0-2.93,0-4.48,0C77.27,138.58,75.95,140.75,74.57,143.03z"/>
	<path class="st0" d="M85.74,22.41c-0.5,0.67-1.38,0.48-1.93,0.87c-0.44-0.43-0.86-0.83-1.21-1.18c-0.6,0-1.08,0-1.56,0
		c-0.2,0.2-0.39,0.4-0.6,0.6c0,0.31,0,0.63,0,0.95c0.45,0.58,1.16,0.7,1.8,0.82c0.71,0.13,1.35,0.43,2.02,0.65
		c0.79,0.26,1.3,0.93,1.66,1.67c0.24,1.94-0.11,3.61-2.24,4.38c-0.41,0.12-0.91-0.1-1.29,0.29c-1.62,0.05-3.16-0.18-4.28-1.51
		c-0.35-0.42-0.57-0.95-0.88-1.48c0.83-0.21,1.59-0.39,2.37-0.59c0.32,0.63,0.57,1.37,1.39,1.63c0.55,0,1.11,0,1.72,0
		c0.22-0.25,0.48-0.55,0.83-0.95c0-0.07,0-0.3,0-0.57c-0.44-0.73-1.24-0.97-2-1.07c-1.01-0.13-1.81-0.68-2.69-1.05
		c-0.25-0.1-0.39-0.46-0.57-0.7c-0.34-0.47-0.33-1.07-0.45-1.6c-0.08-0.35,0.13-0.8,0.28-1.18c0.53-1.31,1.02-1.62,2.49-1.98
		c1.65-0.41,2.05-0.23,3.81,0.47c0.33,0.13,0.53,0.33,0.72,0.55C85.37,21.69,85.53,22.05,85.74,22.41z"/>
	<path class="st0" d="M107.68,31.16c-0.41,0.12-0.91-0.1-1.29,0.29c-1.62,0.05-3.16-0.18-4.28-1.51c-0.35-0.42-0.57-0.95-0.88-1.48
		c0.83-0.21,1.59-0.39,2.37-0.59c0.32,0.62,0.57,1.37,1.39,1.63c0.55,0,1.11,0,1.72,0c0.22-0.25,0.48-0.55,0.83-0.95
		c0-0.06,0-0.3,0-0.56c-0.44-0.72-1.24-0.97-2-1.07c-1.01-0.13-1.81-0.68-2.69-1.05c-0.25-0.1-0.39-0.46-0.57-0.7
		c-0.35-0.47-0.33-1.07-0.45-1.6c-0.08-0.35,0.13-0.8,0.28-1.18c0.53-1.31,1.03-1.62,2.49-1.98c1.65-0.41,2.05-0.23,3.81,0.47
		c0.33,0.13,0.53,0.33,0.73,0.55c0.24,0.27,0.4,0.63,0.61,0.99c-0.49,0.67-1.38,0.48-1.93,0.87c-0.44-0.43-0.86-0.83-1.21-1.18
		c-0.6,0-1.08,0-1.57,0c-0.2,0.2-0.39,0.39-0.59,0.6c0,0.31,0,0.63,0,0.95c0.45,0.58,1.16,0.7,1.8,0.82
		c0.71,0.13,1.35,0.43,2.02,0.65c0.79,0.26,1.3,0.93,1.67,1.67C110.15,28.71,109.81,30.39,107.68,31.16z"/>
	<path class="st0" d="M116.05,29.55c0.29-0.28,0.54-0.54,0.83-0.83c0-0.19,0-0.42,0-0.76c-0.36-0.71-1.21-0.89-1.94-1.03
		c-0.95-0.18-1.75-0.62-2.59-1c-0.35-0.16-0.56-0.43-0.75-0.81c-0.25-0.49-0.3-1.01-0.41-1.5c-0.08-0.39,0.18-0.86,0.32-1.28
		c0.41-1.19,1.3-1.66,2.5-1.96c1.36-0.35,2.51-0.09,3.71,0.47c0.37,0.18,0.64,0.4,0.86,0.72c0.17,0.24,0.32,0.5,0.52,0.82
		c-0.49,0.74-1.47,0.43-2.05,1c-0.21-0.68-0.68-0.99-1.35-1.27c-0.32,0-0.8,0-1.36,0c-0.12,0.16-0.29,0.38-0.54,0.69
		c0,0.19,0,0.54,0,0.87c0.51,0.55,1.21,0.62,1.85,0.82c0.64,0.2,1.33,0.28,1.92,0.58c1.03,0.53,1.86,1.25,1.74,2.6
		c-0.04,0.4-0.01,0.8-0.01,1.2c-0.15,0.25-0.34,0.5-0.45,0.77c-0.44,1.02-1.31,1.42-2.33,1.56c-0.57,0.08-1.09,0.34-1.7,0.26
		c-1.27-0.16-2.45-0.46-3.35-1.47c-0.41-0.46-0.57-1.02-0.85-1.55c0.8-0.19,1.52-0.36,2.34-0.56c0.3,0.43,0.42,1.09,1.04,1.42
		C114.7,29.67,115.39,29.42,116.05,29.55z"/>
	<path class="st0" d="M149.31,26.83c0.14,2.37-0.12,3.25-2.25,4.34c-0.39,0.14-0.88-0.17-1.21,0.25c-1.67,0.16-4.03-0.3-4.94-2.34
		c-0.09-0.2-0.18-0.4-0.29-0.63c0.8-0.2,1.55-0.39,2.34-0.59c0.3,0.65,0.58,1.37,1.39,1.64c0.55,0,1.11,0,1.72,0
		c0.23-0.26,0.49-0.55,0.83-0.94c0-0.08,0-0.32,0-0.58c-0.45-0.72-1.25-0.97-2.01-1.07c-1.01-0.13-1.8-0.68-2.69-1.05
		c-0.24-0.1-0.39-0.46-0.57-0.71c-0.34-0.48-0.33-1.07-0.45-1.6c-0.08-0.36,0.13-0.8,0.29-1.18c0.54-1.32,1.02-1.59,2.49-1.99
		c1.46-0.39,2.32-0.18,3.81,0.47c0.36,0.16,0.58,0.39,0.81,0.64c0.22,0.24,0.33,0.57,0.52,0.91c-0.5,0.65-1.38,0.47-1.93,0.86
		c-0.44-0.43-0.86-0.84-1.22-1.18c-0.61,0-1.09,0-1.56,0c-0.2,0.2-0.4,0.4-0.6,0.6c0,0.32,0,0.64,0,0.95
		c0.46,0.57,1.17,0.7,1.81,0.81c0.71,0.13,1.35,0.42,2.02,0.65C148.41,25.37,148.91,26.04,149.31,26.83z"/>
	<path class="st0" d="M74.54,130.71c-0.53-0.64-1.04-1.27-1.61-1.97c0.72-0.62,1.23-1.37,0.98-2.46c-0.15-0.21-0.35-0.48-0.65-0.89
		c-0.73-0.45-1.61-0.23-2.43,0.19c-0.76,0.4-1.45,0.94-2.17,1.42c-0.72,0.48-0.88,1.3-1.2,2.07c0.47,0.37,0.31,1.14,1.09,1.43
		c0.68,0.26,1.24,0.22,1.85-0.05c0.81,0.37,0.65,1.47,1.6,1.88c-1.05,0.63-1.99,0.97-3.02,0.67c-0.55-0.16-1.17-0.18-1.66-0.64
		c-0.83-0.77-1.58-1.62-1.9-2.69c-0.19-0.64-0.08-1.38-0.01-2.07c0.05-0.47,0.21-0.95,0.42-1.37c0.2-0.4,0.54-0.74,0.83-1.09
		c0.53-0.64,3.03-2.19,3.81-2.36c1.99-0.44,4.24,0.59,5.32,2.44c-0.01,0.66,0.55,1.12,0.57,1.8c0.03,1.23-0.57,2.16-1.24,3.08
		C74.99,130.31,74.79,130.46,74.54,130.71z"/>
	<path class="st0" d="M96.31,24.17c-0.85,0.12-1.6,0.23-2.38,0.35c-0.11-0.36-0.19-0.68-0.3-0.99c-0.27-0.81-0.74-1.16-1.58-1.18
		c-0.24-0.01-0.48,0-0.68,0c-1.05,0.84-1.4,1.93-1.34,3.19c0.01,0.16-0.01,0.32,0,0.48c0.05,0.73,0.11,1.45,0.16,2.07
		c0.45,0.45,0.82,0.81,1.22,1.21c0.4,0,0.88,0,1.36,0c0.52-0.51,1.11-0.98,1.1-1.81c0.78-0.42,1.48,0.41,2.3,0.05
		c0.3,1.09-0.3,1.83-0.82,2.52c-0.53,0.71-1.29,1.19-2.26,1.17c-1.11,0.61-2.19,0.14-3.16-0.27c-1.15-0.49-1.94-1.46-2.31-2.69
		c-0.12-0.4-0.29-0.77-0.26-1.22c0.02-0.36-0.25-0.75-0.2-1.09c0.14-0.96,0.16-1.96,0.58-2.87c0.66-1.41,1.6-2.5,3.29-2.64
		c0.52-0.43,1.15-0.29,1.69-0.21c0.68,0.11,1.37,0.37,1.97,0.72c0.68,0.39,1.02,1.13,1.31,1.84C96.2,23.2,96.22,23.7,96.31,24.17z"
		/>
	<path class="st0" d="M164.7,128.17c-0.59,0.69-1.16,1.37-1.7,2c-0.44-0.16-0.81-0.28-1.18-0.43c-0.34-0.14-0.67-0.32-1.08-0.52
		c-0.67,0.77-1.35,1.56-2.09,2.42c0.06,0.87,0.92,1.44,1.17,2.36c-0.37,0.46-0.8,1-1.29,1.61c-2.05-3.21-4.06-6.33-6.09-9.51
		c0.58-0.69,1.19-1.42,1.86-2.22C157.77,125.31,161.21,126.73,164.7,128.17z M158.69,128.39c-1.04-0.45-2.04-0.88-3.05-1.31
		c0.45,1.13,1.07,2.06,1.82,3.05C157.97,129.56,158.54,129.21,158.69,128.39z"/>
	<path class="st0" d="M157.21,120.66c0.02-0.14-0.01-0.33,0.08-0.43c1-1.18,2.01-2.37,3.04-3.52c0.63-0.71,1.41-1.16,2.41-1.11
		c0.12,0.01,0.25-0.14,0.38-0.21c2.16,0.98,1.88,0.87,2.98,2.5c0,0.64,0,1.28,0,2.02c-0.67,0.9-1.4,1.88-2.2,2.95
		c0.82,0.94,1.95,1.62,2.94,2.46c-0.21,0.91-0.99,1.37-1.58,2.05C162.61,125.15,159.96,122.94,157.21,120.66z M162.29,121.67
		c0.81-0.7,1.33-1.47,1.73-2.4c-0.19-0.32-0.36-0.65-0.58-0.95c-0.28-0.38-0.69-0.47-1.16-0.46c-0.39,0.01-0.68,0.16-0.91,0.44
		c-0.42,0.5-0.82,1.01-1.26,1.55C160.8,120.43,161.51,121.02,162.29,121.67z"/>
	<path class="st0" d="M154.11,134.41c-0.74,0.95-1.45,1.86-2.23,2.86c0.55,0.46,1.2,0.84,1.63,1.4c0.41,0.53,1.4,0.52,1.33,1.45
		c-0.47,0.52-0.93,1.03-1.48,1.63c-2.69-2.2-5.47-4.46-8.21-6.85c0.42-0.56,0.78-1.09,1.19-1.58c0.66-0.77,1.36-1.51,2.02-2.28
		c0.39-0.45,0.95-0.62,1.41-0.94c0.41-0.29,0.97,0.15,1.31-0.32c0.94,0.42,2.02,0.62,2.56,1.67c0.28,0.55,0.57,1.07,0.48,1.72
		C154.07,133.55,154.11,133.96,154.11,134.41z M150.38,132.12c-1.2,0.29-1.53,1.39-2.29,2.1c0.73,0.61,1.44,1.2,2.17,1.8
		c0.86-0.6,1.41-1.4,1.7-2.34C151.45,132.61,151.45,132.61,150.38,132.12z"/>
	<path class="st0" d="M155.99,146.28c0.25-0.33,0.43-0.57,0.69-0.92c0.42-0.14,0.89-0.47,1.61-0.34c0.74,0.13,1.23,0.53,1.8,0.89
		c0.76,0.47,1.25,1.16,1.7,2.04c0.1,1.06-0.19,2.05-1.39,2.69c-0.27,0-0.62,0-0.98,0c0.24,0.6,0.24,0.6-0.22,1.46
		c-2.01-1.68-4.01-3.36-6.07-5.07c0.2-0.47,0.72-0.75,1.11-1.26c0.58,0.49,1.14,0.97,1.75,1.48
		C155.99,146.87,155.99,146.52,155.99,146.28z M156.7,147.32c0.9,1.1,1.55,2.48,3.44,2.31c0.09-0.33,0.19-0.69,0.28-1.03
		c-0.84-0.69-1.4-1.58-2.29-2.03c-0.39,0-0.74,0-1.05,0C156.96,146.8,156.86,147,156.7,147.32z"/>
	<path class="st0" d="M115.51,36.26c0.54,0,1.05,0,1.55,0c0.06,0.15,0.12,0.29,0.2,0.49c0.51-0.65,1.17-0.85,1.96-0.73
		c1.13,0.58,1.58,1.54,1.54,2.8c-0.03,0.73,0,1.45-0.22,2.18c-0.27,0.9-0.91,1.27-1.69,1.46c-0.65,0.16-1.16-0.23-1.69-0.84
		c0,0.94,0,1.72,0,2.51c-0.59,0-1.1,0-1.65,0C115.51,41.51,115.51,38.9,115.51,36.26z M118.61,37.24c-0.41,0-0.67,0-0.93,0
		c-0.11,0.15-0.2,0.27-0.28,0.4c-0.07,0.13-0.13,0.26-0.22,0.45c0,0.84,0,1.74,0,2.44c0.26,0.35,0.42,0.57,0.53,0.72
		c0.33,0,0.57,0,0.87,0C119.27,39.93,119.27,38.61,118.61,37.24z"/>
	<path class="st0" d="M34.81,102.69c-0.92,0.36-1.07,0.27-1.17-0.69c2.05-1.37,4.12-2.75,6.21-4.14c0.6,0.17,0.68,0.8,1.07,1.28
		c-0.63,0.42-1.18,0.79-1.86,1.24c0.43,0.25,0.78,0.46,1.23,0.72c0,0-0.01,0.13,0.05,0.21c0.23,0.35,0.6,0.7,0.45,1.11
		c-0.21,0.58-0.35,1.19-0.81,1.7c-0.81,0.88-1.86,1.3-2.93,1.61c-0.7,0.2-1.44-0.13-1.93-0.75c-0.4-0.5-0.87-1.01-0.33-1.72
		C34.89,103.14,34.81,102.89,34.81,102.69z M37.9,101.22c-0.49,0.34-0.89,0.72-1.36,0.94c-0.55,0.25-0.72,0.74-0.99,1.18
		c0.11,0.49,0.45,0.77,0.89,0.95c1.16-0.58,2.46-0.99,3-2.45c-0.23-0.18-0.48-0.37-0.79-0.62C38.46,101.22,38.14,101.22,37.9,101.22
		z"/>
	<path class="st0" d="M128.47,36.26c0.54,0,1.05,0,1.55,0c0.06,0.15,0.12,0.29,0.19,0.49c0.51-0.65,1.17-0.86,1.96-0.73
		c1.13,0.58,1.58,1.55,1.54,2.8c-0.03,0.73,0,1.45-0.22,2.18c-0.27,0.9-0.91,1.27-1.69,1.46c-0.65,0.16-1.16-0.23-1.69-0.84
		c0,0.94,0,1.72,0,2.51c-0.59,0-1.1,0-1.65,0C128.47,41.54,128.47,38.95,128.47,36.26z M131.54,41.26c0.68-1.43,0.7-2.75-0.01-4.03
		c-0.36,0-0.62,0-0.91,0c-0.18,0.31-0.35,0.59-0.49,0.84c0,0.91,0,1.77,0,2.51c0.24,0.3,0.41,0.51,0.55,0.67
		C130.99,41.26,131.22,41.26,131.54,41.26z"/>
	<path class="st0" d="M88,36.97c0.55,1.28,0.27,2.46,0.36,3.6c-0.44,0.74-0.65,1.58-1.69,1.83c-1.04,0.25-1.67-0.21-2.31-0.92
		c-0.16,0.27-0.3,0.49-0.46,0.74c-0.22,0-0.49,0-0.8,0c0-2.6,0-5.18,0-7.84c0.49-0.14,1.03,0.01,1.64-0.09c0,0.85,0,1.63,0,2.46
		C86.18,35.59,86.98,35.82,88,36.97z M86.13,41.25c0.93-1.1,0.36-2.33,0.53-3.2c-0.27-0.39-0.45-0.65-0.56-0.81
		c-0.36,0-0.59,0-0.84,0c-0.18,0.31-0.35,0.59-0.54,0.93c0.2,0.99-0.34,2.15,0.6,3.08C85.56,41.25,85.83,41.25,86.13,41.25z"/>
	<path class="st0" d="M97.99,20.44c0.79,0,1.54,0,2.32,0c0,3.56,0,7.1,0,10.73c-0.34,0.01-0.72,0.03-1.1,0.04
		c-0.39,0.01-0.79,0-1.22,0C97.99,27.63,97.99,24.09,97.99,20.44z"/>
	<path class="st0" d="M190.16,108.81c0.55,0.12,0.99,0.19,1.43,0.32c0.46,0.13,0.9,0.4,1.36,0.45c0.4,0.04,0.79,0.23,1.31,0.08
		c-0.34,0.63-0.64,1.18-1.15,1.61c-0.34-0.52-0.93-0.03-1.38-0.36c-0.33-0.25-0.77-0.55-1.29-0.27c-0.15,1.26,0.02,1.61,1.09,2.17
		c0.18,0.75-0.56,0.92-0.86,1.44c-2.05-1.69-4.05-3.32-6.05-4.97c0.34-0.46,0.67-0.91,0.98-1.33c1.17,0.97,2.31,1.91,3.58,2.97
		c-0.21-1.31-0.4-2.42-0.56-3.43c0.34-0.48,0.6-0.86,0.93-1.33C189.76,107.11,189.96,107.96,190.16,108.81z"/>
	<path class="st0" d="M46.42,110.44c0.35,0.44,0.78,0.94,1.16,1.48c0.3,0.44,0.57,0.97,0.42,1.48c-0.14,0.52-0.45,0.94-1.01,1.27
		c-1.14,0.67-2.16,1.55-3.32,2.41c-0.3-0.38-0.62-0.78-0.99-1.26c0.18-0.2,0.36-0.4,0.56-0.62c-0.43-0.12-0.85-0.25-1.44-0.42
		c-0.17-0.23-0.45-0.6-0.67-0.91c-0.29-1.37,0.28-2.18,1.56-2.55c0.01,0.01,0.06,0.06,0.12,0.12c0.39-0.27,0.7,0.21,1.23,0.07
		c0.58,0.58,1.23,1.23,1.94,1.93c0.18-0.25,0.39-0.54,0.62-0.86c-0.25-0.36-0.52-0.73-0.8-1.13c-0.28,0.08-0.53,0.15-0.85,0.25
		c-0.21-0.37-0.46-0.83-0.74-1.33c0.35-0.1,0.7-0.27,1.06-0.27C45.57,110.1,45.89,110.28,46.42,110.44z M42.77,114.29
		c0.38,0.19,0.77,0.51,1.17,0.32c0.37-0.17,0.94-0.18,0.99-0.82c-0.39-0.28-0.79-0.56-1.24-0.88c-0.28,0.08-0.6,0.16-0.91,0.25
		C42.77,113.62,42.77,113.96,42.77,114.29z"/>
	<path class="st0" d="M99.38,38.27c0-0.13,0-0.29,0-0.49c-0.18-0.16-0.39-0.35-0.63-0.57c-0.17,0-0.41,0-0.72,0
		c-0.22,0.28-0.48,0.6-0.77,0.97c-0.37-0.11-0.8-0.23-1.22-0.36c0.16-1.11,0.46-1.42,1.44-1.59c0.41-0.07,0.81-0.17,1.22-0.23
		c0.16-0.03,0.33-0.04,0.48,0c0.32,0.08,0.64,0.2,0.98,0.27c0.71,0.44,0.97,1.09,0.93,1.94c-0.05,1.31-0.01,2.62-0.01,3.98
		c-0.57,0-1.1,0-1.65,0c-0.02-0.22-0.04-0.41-0.07-0.65c-0.44,0.32-0.85,0.62-1.25,0.92c-0.48,0.04-0.92-0.12-1.36-0.17
		c-0.64-0.08-0.65-0.58-0.96-0.91c0-0.44-0.06-0.93,0.01-1.4c0.11-0.67,0.97-1.27,1.8-1.34c0.32-0.02,0.65,0.04,0.95-0.02
		C98.84,38.56,99.1,38.4,99.38,38.27z M98.56,41.27c0.26-0.27,0.53-0.56,0.8-0.84c0-0.33,0-0.67,0-1.06
		c-0.87-0.1-1.47,0.26-1.93,0.95C97.6,40.9,97.85,41.34,98.56,41.27z"/>
	<path class="st0" d="M121.96,37.83c-0.06-0.81,0.38-1.4,1.07-1.53c0.82-0.16,1.68-0.63,2.55-0.07c0.14,0.09,0.39,0.01,0.56,0.01
		c0.63,0.52,0.91,1.13,0.87,1.94c-0.06,1.31-0.02,2.63-0.02,4c-0.55,0-1.08,0-1.63,0c-0.04-0.23-0.08-0.45-0.11-0.65
		c-0.42,0.32-0.81,0.62-1.3,0.99c-0.53-0.1-1.12-0.2-1.68-0.3c-0.74-0.87-0.73-1.79-0.31-2.71c0.28-0.62,0.96-0.8,1.53-0.83
		c0.63-0.04,1.19-0.22,1.8-0.37c0-0.15,0-0.31,0-0.54c-0.16-0.13-0.38-0.3-0.69-0.54c-0.09,0-0.32,0-0.66,0
		c-0.21,0.26-0.47,0.58-0.77,0.96C122.83,38.08,122.4,37.96,121.96,37.83z M123.37,40.23c0.23,0.81,0.35,0.92,1.11,1.05
		c0.25-0.28,0.52-0.56,0.81-0.88c0-0.29,0-0.63,0-1C124.44,39.22,123.89,39.65,123.37,40.23z"/>
	<path class="st0" d="M165.72,135.04c0.82-0.14,1.39,0.23,2.01,0.71c0.73,0.56,1.32,1.29,2.15,1.74c0.3,0.16,0.52,0.49,0.77,0.74
		c-0.28,0.35-0.56,0.7-0.9,1.13c-0.15-0.04-0.4-0.11-0.69-0.19c0,0.43,0,0.93,0,1.35c-0.53,0.71-1.08,1.23-1.89,1.4
		c-0.19-0.32-0.71-0.05-0.97-0.43c-0.19-0.29-0.5-0.52-0.78-0.8c0-0.44,0-0.91,0-1.48c0.37-0.62,0.78-1.32,1.26-2.13
		c-0.18-0.08-0.36-0.17-0.54-0.25c0.03-0.04,0.07-0.07,0.1-0.11c-0.24,0-0.48,0-0.74,0c-0.18,0.19-0.37,0.39-0.63,0.66
		c0.07,0.3,0.15,0.66,0.21,0.96c-0.29,0.3-0.6,0.6-1.03,1.04c-0.36,0.03-0.4-0.57-0.54-0.88c-0.13-0.28-0.08-0.71,0.1-1.12
		C164.06,136.31,164.82,135.61,165.72,135.04z M168.27,138.49c-0.28-0.28-0.56-0.56-0.87-0.87c-0.19,0.29-0.37,0.58-0.54,0.85
		c0,0.44,0,0.86,0,1.26c0.71,0.45,0.78,0.44,1.41-0.05C168.27,139.29,168.27,138.89,168.27,138.49z"/>
	<path class="st0" d="M71.32,147.94c0.87,0.46,1.51,0.99,1.91,1.98c0,0.09-0.04,0.37,0.01,0.64c0.18,1.11-0.35,1.89-1.17,2.51
		c-0.56,0.42-1.16,0.8-1.9,0.9c-1.22,0.16-2.61-0.62-3.09-1.98c-0.27-0.77-0.04-1.52,0.37-2.18c0.53-0.84,1.33-1.42,2.25-1.74
		C70.22,147.88,70.85,147.97,71.32,147.94z M71.38,149.36c-1.3,0.29-2.2,0.97-2.94,1.86c0,0.33,0,0.64,0,0.95
		c0.12,0.12,0.23,0.23,0.35,0.35c1.52-0.05,3.24-1.36,3.24-2.49C71.83,149.82,71.61,149.6,71.38,149.36z"/>
	<path class="st0" d="M41.67,105.04c0.15-0.12,0.2-0.17,0.21-0.18c1.56,0.62,2.52,1.64,2.28,3.51c-0.35,0.52-0.76,1.11-1.22,1.79
		c-0.29-0.11-0.62-0.12-0.74-0.29c-0.61-0.85-1.16-1.75-1.76-2.66c-0.92-0.1-1,0.72-1.37,1.28c0.18,0.37,0.35,0.7,0.5,0.99
		c0.48,0.2,0.87,0.17,1.24-0.12c0.71,0.17,0.32,0.96,0.82,1.26c-0.67,0.32-0.69,0.28-1.67,0.2c-0.68-0.06-1.15-0.39-1.54-0.88
		c-0.41-0.51-0.45-1.17-0.71-1.77c0.33-0.66,0.21-1.57,0.98-2.07c0.54-0.35,1.05-0.74,1.61-1.03c0.32-0.17,0.72-0.19,1.09-0.24
		C41.49,104.81,41.59,104.97,41.67,105.04z M41.03,106.57c0.48,0.66,0.92,1.24,1.43,1.94c0.24-0.52,0.43-0.92,0.65-1.39
		c-0.45-0.32-0.83-0.6-1.11-0.8C41.63,106.42,41.38,106.48,41.03,106.57z"/>
	<path class="st0" d="M134.67,38.11c0.42-0.78,0.7-1.64,1.62-1.86c0.54-0.13,1.09-0.48,1.67-0.2c0.57,0.28,1.31,0.32,1.64,0.93
		c0.38,0.69,0.71,1.43,0.55,2.35c-1.24,0-2.5,0-3.75,0c-0.18,0.87,0.2,1.41,0.79,1.91c0.19,0,0.43,0,0.7,0
		c0.37-0.24,0.71-0.55,0.64-1.09c0.63-0.31,1.1,0.23,1.63,0.19c-0.47,1.35-1.34,2.19-2.76,2.1c-1.28-0.08-2.31-0.67-2.72-2.36
		C134.67,39.64,134.67,38.84,134.67,38.11z M136.3,38.36c0.79,0,1.48,0,2.19,0c0-0.23,0-0.42,0-0.33c-0.27-0.41-0.43-0.65-0.59-0.91
		c-0.46,0.13-0.85,0.24-1.22,0.34C136.55,37.76,136.44,38.03,136.3,38.36z"/>
	<path class="st0" d="M94.78,40.36c-0.28,1.08-0.97,1.72-1.98,2.06c-0.6,0.13-1.19,0.02-1.79-0.18c-0.94-0.32-1.68-1.3-1.7-2.31
		c-0.01-0.64,0-1.27,0-1.74c0.36-0.9,0.71-1.67,1.54-1.9c0.56-0.16,1.12-0.45,1.78-0.23c1.67,0.55,2.24,1.35,2.16,3.26
		c-1.23,0-2.45,0-3.73,0c-0.24,0.86,0.19,1.42,0.76,1.95c0.22,0,0.46,0,0.82,0c0.19-0.31,0.43-0.69,0.75-1.2
		C93.77,40.14,94.31,40.26,94.78,40.36z M91.33,37.45c-0.16,0.36-0.27,0.59-0.41,0.89c0.78,0,1.48,0,2.17,0
		c0.26-0.62-0.27-0.82-0.61-1.21C92.11,37.24,91.71,37.35,91.33,37.45z"/>
	<path class="st0" d="M159.5,142.73c0.28-0.86,0.56-1.94,1.74-2.39c0.35-0.13,0.83,0.16,1.13-0.23c0.39,0.15,0.78,0.27,1.15,0.44
		c0.33,0.16,0.64,0.38,1.03,0.62c-0.86,1-1.67,1.93-2.51,2.91c0.34,0.24,0.7,0.51,1.07,0.77c0.25,0,0.48,0,0.73,0
		c0.19-0.19,0.38-0.39,0.64-0.66c-0.06-0.39-0.13-0.83-0.19-1.23c0.29-0.29,0.61-0.61,0.92-0.92c0.88,1.37,0.92,1.48-0.31,3.64
		c-1.15,0.77-2.27,0.82-3.44,0.16C160.31,145.2,159.57,144.31,159.5,142.73z M160.75,142.17c0.13,0.39,0.27,0.83,0.46,1.42
		c0.35-0.36,0.61-0.57,0.82-0.84c0.2-0.26,0.34-0.56,0.5-0.82c-0.24-0.56-0.69-0.45-1.1-0.42
		C161.22,141.71,161.03,141.9,160.75,142.17z"/>
	<path class="st0" d="M180.45,117.28c2.3-0.03,2.32-0.02,4.19,1.85c0.06,0.58,0.13,1.26,0.19,1.94c0.08,0.78-1.25,2.14-2.17,2.22
		c-1.55,0.13-3.46-0.97-4.07-3.01c-0.2-0.68,0.49-2.05,1.22-2.52C180.01,117.63,180.18,117.48,180.45,117.28z M183.69,121.19
		c-0.32-1.35-1.28-1.94-2.45-2.47c-0.18,0-0.5,0-0.82,0c-0.03,0-0.06,0.04-0.09,0.06c-0.42,0.68-0.37,1.42,0.27,1.77
		c0.36,0.2,0.62,0.45,0.9,0.71c0.44,0.43,0.93,0.66,1.52,0.56C183.24,121.61,183.44,121.42,183.69,121.19z"/>
	<path class="st0" d="M58.01,130.02c-0.28-0.32-0.54-0.61-0.85-0.97c0-0.28,0-0.68,0-1.01c-0.27-0.23-0.51-0.43-0.84-0.72
		c-0.15,0.09-0.4,0.23-0.74,0.42c0.22,0.43,0.39,0.8,0.6,1.15c0.3,0.49,0.55,1,0.49,1.58c-0.06,0.52-0.18,1-0.81,1.22
		c-0.37,0.13-0.68,0.51-1.12,0.45c-0.37-0.05-0.72-0.19-1.13-0.3c-0.3-0.3-0.63-0.64-0.98-0.97c-0.49-0.47-0.59-1.13-0.73-1.72
		c-0.13-0.55,0.24-0.98,0.74-1.47c0.11,0.26,0.14,0.44,0.25,0.55c0.09,0.1,0.27,0.12,0.41,0.17c0,0.48,0,0.95,0,1.45
		c0.29,0.26,0.59,0.52,0.99,0.88c0.14-0.05,0.41-0.14,0.68-0.23c0-0.33,0-0.56,0-0.87c-0.21-0.17-0.49-0.4-0.54-0.44
		c-0.4-1.07-0.62-1.87,0.03-2.61c0.4-0.46,1.01-0.65,2.11-0.64c1.21,0.8,1.39,0.94,2,2.68C58.38,129.08,58.2,129.53,58.01,130.02z"
		/>
	<path class="st0" d="M66.36,142.23c-0.34-0.34-0.61-0.61-0.94-0.94c0.04-0.16,0.11-0.47,0.17-0.71c-0.36-0.36-0.66-0.66-0.99-0.99
		c-0.57,0.09-0.49,0.56-0.49,0.96c0.33,0.53,0.64,1.04,0.95,1.55c0.03,0.58,0.08,1.22-0.42,1.6c-0.67,0.52-1.45,0.84-1.93,0.74
		c-1.53-0.61-2.09-1.58-2.43-2.69c-0.17-0.55,0.01-1.01,0.43-1.69c0.27,0.33,0.53,0.66,0.8,1c0.08-0.05,0.16-0.1,0.24-0.16
		c-0.07,0.25-0.13,0.49-0.21,0.77c0.16,0.64,0.5,1.25,1.24,1.46c0.17-0.08,0.34-0.16,0.57-0.27c0.3-0.93-0.73-1.38-0.86-2.18
		c-0.11-0.65-0.12-1.29,0.43-1.99c0.42-0.13,0.99-0.31,1.57-0.5c0.71,0.27,1.46,0.58,1.86,1.36c0.17,0.33,0.41,0.61,0.41,1.03
		C66.75,141.3,66.76,141.44,66.36,142.23z"/>
	<path class="st0" d="M174.4,133.57c-0.3,0-0.62,0-0.93,0c-0.14-0.13-0.28-0.26-0.43-0.4c0.17-0.32,0.32-0.62,0.51-0.98
		c0.25-0.02,0.52-0.05,0.85-0.08c0.21-0.25,0.47-0.55,0.82-0.95c0-0.17,0-0.51,0-0.89c-0.13-0.02-0.25-0.06-0.35-0.04
		c-0.42,0.08-0.85,0.24-1.05,0.61c-0.27,0.48-0.76,0.69-1.1,1.06c-0.4,0-0.8,0-1.19,0c-1.23-0.77-1.32-0.93-1.32-2.41
		c0.43-0.88,0.82-1.76,1.83-2.1c0.48,0,0.99,0,1.6,0c-0.19,0.4-0.35,0.72-0.53,1.11c-0.27,0.02-0.53,0.04-0.92,0.07
		c-0.22,0.29-0.49,0.65-0.75,0.99c0.1,0.21,0.19,0.4,0.3,0.63c0.25,0,0.51,0,0.64,0c0.62-0.6,1.16-1.12,1.67-1.6
		c1.37-0.25,2.08,0.49,2.67,1.6C176.73,131.77,175.67,132.73,174.4,133.57z"/>
	<path class="st0" d="M61.87,133.77c-0.13,0.57-0.37,1.18-0.79,1.76c-0.48-0.13-0.69-0.6-1.05-0.86c0.1-0.58,0.2-1.14,0.3-1.65
		c-0.73-0.55-1.24-0.51-2.04,0.02c-0.57,0.38-1.16,0.73-1.38,1.46c0.1,0.22,0.2,0.46,0.32,0.74c0.48,0,0.99,0,1.58,0
		c0.17,0.41,0.34,0.82,0.53,1.3c-0.21,0.12-0.43,0.24-0.68,0.39c-0.88,0.17-1.72-0.13-2.37-0.75c-0.72-0.7-1-1.62-0.75-2.82
		c0.77-1.8,2.3-2.57,4.23-2.41C61.1,131.51,61.7,132.47,61.87,133.77z"/>
	<path class="st0" d="M63.63,147.08c-0.01-0.7-0.01-0.7-0.23-1.16c0.4-0.25,0.08-0.98,0.85-1.08c0.11,0.21,0.26,0.49,0.41,0.78
		c0.05-0.05,0.11-0.11,0.16-0.16c0,0.48,0,0.96,0,1.41c0.29,0.3,0.57,0.59,0.83,0.86c0.26,0,0.5,0,0.79,0c0-0.35,0-0.69,0-1.11
		c-0.53-0.65-1.06-1.39-0.87-2.4c0.34-0.34,0.68-0.68,0.96-0.95c0.39-0.13,0.71-0.31,1.03-0.31c0.32,0,0.64,0.17,1.06,0.3
		c0.49,0.48,0.95,1.09,1.28,1.87c0.35,0.81-0.09,1.26-0.31,1.86c-0.29-0.31-0.54-0.59-0.91-0.98c0-0.19,0-0.58,0-1.05
		c-0.2-0.14-0.42-0.3-0.65-0.46c-0.33-0.22-0.6-0.05-0.81,0.28c-0.09,0.83,0.72,1.21,0.96,2.09c0,0.27,0,0.74,0,1.19
		c-0.64,0.87-1.45,1.32-2.29,1.14C64.69,148.76,64.25,147.86,63.63,147.08z"/>
	<path class="st0" d="M111.29,37.57c-0.49,0.1-0.84,0.17-1.29,0.26c-0.12-0.14-0.32-0.38-0.49-0.59c-0.43,0-0.78,0-1.23,0
		c-0.09,0.21-0.21,0.48-0.32,0.74c0.19,0.16,0.3,0.27,0.47,0.42c0.86-0.07,1.77,0.02,2.71,0.62c0.42,0.54,0.22,1.34,0.25,2.13
		c-0.36,0.33-0.74,0.68-1.16,1.07c-1.42,0.51-2.76,0.31-3.87-0.8c0-0.23,0-0.38,0-0.53c0.33-0.11,0.64-0.22,0.89-0.3
		c0.26,0.26,0.5,0.51,0.76,0.76c0.71-0.1,1.31-0.19,1.91-0.28c0-0.37,0-0.64,0-0.91c-0.77-0.55-1.66-0.25-2.5-0.34
		c-1.17-1.17-1.17-1.17-0.81-2.75c0.26-0.21,0.57-0.45,0.88-0.7c0.87-0.48,1.83-0.49,2.98-0.01
		C110.65,36.63,110.94,37.06,111.29,37.57z"/>
	<path class="st0" d="M50.53,124.59c-1.64,0.48-2.34-0.59-3.26-1.48c-0.08-0.71-0.18-1.51-0.27-2.3c0.21-0.18,0.38-0.33,0.57-0.49
		c0.23,0.34,0.42,0.61,0.68,1c0,0.29,0,0.72,0,1.17c0.43,0.35,0.85,0.68,1.33,1.06c0.18-0.24,0.33-0.45,0.54-0.73
		c-0.2-0.4-0.41-0.96-0.75-1.41c-0.4-0.52-0.4-1.06-0.37-1.62c0.36-0.36,0.69-0.69,0.99-0.99c0.3-0.09,0.55-0.16,0.86-0.26
		c0.05,0.03,0.17,0.17,0.3,0.16c1.27-0.02,1.71,0.9,2.18,1.84c0.37,0.75,0.28,1.38-0.34,1.97c-0.27-0.16-0.55-0.32-0.84-0.48
		c0-0.5,0-0.97,0-1.51c-0.21-0.18-0.45-0.38-0.78-0.65c-0.18,0.08-0.45,0.21-0.68,0.31c-0.07,0.91,0.68,1.32,0.94,2.2
		c0,0.26,0,0.73,0,1.3C51.23,124.01,50.79,124.37,50.53,124.59z"/>
	<path class="st0" d="M185.55,118.22c-1.93-0.85-2.92-2.15-2.57-4.4c0.41-0.44,0.93-1.01,1.42-1.53c0.46-0.16,0.94,0.16,1.25-0.25
		c0.38,0.16,0.75,0.31,1.2,0.5c-0.23,0.44-0.42,0.8-0.59,1.13c-0.47,0-0.86,0-1.21,0c-0.27,0.23-0.5,0.44-0.71,0.62
		c0.12,0.35,0.22,0.62,0.39,1.08c0.5,0.53,1.17,1.14,2.07,1.29c0.26-0.26,0.55-0.55,0.9-0.89c-0.11-0.2-0.28-0.53-0.45-0.86
		c0.1-0.62,0.74-0.78,1.05-1.22c0.94,1.13,1.12,1.9,0.36,3.35C188.01,118.25,186.74,118.33,185.55,118.22z"/>
	<path class="st0" d="M73.17,158.16c0.4,0.5,0.69,0.85,0.9,1.11c-0.06,0.38-0.11,0.71-0.15,0.95c0.23,0.31,0.41,0.55,0.66,0.87
		c0.15,0.05,0.43,0.13,0.74,0.23c0.14-0.14,0.34-0.34,0.5-0.5c-0.22-0.74-0.73-1.29-1.02-2c-0.24-0.58-0.06-1.01,0.14-1.39
		c0.24-0.46,0.72-0.81,1.3-0.85c0.4-0.03,0.8-0.01,1.06-0.01c1.11,0.56,1.69,1.41,1.91,2.48c0.11,0.52-0.17,0.96-0.56,1.33
		c-0.28-0.16-0.56-0.33-0.91-0.53c0.08-0.29,0.15-0.57,0.26-0.97c-0.1-0.48-0.45-0.88-1.08-1.04c-0.14,0.07-0.34,0.16-0.62,0.3
		c0.09,0.29,0.1,0.69,0.3,0.9c0.71,0.71,0.81,1.55,0.66,2.47c-0.6,0.77-1.35,1.26-2.54,1c-0.34-0.23-0.87-0.47-1.23-0.86
		c-0.34-0.37-0.58-0.88-0.72-1.37c-0.12-0.41-0.07-0.88-0.01-1.31C72.81,158.73,73.01,158.49,73.17,158.16z"/>
	<path class="st0" d="M170.07,131.57c-0.21,0.39-0.41,0.74-0.64,1.18c0.69,0.59,1.39,1.19,2.1,1.79c0.23,0,0.47,0,0.71,0
		c0.23-0.23,0.45-0.45,0.65-0.65c0.27,0.27,0.53,0.54,0.85,0.86c-0.17,0.23-0.45,0.53-0.65,0.88c-0.5,0.88-1.4,1.21-2.46,0.39
		c-0.8-0.61-1.53-1.31-2.38-2.04c-0.2,0.26-0.39,0.52-0.56,0.75c-0.33-0.27-0.68-0.56-1.1-0.9c0.14-0.18,0.32-0.42,0.53-0.71
		c-0.2-0.46-0.7-0.7-1-1.16c0-0.52,0.25-0.94,0.66-1.31c0.52,0.37,0.98,0.71,1.5,1.09c0.29-0.27,0.57-0.53,0.84-0.78
		C169.4,131.14,169.69,131.32,170.07,131.57z"/>
	<path class="st0" d="M50.38,116.51c0.15,0.43,0.79,0.6,0.42,1.26c-0.2,0.12-0.53,0.31-0.91,0.54c-0.12-0.22-0.21-0.42-0.33-0.58
		c-0.12-0.16-0.28-0.29-0.39-0.4c-0.52,0.31-1.07,0.57-1.52,0.95c-0.4,0.34-1,0.55-1.07,1.24c0.16,0.18,0.34,0.38,0.58,0.65
		c-0.34,0.29-0.48,0.74-1.07,0.7c-0.67-0.27-0.79-1.02-1.18-1.6c0-0.27,0-0.59,0-1.01c1.1-0.8,2.25-1.63,3.41-2.48
		c-0.23-0.25-0.41-0.44-0.65-0.7c0.27-0.15,0.47-0.23,0.63-0.35c0.15-0.11,0.27-0.26,0.46-0.43c0.33,0.33,0.6,0.6,0.88,0.87
		c0.45-0.29,0.86-0.55,1.19-0.76c0.35,0.35,0.66,0.65,1.03,1.02C51.62,115.93,50.92,116.05,50.38,116.51z"/>
	<path class="st0" d="M102.75,41.39c0-1.2,0-2.39,0-3.66c-0.29-0.03-0.59-0.06-0.92-0.09c0-0.44,0-0.86,0-1.34
		c0.32-0.2,0.89,0.17,1.16-0.56c0-0.24,0-0.67,0-1.09c0.47-0.13,0.9-0.25,1.42-0.39c0,0.69,0,1.31,0,1.97c0.43,0,0.78,0,1.17,0
		c0,0.5,0,0.95,0,1.45c-0.37,0-0.72,0-1.11,0c0,1.03,0,2.01,0,3.05c0.07,0.07,0.18,0.18,0.35,0.33c0.3,0,0.65,0,1.02,0
		c0,0.39,0,0.74,0,1.09c-0.37,0.17-0.73,0.33-1.17,0.36c-0.42,0.02-0.71-0.29-1.1-0.26C102.96,42.28,103.09,41.61,102.75,41.39z"/>
	<path class="st0" d="M141.43,36.26c0.54,0,1.05,0,1.56,0c0.06,0.14,0.11,0.28,0.17,0.43c0.42-0.21,0.6-0.87,1.29-0.67
		c0,0.5,0,1.04,0,1.58c-0.91,0.2-1.36,0.73-1.38,1.64c-0.01,0.95,0,1.91,0,2.92c-0.53,0-1.07,0-1.64,0
		C141.43,40.22,141.43,38.26,141.43,36.26z"/>
	<path class="st0" d="M70.87,157.29c-0.24-0.34-0.53-0.74-0.86-1.2c1.39-1.32,3.07-2.15,4.52-3.29c0.1-0.08,0.3-0.04,0.57-0.06
		c-0.15,0.58,1.08,0.79,0.26,1.63c0.3,0.04,0.54,0.07,0.93,0.12c0.11,0.14,0.3,0.37,0.5,0.62c-0.33,0.23-0.7,0.49-1.14,0.79
		c-0.11-0.07-0.26-0.17-0.42-0.26c-0.61-0.34-1.24-0.36-1.83,0.01C72.55,156.16,71.75,156.71,70.87,157.29z"/>
	<path class="st0" d="M178.41,121.78c-0.45,0.52-0.25,1.08-0.3,1.67c0.95,0.83,1.92,1.69,2.9,2.56c-0.38,0.37-0.74,0.73-1.14,1.12
		c-1.47-1.23-2.95-2.47-4.45-3.72c0.17-0.53,0.62-0.75,0.93-1.16c0.17,0.1,0.32,0.18,0.61,0.34c-0.12-0.37-0.28-0.63-0.26-0.89
		c0.02-0.28,0.19-0.55,0.33-0.91C177.48,121.12,177.91,121.42,178.41,121.78z"/>
	<path class="st0" d="M63.28,135.45c0.34,0.49,0.59,0.87,0.88,1.29c-1.65,1.1-3.29,2.19-4.98,3.31c-0.28-0.38-0.55-0.76-0.87-1.2
		c0.35-0.59,0.98-0.86,1.55-1.21c0.58-0.35,1.14-0.73,1.67-1.15C62.07,136.08,62.54,135.57,63.28,135.45z"/>
	<path class="st0" d="M65.88,135.58c-0.43,0.31-0.8,0.57-1.22,0.87c-0.33-0.4-0.69-0.83-1.08-1.3c0.49-0.38,0.94-0.72,1.38-1.06
		C65.23,134.53,65.52,135,65.88,135.58z"/>
	<path class="st0" d="M177.15,47.32c0-0.17-0.05-0.33,0.01-0.41c0.49-0.6,1.03-1.17,1.51-1.78c0.78-0.99,1.61-1.95,2.27-3.02
		c0.51-0.83,1.1-1.22,2.08-1.37c1.12-0.17,2.23-0.53,3.28-1.05c0.65-0.32,1.31-0.75,2.15-0.53c-0.8,1.03-1.93,1.55-2.92,2.25
		c-1.4,0.97-2.79,1.97-4.17,2.96c-1.23,0.89-2.45,1.81-3.68,2.7C177.53,47.2,177.34,47.24,177.15,47.32z"/>
	<path class="st0" d="M176.7,47.77c-0.06,0.07-0.11,0.13-0.17,0.2c-0.03-0.03-0.05-0.05-0.08-0.08c0.07-0.06,0.13-0.11,0.2-0.17
		C176.67,47.74,176.68,47.76,176.7,47.77z"/>
	<path class="st0" d="M176.67,47.75c0.08-0.08,0.16-0.16,0.24-0.24C176.83,47.59,176.75,47.67,176.67,47.75z"/>
	<path class="st0" d="M176.91,47.51c0.08-0.08,0.16-0.16,0.24-0.24C177.07,47.35,176.99,47.43,176.91,47.51z"/>
	<path class="st0" d="M76.53,79.88c-1.13,0-2.36,0.03-3.6-0.01c-0.89-0.03-1.77-0.18-2.66-0.22c-0.88-0.04-1.78,0.12-2.63-0.05
		c-0.73-0.14-1.47-0.09-2.18-0.23c-0.76-0.15-1.57-0.33-2.12-1.17c0.52,0,0.98,0,1.45,0c1.16,0,2.34-0.14,3.47,0.03
		c2.52,0.36,5.05,0.12,7.57,0.22c0.39,0.02,0.78,0.16,1.35,0.29c-1.29-4.49-2.57-8.81-3.82-13.34c0.74,0.26,1.04,0.64,1.33,1.11
		c0.82,1.31,1.02,2.85,1.67,4.22c-0.02,1.05,0.63,1.91,0.82,2.9c0.24,1.32,0.89,2.52,1.13,3.85c0.08,0.45,0.48,0.84,0.71,1.21
		c0.68,0.01,1.23,0.05,1.81,0.21c0.55,0.15,1.17,0.03,1.85,0.03c-0.49,0.45-0.96,0.5-1.46,0.48c-0.83-0.03-1.53,0.34-2.22,0.78
		c0,0.61-0.04,1.21,0.01,1.8c0.05,0.56-0.25,1.16,0.12,1.76c-0.12-0.08-0.34-0.15-0.35-0.25c-0.13-0.86-0.62-1.58-0.85-2.4
		C77.75,80.5,77.29,80.15,76.53,79.88z"/>
	<path class="st0" d="M78.27,90.06c0.28-0.26,0.57-0.52,0.9-0.83c0.17,0,0.4,0,0.65,0c0.55,0.46,0.94,1,0.85,1.81
		c-0.27,0.25-0.56,0.52-0.88,0.81C78.65,91.7,78.33,91.33,78.27,90.06z"/>
	<path class="st0" d="M89.68,76.76c0.33,0.33,0.58,0.58,0.91,0.91c-0.18,0.4-0.38,0.83-0.56,1.23c-0.56,0-1.03,0-1.58,0
		c-0.12-0.17-0.27-0.41-0.42-0.64c-0.07,0.02-0.13,0.05-0.2,0.07c0.1-0.42,0.19-0.85,0.28-1.22C88.6,76.73,89.14,76.74,89.68,76.76z
		"/>
	<path class="st0" d="M78.99,88.03c0,0.04,0.01,0.11,0,0.11c-0.93,0.33-1.61,0.92-1.81,2.02c-0.02-0.03,0.05,0.05,0.12,0.14
		c-0.07,0.08-0.15,0.16-0.21,0.23c0.08,0.37,0.15,0.73,0.23,1.09c-0.56-0.26-0.3-0.96-0.61-1.22c0.06-0.39,0.11-0.71,0.18-1.1
		c0.29-0.35,0.77-0.66,1.07-1.27C78.22,88.03,78.6,88.03,78.99,88.03z"/>
	<path class="st0" d="M78.99,88.03c0.1-0.08,0.19-0.18,0.3-0.24c0.22-0.11,0.45-0.19,0.71-0.3c-0.13-0.13-0.19-0.18-0.26-0.26
		c0.1-0.21,0.21-0.42,0.35-0.72c0.29,0.53,0.61,0.99,0.79,1.51c0.13,0.36,0.68,0.48,0.5,0.97c-0.29-0.24-0.59-0.47-0.89-0.72
		C79.99,88.33,79.55,87.83,78.99,88.03z"/>
	<path class="st0" d="M87.59,80.07c-0.67-0.18-1.26-0.35-1.95-0.54c0.31-0.26,0.57-0.48,0.84-0.7c0-0.24,0-0.42,0-0.6
		c0.05-0.01,0.1-0.03,0.14-0.04c0.13,0.29,0.25,0.57,0.41,0.93C87.56,79.38,87.56,79.38,87.59,80.07z"/>
	<path class="st0" d="M81.3,88.79c0.66,0.61,0.72,1.23,0.82,1.86c0.11,0.68-0.48,1.09-0.54,1.7c-0.16-0.01-0.27-0.02-0.38-0.03
		c0.23-0.55,0.45-1.08,0.65-1.58C81.68,90.13,81.52,89.56,81.3,88.79z"/>
	<path class="st0" d="M90.81,79.81c-0.55,0.62-1.16,0.81-1.76,0.66c-0.36-0.09-0.74-0.11-1.14-0.17c-0.01-0.1-0.03-0.21-0.04-0.32
		c0.75,0.22,1.02,0.2,1.72-0.12c0.09,0.07,0.21,0.16,0.36,0.27C90.19,80.04,90.46,79.94,90.81,79.81z"/>
	<path class="st0" d="M91.47,76.76c0.52,0.28,0.48,0.78,0.48,1.26c0,0.45-0.03,0.88-0.48,1.14c0-0.16-0.06-0.35,0.01-0.47
		c0.31-0.5,0.31-0.97,0-1.47C91.41,77.11,91.47,76.92,91.47,76.76z"/>
	<path class="st0" d="M88.05,75.5c0.17-0.17,0.28-0.28,0.4-0.39c0.42,0.09,0.85,0.19,1.49,0.33c-0.36,0.06-0.55,0.08-0.72,0.12
		c-0.21,0.06-0.41,0.14-0.66,0.23C88.44,75.73,88.28,75.63,88.05,75.5z"/>
	<path class="st0" d="M87.37,75.9c0.1,0.66-0.33,0.8-0.69,1.21C86.66,76.43,87.11,76.29,87.37,75.9z"/>
	<path class="st0" d="M79.28,93.14c0.27-0.08,0.55-0.16,0.87-0.25c0.01,0.07,0.03,0.2,0.05,0.37c-0.35,0-0.64,0-0.93,0
		C79.27,93.22,79.27,93.18,79.28,93.14z"/>
	<path class="st0" d="M87.63,75.8c0.02-0.36,0.3-0.2,0.48-0.24C88.09,75.92,87.81,75.76,87.63,75.8z"/>
	<path class="st0" d="M90.73,79.85c0.06-0.07,0.11-0.13,0.17-0.2c0.03,0.03,0.05,0.05,0.08,0.08c-0.07,0.06-0.13,0.11-0.2,0.17
		C90.76,79.89,90.74,79.87,90.73,79.85z"/>
	<path class="st0" d="M91.5,79.18c-0.06,0.07-0.11,0.13-0.17,0.2c-0.03-0.03-0.05-0.05-0.08-0.08c0.07-0.06,0.13-0.11,0.2-0.17
		C91.47,79.15,91.48,79.16,91.5,79.18z"/>
	<path class="st0" d="M91.45,76.78c-0.07-0.06-0.13-0.11-0.2-0.17c0.03-0.03,0.05-0.05,0.08-0.08c0.06,0.07,0.11,0.13,0.17,0.2
		C91.48,76.75,91.47,76.77,91.45,76.78z"/>
	<path class="st0" d="M87.63,75.8c-0.08,0.08-0.16,0.16-0.24,0.24C87.47,75.96,87.55,75.88,87.63,75.8z"/>
	<path class="st0" d="M77.33,91.6c0.07,0.06,0.13,0.11,0.2,0.17c-0.03,0.03-0.05,0.05-0.08,0.08c-0.06-0.07-0.11-0.13-0.17-0.2
		C77.3,91.63,77.32,91.61,77.33,91.6z"/>
	<path class="st0" d="M99.87,135.75c0-0.6-0.12-1.23,0.04-1.79c0.14-0.49,0.06-1.06,0.43-1.5c0.08-0.09,0.03-0.31,0.01-0.47
		c-0.13-1.25,0.34-2.42,0.77-3.52c0.51-1.27,1.15-2.53,2.2-3.53c0.96-0.91,2.06-1.51,3.29-1.92c0.74-0.25,1.48-0.48,2.23-0.68
		c0.26-0.07,0.55-0.01,0.82-0.05c0.37-0.04,0.79,0.16,1.12-0.2c0.08-0.08,0.39-0.09,0.45-0.02c0.37,0.45,0.9,0.09,1.32,0.3
		c0.36,0.18,0.76,0.29,1.15,0.41c1.31,0.41,2.61,0.88,3.94,1.18c0.99,0.22,1.68,0.82,2.43,1.39c0.88,0.67,1.4,1.64,2.03,2.51
		c0.85,1.2,1.67,2.41,2.46,3.65c0.68,1.07,1.25,2.17,1.52,3.45c0.12,0.58,0.07,1.17,0.23,1.69c0.15,0.46,0.19,0.8-0.01,1.26
		c-0.18,0.4,0.14,0.94-0.26,1.33c-0.07,1.11-0.92,1.66-1.68,2.23c-1.18,0.89-2.6,1.23-3.97,1.68c-0.79,0.26-1.58,0.56-2.44,0.49
		c-0.77,0.57-1.43,0.03-2.1-0.25c-1.23-0.51-2.41-1.13-3.69-1.51c-0.18-0.05-0.35-0.15-0.53-0.16c-0.88-0.02-1.76-0.03-2.64,0
		c-0.33,0.01-0.65,0.18-0.98,0.22c-0.36,0.04-0.72,0.05-1.08,0c-1.17-0.14-2.39-0.17-3.5-0.52c-0.91-0.28-1.78-0.81-2.46-1.59
		c-0.54-0.62-0.82-1.36-1.04-2.09C99.73,137.15,99.88,136.43,99.87,135.75C99.88,135.75,99.87,135.75,99.87,135.75z"/>
	<path class="st0" d="M135.41,92.3c0-8.3,0-16.56,0-24.85c3.41,0,6.79,0,10.26,0c0,3.29,0,6.63,0,10.06
		c0.68-0.13,1.25,0.05,1.89-0.22c0.56-0.24,1.29-0.2,1.92-0.24c1.43-0.09,2.79-0.64,4.24-0.54c0.08,0.01,0.18-0.14,0.26-0.22
		c0.17,1,0.23,12.55,0.08,16.01C147.88,92.3,141.7,92.3,135.41,92.3z"/>
	<path class="st0" d="M153.56,75.24c-1.05,0.12-1.92,0.21-2.79,0.32c-0.41,0.05-0.81,0.16-1.22,0.23c-0.37,0.06-0.73-0.05-1.12,0.21
		c-0.28,0.18-0.77,0.04-1.22,0.04c0-2.47,0-4.92,0-7.5c1.15,1.15,2.35,2.14,3.28,3.34C151.39,73.05,152.59,73.95,153.56,75.24z"/>
</g>
</svg>
