<svg width="408" height="189" viewBox="0 0 408 189" fill="none" xmlns="http://www.w3.org/2000/svg">
<path d="M0 153.631V2.0721H65.4191C76.6676 2.0721 86.51 4.11953 94.9464 8.21439C103.383 12.3092 109.944 18.2049 114.631 25.9012C119.318 33.5976 121.662 42.8233 121.662 53.5785C121.662 64.4324 119.244 73.5841 114.409 81.0338C109.624 88.4835 102.889 94.1077 94.2064 97.9066C85.5727 101.705 75.4835 103.605 63.939 103.605H24.8652V71.6354H55.6506C60.4855 71.6354 64.605 71.0433 68.0092 69.8593C71.4627 68.6259 74.1021 66.6771 75.9276 64.013C77.8023 61.3489 78.7397 57.8707 78.7397 53.5785C78.7397 49.237 77.8023 45.7095 75.9276 42.996C74.1021 40.2332 71.4627 38.2105 68.0092 36.9277C64.605 35.5957 60.4855 34.9296 55.6506 34.9296H41.1459V153.631H0ZM88.8042 84.0679L126.694 153.631H81.9958L44.9941 84.0679H88.8042Z" fill="black"/>
<path d="M139.201 153.631V2.0721H204.62C215.868 2.0721 225.711 4.2922 234.147 8.73241C242.583 13.1726 249.145 19.4136 253.832 27.4553C258.519 35.497 260.862 44.8954 260.862 55.6506C260.862 66.5044 258.445 75.9029 253.61 83.8459C248.824 91.789 242.09 97.9066 233.407 102.199C224.773 106.491 214.684 108.637 203.14 108.637H164.066V76.6676H194.851C199.686 76.6676 203.806 75.8289 207.21 74.1515C210.663 72.4247 213.303 69.9826 215.128 66.8251C217.003 63.6676 217.94 59.9428 217.94 55.6506C217.94 51.3091 217.003 47.6089 215.128 44.5501C213.303 41.4419 210.663 39.0738 207.21 37.4458C203.806 35.7683 199.686 34.9296 194.851 34.9296H180.346V153.631H139.201Z" fill="black"/>
<path d="M357.659 49.4343C357.264 44.5008 355.414 40.6526 352.108 37.8898C348.852 35.127 343.894 33.7456 337.234 33.7456C332.991 33.7456 329.513 34.2636 326.799 35.2996C324.135 36.2864 322.162 37.6431 320.879 39.3698C319.596 41.0966 318.93 43.07 318.881 45.2901C318.782 47.1155 319.103 48.7683 319.843 50.2484C320.632 51.6791 321.866 52.9865 323.543 54.1705C325.221 55.3053 327.367 56.3413 329.981 57.2787C332.596 58.2161 335.704 59.0548 339.306 59.7948L351.738 62.4589C360.126 64.235 367.304 66.5784 373.273 69.4893C379.243 72.4001 384.127 75.8289 387.926 79.7757C391.725 83.6733 394.512 88.0641 396.289 92.9483C398.114 97.8326 399.051 103.161 399.101 108.933C399.051 118.899 396.56 127.335 391.626 134.242C386.693 141.149 379.638 146.404 370.461 150.005C361.334 153.607 350.357 155.407 337.53 155.407C324.357 155.407 312.862 153.459 303.044 149.561C293.276 145.663 285.678 139.669 280.251 131.578C274.874 123.438 272.16 113.028 272.111 100.349H311.185C311.431 104.986 312.591 108.884 314.663 112.041C316.735 115.199 319.646 117.592 323.395 119.22C327.194 120.848 331.708 121.662 336.938 121.662C341.329 121.662 345.004 121.119 347.964 120.034C350.924 118.948 353.169 117.444 354.699 115.519C356.228 113.595 357.017 111.4 357.067 108.933C357.017 106.614 356.253 104.592 354.773 102.865C353.342 101.089 350.974 99.51 347.668 98.1286C344.363 96.6979 339.898 95.3658 334.274 94.1324L319.177 90.8763C305.758 87.9655 295.175 83.1059 287.429 76.2976C279.733 69.4399 275.91 60.0908 275.959 48.2503C275.91 38.6298 278.475 30.2181 283.655 23.0151C288.885 15.7627 296.113 10.1138 305.338 6.06828C314.613 2.02276 325.245 0 337.234 0C349.469 0 360.052 2.04743 368.981 6.14229C377.911 10.2371 384.793 16.0094 389.628 23.4591C394.512 30.8594 396.979 39.5178 397.029 49.4343H357.659Z" fill="black"/>
<path d="M2.72778 188.364V164.367H13.0858C14.8668 164.367 16.4252 164.691 17.761 165.339C19.0967 165.988 20.1357 166.921 20.8778 168.14C21.6198 169.358 21.9909 170.819 21.9909 172.522C21.9909 174.24 21.6081 175.689 20.8426 176.869C20.0849 178.048 19.0186 178.939 17.6438 179.54C16.2768 180.142 14.6793 180.443 12.8515 180.443H6.66477V175.381H11.5391C12.3047 175.381 12.9569 175.287 13.4959 175.1C14.0427 174.904 14.4606 174.596 14.7496 174.174C15.0465 173.752 15.1949 173.201 15.1949 172.522C15.1949 171.834 15.0465 171.276 14.7496 170.846C14.4606 170.409 14.0427 170.089 13.4959 169.885C12.9569 169.675 12.3047 169.569 11.5391 169.569H9.24255V188.364H2.72778ZM16.7884 177.349L22.7877 188.364H15.7105L9.85185 177.349H16.7884Z" fill="black"/>
<path d="M48.0148 176.365C48.0148 179.037 47.4954 181.29 46.4564 183.126C45.4175 184.954 44.0153 186.34 42.2499 187.286C40.4846 188.223 38.5161 188.692 36.3445 188.692C34.1573 188.692 32.181 188.219 30.4156 187.274C28.658 186.321 27.2597 184.93 26.2208 183.102C25.1897 181.267 24.6741 179.021 24.6741 176.365C24.6741 173.694 25.1897 171.444 26.2208 169.616C27.2597 167.78 28.658 166.394 30.4156 165.456C32.181 164.511 34.1573 164.039 36.3445 164.039C38.5161 164.039 40.4846 164.511 42.2499 165.456C44.0153 166.394 45.4175 167.78 46.4564 169.616C47.4954 171.444 48.0148 173.694 48.0148 176.365ZM41.3126 176.365C41.3126 174.928 41.1212 173.717 40.7384 172.733C40.3635 171.741 39.805 170.991 39.0629 170.483C38.3286 169.967 37.4225 169.71 36.3445 169.71C35.2665 169.71 34.3565 169.967 33.6144 170.483C32.8801 170.991 32.3216 171.741 31.9388 172.733C31.5638 173.717 31.3764 174.928 31.3764 176.365C31.3764 177.802 31.5638 179.017 31.9388 180.009C32.3216 180.993 32.8801 181.743 33.6144 182.259C34.3565 182.767 35.2665 183.02 36.3445 183.02C37.4225 183.02 38.3286 182.767 39.0629 182.259C39.805 181.743 40.3635 180.993 40.7384 180.009C41.1212 179.017 41.3126 177.802 41.3126 176.365Z" fill="black"/>
<path d="M73.4324 173.365H66.8239C66.777 172.819 66.652 172.323 66.4489 171.877C66.2536 171.432 65.9802 171.049 65.6287 170.729C65.285 170.401 64.8671 170.151 64.375 169.979C63.8829 169.8 63.3243 169.71 62.6994 169.71C61.6058 169.71 60.6802 169.975 59.9224 170.506C59.1725 171.038 58.6023 171.799 58.2117 172.791C57.829 173.783 57.6376 174.975 57.6376 176.365C57.6376 177.834 57.8329 179.064 58.2234 180.056C58.6218 181.04 59.196 181.782 59.9459 182.282C60.6958 182.774 61.598 183.02 62.6526 183.02C63.254 183.02 63.793 182.946 64.2695 182.798C64.746 182.642 65.16 182.419 65.5116 182.13C65.8631 181.841 66.1482 181.493 66.3669 181.087C66.5934 180.673 66.7458 180.208 66.8239 179.693L73.4324 179.74C73.3543 180.755 73.0692 181.79 72.577 182.845C72.0849 183.891 71.3858 184.86 70.4796 185.751C69.5813 186.633 68.4682 187.344 67.1402 187.883C65.8123 188.422 64.2695 188.692 62.5119 188.692C60.3091 188.692 58.3328 188.219 56.583 187.274C54.8411 186.329 53.4623 184.938 52.4469 183.102C51.4392 181.267 50.9353 179.021 50.9353 176.365C50.9353 173.694 51.4509 171.444 52.482 169.616C53.5131 167.78 54.9036 166.394 56.6533 165.456C58.4031 164.511 60.356 164.039 62.5119 164.039C64.0274 164.039 65.4217 164.246 66.695 164.66C67.9683 165.074 69.0853 165.679 70.0461 166.476C71.0069 167.265 71.7803 168.237 72.3661 169.393C72.952 170.549 73.3074 171.873 73.4324 173.365Z" fill="black"/>
<path d="M76.3881 188.364V164.367H82.9028V174.069H83.2309L90.4487 164.367H98.0415L89.9332 175.053L98.2289 188.364H90.4487L85.0588 179.365L82.9028 182.177V188.364H76.3881Z" fill="black"/>
<path d="M103.584 188.738C102.678 188.738 101.9 188.422 101.252 187.789C100.611 187.149 100.295 186.372 100.303 185.458C100.295 184.567 100.611 183.806 101.252 183.173C101.9 182.54 102.678 182.224 103.584 182.224C104.443 182.224 105.201 182.54 105.857 183.173C106.521 183.806 106.857 184.567 106.865 185.458C106.857 186.067 106.697 186.622 106.384 187.121C106.079 187.614 105.681 188.008 105.189 188.305C104.697 188.594 104.162 188.738 103.584 188.738Z" fill="black"/>
<path d="M110.286 188.364V164.367H120.644C122.425 164.367 123.983 164.718 125.319 165.421C126.655 166.124 127.694 167.112 128.436 168.386C129.178 169.659 129.549 171.147 129.549 172.85C129.549 174.568 129.166 176.057 128.401 177.314C127.643 178.572 126.577 179.54 125.202 180.22C123.835 180.9 122.238 181.239 120.41 181.239H114.223V176.178H119.097C119.863 176.178 120.515 176.045 121.054 175.779C121.601 175.506 122.019 175.119 122.308 174.619C122.605 174.119 122.753 173.53 122.753 172.85C122.753 172.163 122.605 171.577 122.308 171.092C122.019 170.6 121.601 170.225 121.054 169.967C120.515 169.702 119.863 169.569 119.097 169.569H116.801V188.364H110.286Z" fill="black"/>
<path d="M135.176 188.364H128.146L136.067 164.367H144.972L152.893 188.364H145.862L140.613 170.975H140.426L135.176 188.364ZM133.864 178.896H147.081V183.77H133.864V178.896Z" fill="black"/>
<path d="M155.204 188.364V164.367H165.562C167.343 164.367 168.901 164.718 170.237 165.421C171.573 166.124 172.612 167.112 173.354 168.386C174.096 169.659 174.467 171.147 174.467 172.85C174.467 174.568 174.084 176.057 173.319 177.314C172.561 178.572 171.495 179.54 170.12 180.22C168.753 180.9 167.155 181.239 165.328 181.239H159.141V176.178H164.015C164.781 176.178 165.433 176.045 165.972 175.779C166.519 175.506 166.937 175.119 167.226 174.619C167.523 174.119 167.671 173.53 167.671 172.85C167.671 172.163 167.523 171.577 167.226 171.092C166.937 170.6 166.519 170.225 165.972 169.967C165.433 169.702 164.781 169.569 164.015 169.569H161.719V188.364H155.204Z" fill="black"/>
<path d="M176.857 188.364V164.367H194.152V169.616H183.372V173.74H193.261V178.99H183.372V183.114H194.105V188.364H176.857Z" fill="black"/>
<path d="M197.383 188.364V164.367H207.741C209.522 164.367 211.08 164.691 212.416 165.339C213.752 165.988 214.791 166.921 215.533 168.14C216.275 169.358 216.646 170.819 216.646 172.522C216.646 174.24 216.263 175.689 215.498 176.869C214.74 178.048 213.674 178.939 212.299 179.54C210.932 180.142 209.335 180.443 207.507 180.443H201.32V175.381H206.194C206.96 175.381 207.612 175.287 208.151 175.1C208.698 174.904 209.116 174.596 209.405 174.174C209.702 173.752 209.85 173.201 209.85 172.522C209.85 171.834 209.702 171.276 209.405 170.846C209.116 170.409 208.698 170.089 208.151 169.885C207.612 169.675 206.96 169.569 206.194 169.569H203.898V188.364H197.383ZM211.444 177.349L217.443 188.364H210.366L204.507 177.349H211.444Z" fill="black"/>
<path d="M223.032 188.738C222.126 188.738 221.349 188.422 220.7 187.789C220.06 187.149 219.743 186.372 219.751 185.458C219.743 184.567 220.06 183.806 220.7 183.173C221.349 182.54 222.126 182.224 223.032 182.224C223.891 182.224 224.649 182.54 225.305 183.173C225.969 183.806 226.305 184.567 226.313 185.458C226.305 186.067 226.145 186.622 225.832 187.121C225.528 187.614 225.129 188.008 224.637 188.305C224.145 188.594 223.61 188.738 223.032 188.738Z" fill="black"/>
<path d="M242.67 171.866C242.607 171.085 242.315 170.475 241.791 170.038C241.276 169.6 240.491 169.382 239.436 169.382C238.764 169.382 238.214 169.464 237.784 169.628C237.362 169.784 237.05 169.999 236.847 170.272C236.643 170.546 236.538 170.858 236.53 171.21C236.515 171.499 236.565 171.76 236.682 171.995C236.807 172.221 237.003 172.428 237.268 172.616C237.534 172.795 237.874 172.959 238.288 173.108C238.702 173.256 239.194 173.389 239.764 173.506L241.733 173.928C243.061 174.209 244.197 174.58 245.142 175.041C246.087 175.502 246.861 176.045 247.462 176.67C248.064 177.287 248.505 177.982 248.786 178.755C249.075 179.529 249.224 180.372 249.232 181.286C249.224 182.864 248.829 184.2 248.048 185.294C247.267 186.387 246.15 187.219 244.697 187.789C243.252 188.36 241.514 188.645 239.483 188.645C237.397 188.645 235.577 188.336 234.023 187.719C232.476 187.102 231.273 186.153 230.414 184.872C229.562 183.583 229.133 181.935 229.125 179.927H235.312C235.351 180.661 235.534 181.279 235.862 181.778C236.19 182.278 236.651 182.657 237.245 182.915C237.846 183.173 238.561 183.302 239.389 183.302C240.084 183.302 240.666 183.216 241.135 183.044C241.604 182.872 241.959 182.634 242.201 182.329C242.443 182.024 242.568 181.677 242.576 181.286C242.568 180.919 242.447 180.599 242.213 180.326C241.986 180.044 241.612 179.794 241.088 179.576C240.565 179.349 239.858 179.138 238.967 178.943L236.577 178.427C234.452 177.966 232.777 177.197 231.55 176.119C230.332 175.033 229.726 173.553 229.734 171.678C229.726 170.155 230.133 168.823 230.953 167.683C231.781 166.534 232.925 165.64 234.386 164.999C235.854 164.359 237.538 164.039 239.436 164.039C241.373 164.039 243.049 164.363 244.463 165.011C245.877 165.659 246.966 166.573 247.732 167.753C248.505 168.925 248.896 170.296 248.904 171.866H242.67Z" fill="black"/>
<path d="M274.113 173.365H267.505C267.458 172.819 267.333 172.323 267.13 171.877C266.934 171.432 266.661 171.049 266.309 170.729C265.966 170.401 265.548 170.151 265.056 169.979C264.564 169.8 264.005 169.71 263.38 169.71C262.287 169.71 261.361 169.975 260.603 170.506C259.853 171.038 259.283 171.799 258.892 172.791C258.51 173.783 258.318 174.975 258.318 176.365C258.318 177.834 258.514 179.064 258.904 180.056C259.303 181.04 259.877 181.782 260.627 182.282C261.376 182.774 262.279 183.02 263.333 183.02C263.935 183.02 264.474 182.946 264.95 182.798C265.427 182.642 265.841 182.419 266.192 182.13C266.544 181.841 266.829 181.493 267.048 181.087C267.274 180.673 267.427 180.208 267.505 179.693L274.113 179.74C274.035 180.755 273.75 181.79 273.258 182.845C272.766 183.891 272.067 184.86 271.16 185.751C270.262 186.633 269.149 187.344 267.821 187.883C266.493 188.422 264.95 188.692 263.193 188.692C260.99 188.692 259.014 188.219 257.264 187.274C255.522 186.329 254.143 184.938 253.128 183.102C252.12 181.267 251.616 179.021 251.616 176.365C251.616 173.694 252.132 171.444 253.163 169.616C254.194 167.78 255.584 166.394 257.334 165.456C259.084 164.511 261.037 164.039 263.193 164.039C264.708 164.039 266.102 164.246 267.376 164.66C268.649 165.074 269.766 165.679 270.727 166.476C271.688 167.265 272.461 168.237 273.047 169.393C273.633 170.549 273.988 171.873 274.113 173.365Z" fill="black"/>
<path d="M283.584 164.367V188.364H277.069V164.367H283.584Z" fill="black"/>
<path d="M299.607 171.866C299.544 171.085 299.251 170.475 298.728 170.038C298.212 169.6 297.427 169.382 296.373 169.382C295.701 169.382 295.15 169.464 294.721 169.628C294.299 169.784 293.986 169.999 293.783 170.272C293.58 170.546 293.475 170.858 293.467 171.21C293.451 171.499 293.502 171.76 293.619 171.995C293.744 172.221 293.94 172.428 294.205 172.616C294.471 172.795 294.811 172.959 295.225 173.108C295.639 173.256 296.131 173.389 296.701 173.506L298.669 173.928C299.997 174.209 301.134 174.58 302.079 175.041C303.024 175.502 303.798 176.045 304.399 176.67C305.001 177.287 305.442 177.982 305.723 178.755C306.012 179.529 306.161 180.372 306.169 181.286C306.161 182.864 305.766 184.2 304.985 185.294C304.204 186.387 303.087 187.219 301.634 187.789C300.189 188.36 298.451 188.645 296.42 188.645C294.334 188.645 292.514 188.336 290.96 187.719C289.413 187.102 288.21 186.153 287.351 184.872C286.499 183.583 286.07 181.935 286.062 179.927H292.248C292.288 180.661 292.471 181.279 292.799 181.778C293.127 182.278 293.588 182.657 294.182 182.915C294.783 183.173 295.498 183.302 296.326 183.302C297.021 183.302 297.603 183.216 298.072 183.044C298.541 182.872 298.896 182.634 299.138 182.329C299.38 182.024 299.505 181.677 299.513 181.286C299.505 180.919 299.384 180.599 299.15 180.326C298.923 180.044 298.548 179.794 298.025 179.576C297.502 179.349 296.795 179.138 295.904 178.943L293.514 178.427C291.389 177.966 289.714 177.197 288.487 176.119C287.269 175.033 286.663 173.553 286.671 171.678C286.663 170.155 287.069 168.823 287.89 167.683C288.718 166.534 289.862 165.64 291.323 164.999C292.791 164.359 294.475 164.039 296.373 164.039C298.31 164.039 299.986 164.363 301.4 165.011C302.813 165.659 303.903 166.573 304.669 167.753C305.442 168.925 305.833 170.296 305.84 171.866H299.607Z" fill="black"/>
<path d="M321.582 171.866C321.52 171.085 321.227 170.475 320.704 170.038C320.188 169.6 319.403 169.382 318.349 169.382C317.677 169.382 317.126 169.464 316.696 169.628C316.275 169.784 315.962 169.999 315.759 170.272C315.556 170.546 315.45 170.858 315.443 171.21C315.427 171.499 315.478 171.76 315.595 171.995C315.72 172.221 315.915 172.428 316.181 172.616C316.446 172.795 316.786 172.959 317.2 173.108C317.614 173.256 318.106 173.389 318.677 173.506L320.645 173.928C321.973 174.209 323.11 174.58 324.055 175.041C325 175.502 325.773 176.045 326.375 176.67C326.976 177.287 327.418 177.982 327.699 178.755C327.988 179.529 328.136 180.372 328.144 181.286C328.136 182.864 327.742 184.2 326.961 185.294C326.18 186.387 325.062 187.219 323.61 187.789C322.164 188.36 320.426 188.645 318.395 188.645C316.31 188.645 314.49 188.336 312.935 187.719C311.389 187.102 310.186 186.153 309.326 184.872C308.475 183.583 308.045 181.935 308.037 179.927H314.224C314.263 180.661 314.447 181.279 314.775 181.778C315.103 182.278 315.564 182.657 316.157 182.915C316.759 183.173 317.474 183.302 318.302 183.302C318.997 183.302 319.579 183.216 320.048 183.044C320.516 182.872 320.872 182.634 321.114 182.329C321.356 182.024 321.481 181.677 321.489 181.286C321.481 180.919 321.36 180.599 321.126 180.326C320.899 180.044 320.524 179.794 320.001 179.576C319.477 179.349 318.77 179.138 317.88 178.943L315.49 178.427C313.365 177.966 311.689 177.197 310.463 176.119C309.244 175.033 308.639 173.553 308.647 171.678C308.639 170.155 309.045 168.823 309.865 167.683C310.693 166.534 311.838 165.64 313.298 164.999C314.767 164.359 316.45 164.039 318.349 164.039C320.286 164.039 321.961 164.363 323.375 165.011C324.789 165.659 325.879 166.573 326.644 167.753C327.418 168.925 327.808 170.296 327.816 171.866H321.582Z" fill="black"/>
<path d="M353.869 176.365C353.869 179.037 353.35 181.29 352.311 183.126C351.272 184.954 349.87 186.34 348.104 187.286C346.339 188.223 344.371 188.692 342.199 188.692C340.012 188.692 338.035 188.219 336.27 187.274C334.512 186.321 333.114 184.93 332.075 183.102C331.044 181.267 330.529 179.021 330.529 176.365C330.529 173.694 331.044 171.444 332.075 169.616C333.114 167.78 334.512 166.394 336.27 165.456C338.035 164.511 340.012 164.039 342.199 164.039C344.371 164.039 346.339 164.511 348.104 165.456C349.87 166.394 351.272 167.78 352.311 169.616C353.35 171.444 353.869 173.694 353.869 176.365ZM347.167 176.365C347.167 174.928 346.976 173.717 346.593 172.733C346.218 171.741 345.659 170.991 344.917 170.483C344.183 169.967 343.277 169.71 342.199 169.71C341.121 169.71 340.211 169.967 339.469 170.483C338.735 170.991 338.176 171.741 337.793 172.733C337.418 173.717 337.231 174.928 337.231 176.365C337.231 177.802 337.418 179.017 337.793 180.009C338.176 180.993 338.735 181.743 339.469 182.259C340.211 182.767 341.121 183.02 342.199 183.02C343.277 183.02 344.183 182.767 344.917 182.259C345.659 181.743 346.218 180.993 346.593 180.009C346.976 179.017 347.167 177.802 347.167 176.365Z" fill="black"/>
<path d="M356.884 188.364V164.367H367.242C369.023 164.367 370.581 164.691 371.917 165.339C373.252 165.988 374.291 166.921 375.034 168.14C375.776 169.358 376.147 170.819 376.147 172.522C376.147 174.24 375.764 175.689 374.998 176.869C374.241 178.048 373.174 178.939 371.8 179.54C370.433 180.142 368.835 180.443 367.007 180.443H360.821V175.381H365.695C366.46 175.381 367.113 175.287 367.652 175.1C368.198 174.904 368.616 174.596 368.905 174.174C369.202 173.752 369.351 173.201 369.351 172.522C369.351 171.834 369.202 171.276 368.905 170.846C368.616 170.409 368.198 170.089 367.652 169.885C367.113 169.675 366.46 169.569 365.695 169.569H363.398V188.364H356.884ZM370.944 177.349L376.943 188.364H369.866L364.008 177.349H370.944Z" fill="black"/>
<path d="M391.859 171.866C391.797 171.085 391.504 170.475 390.981 170.038C390.465 169.6 389.68 169.382 388.625 169.382C387.954 169.382 387.403 169.464 386.973 169.628C386.552 169.784 386.239 169.999 386.036 170.272C385.833 170.546 385.727 170.858 385.72 171.21C385.704 171.499 385.755 171.76 385.872 171.995C385.997 172.221 386.192 172.428 386.458 172.616C386.723 172.795 387.063 172.959 387.477 173.108C387.891 173.256 388.383 173.389 388.954 173.506L390.922 173.928C392.25 174.209 393.387 174.58 394.332 175.041C395.277 175.502 396.05 176.045 396.652 176.67C397.253 177.287 397.695 177.982 397.976 178.755C398.265 179.529 398.413 180.372 398.421 181.286C398.413 182.864 398.019 184.2 397.238 185.294C396.456 186.387 395.339 187.219 393.887 187.789C392.441 188.36 390.703 188.645 388.672 188.645C386.587 188.645 384.767 188.336 383.212 187.719C381.665 187.102 380.462 186.153 379.603 184.872C378.752 183.583 378.322 181.935 378.314 179.927H384.501C384.54 180.661 384.724 181.279 385.052 181.778C385.38 182.278 385.841 182.657 386.434 182.915C387.036 183.173 387.751 183.302 388.579 183.302C389.274 183.302 389.856 183.216 390.324 183.044C390.793 182.872 391.149 182.634 391.391 182.329C391.633 182.024 391.758 181.677 391.766 181.286C391.758 180.919 391.637 180.599 391.402 180.326C391.176 180.044 390.801 179.794 390.278 179.576C389.754 179.349 389.047 179.138 388.157 178.943L385.766 178.427C383.642 177.966 381.966 177.197 380.74 176.119C379.521 175.033 378.916 173.553 378.924 171.678C378.916 170.155 379.322 168.823 380.142 167.683C380.97 166.534 382.115 165.64 383.575 164.999C385.044 164.359 386.727 164.039 388.625 164.039C390.563 164.039 392.238 164.363 393.652 165.011C395.066 165.659 396.156 166.573 396.921 167.753C397.695 168.925 398.085 170.296 398.093 171.866H391.859Z" fill="black"/>
<path d="M404.508 188.738C403.602 188.738 402.825 188.422 402.176 187.789C401.536 187.149 401.22 186.372 401.227 185.458C401.22 184.567 401.536 183.806 402.176 183.173C402.825 182.54 403.602 182.224 404.508 182.224C405.367 182.224 406.125 182.54 406.781 183.173C407.445 183.806 407.781 184.567 407.789 185.458C407.781 186.067 407.621 186.622 407.309 187.121C407.004 187.614 406.606 188.008 406.113 188.305C405.621 188.594 405.086 188.738 404.508 188.738Z" fill="black"/>
</svg>
