<svg enable-background="new 0 0 1000 1005.09" viewBox="0 0 1000 1005.09" xmlns="http://www.w3.org/2000/svg"><g fill="#222"><path d="m599.16 67.83c.26-3.52 3.33-6.17 6.85-5.91l61.1 4.55c-1.08-.48-2.17-.94-3.25-1.4-51.87-21.95-107-33.08-163.86-33.08-56.85 0-111.99 11.13-163.87 33.08-14.2 6.01-28.11 12.82-41.47 20.29-3.8 2.13-8.6.82-10.8-2.94-2.25-3.86-.92-8.83 2.98-11.01 13.87-7.76 28.32-14.83 43.06-21.06 53.86-22.8 111.1-34.36 170.1-34.36 56.09 0 110.57 10.44 162.08 31.06l-34.31-33.42c-2.53-2.47-2.58-6.52-.12-9.05 2.47-2.53 6.51-2.58 9.04-.12l71.9 70.03c2.98 2.9.71 7.94-3.44 7.64l-100.09-7.42c-3.52-.26-6.17-3.33-5.91-6.85z"/><path d="m855 108.02c-80.08 0-145 64.92-145 145 0 80.09 64.92 145 145 145s145-64.91 145-145c0-80.08-64.92-145-145-145zm66.99 211.72-2.06 2.05c-23.61 23.61-62.02 23.61-85.63 0l-53.53-53.53c-6.8-6.8-6.8-17.86 0-24.66 2.05-2.05 4.48-3.47 7.08-4.28l-12.44-12.44c-6.8-6.8-6.8-17.85 0-24.65 2.52-2.52 5.63-4.1 8.88-4.76-2.28-6.18-.95-13.4 4.01-18.36 6.67-6.67 17.45-6.79 24.26-.37.81-2.6 2.25-5.05 4.29-7.09 6.8-6.8 17.86-6.8 24.66 0l26.79 26.78-6.65 6.65-26.79-26.79c-3.13-3.13-8.23-3.13-11.36 0s-3.13 8.23 0 11.36l37.31 37.32-6.64 6.64-47.86-47.85c-3.13-3.14-8.23-3.14-11.36 0-3.13 3.12-3.13 8.22 0 11.35l47.86 47.86-6.65 6.65-42.74-42.75c-3.13-3.13-8.23-3.12-11.36.01s-3.13 8.23-.01 11.35l47.95 47.95-6.64 6.65-24.58-24.58c-3.14-3.14-8.23-3.14-11.37 0-3.12 3.13-3.13 8.23 0 11.36l53.54 53.54c19.94 19.94 52.39 19.94 72.33 0l2.06-2.06c19.94-19.94 19.94-52.39 0-72.33l-27.61-27.61c-3.13-3.13-8.23-3.13-11.36 0-3.13 3.14-3.13 8.23 0 11.36l18.03 18.03-3.33 3.32.01.01c-13.07 13.06-13.06 34.31 0 47.37l.08.08-6.64 6.65-.09-.09c-15.6-15.6-16.65-40.33-3.14-57.15l-11.57-11.57c-6.79-6.8-6.8-17.85 0-24.65s17.86-6.8 24.66 0l27.61 27.6c23.6 23.61 23.6 62.02 0 85.63z"/><path d="m458.79 817.1v16.59c0 5-4.07 9.06-9.06 9.06-5 0-9.07-4.06-9.07-9.06v-16.59c0-5 4.07-9.06 9.07-9.06 4.99 0 9.06 4.06 9.06 9.06z"/><path d="m487.52 802.89v30.8c0 5-4.07 9.06-9.07 9.06-4.99 0-9.06-4.06-9.06-9.06v-30.8c0-5 4.07-9.06 9.06-9.06 5 0 9.07 4.06 9.07 9.06z"/><path d="m516.25 802.89v11.14h-9.06c-3.27 0-6.36.79-9.07 2.21v-13.35c0-5 4.06-9.06 9.07-9.06 5 0 9.06 4.06 9.06 9.06z"/><path d="m544.97 802.89v11.14h-18.12v-11.14c0-5 4.07-9.06 9.06-9.06 5 0 9.06 4.06 9.06 9.06z"/><path d="m500 715.09c-80.08 0-145 64.91-145 145 0 80.08 64.92 145 145 145s145-64.92 145-145c0-80.09-64.92-145-145-145zm69.94 153.55c0 37.66-30.64 68.3-68.3 68.3h-3.27c-37.67 0-68.31-30.64-68.31-68.3v-10.07h10.6v10.07c0 31.81 25.89 57.7 57.71 57.7h3.27c31.81 0 57.7-25.89 57.7-57.7v-44.01h-52.15c-5.01 0-9.07 4.06-9.07 9.06 0 1.53.38 3.01 1.1 4.32.06.12.14.25.22.38.15.25.32.5.5.74.26.33.54.66.84.96.15.15.31.3.48.45.49.43 1.03.81 1.61 1.12.38.21.78.38 1.2.54.01.01.03.02.06.03.13.05.27.1.4.13.12.04.23.06.34.09.05.02.11.04.16.04.1.03.19.05.29.07.16.03.32.07.49.08.45.08.91.11 1.38.11h11.15c.02-.03.05-.07.08-.11 0 .04.03.08.05.11h6.17c.01-.03.03-.07.05-.11.03.04.05.08.08.11h25.51v10.6c-20.84 0-37.79 16.96-37.79 37.8v.13h-10.61v-.13c0-15.28 7.12-28.92 18.21-37.8h-12.9c-.68 0-1.35-.03-2.01-.1-.34-.03-.66-.07-.99-.13-.68-.09-1.35-.24-2.01-.41-.21-.05-.42-.12-.63-.18-.24-.07-.48-.15-.71-.23-.23-.07-.47-.15-.7-.25-1.13-.42-2.21-.97-3.26-1.61-.21-.13-.41-.26-.62-.4-.35-.24-.7-.49-1.04-.75-.33-.26-.65-.52-.97-.8-.01-.01-.02-.01-.03-.02-.31-.29-.63-.58-.93-.88h-.01c-.08-.08-.16-.16-.23-.24-.08-.08-.16-.16-.23-.23-3.6 3.83-8.7 6.23-14.37 6.23-5.66 0-10.78-2.4-14.35-6.24-3.6 3.84-8.71 6.24-14.37 6.24-10.85 0-19.67-8.81-19.67-19.66v-16.59c0-10.84 8.82-19.67 19.67-19.67 3.36 0 6.53.85 9.3 2.35 1.5-9.37 9.64-16.55 19.42-16.55 5.67 0 10.78 2.41 14.38 6.25 3.58-3.84 8.69-6.25 14.36-6.25 5.66 0 10.77 2.41 14.36 6.25 3.59-3.84 8.7-6.25 14.36-6.25 10.85 0 19.67 8.82 19.67 19.66v11.14h14.36z"/><path d="m176.06 179.06-32.41 56.14-2.67 4.62-11.44-11.45 32.98-57.13c2.16-3.74 6.95-5.01 10.68-2.86.6.35 1.15.77 1.63 1.25.96.96 1.65 2.15 2.01 3.49.54 2.02.26 4.13-.78 5.94z"/><path d="m181.29 266.55-18.78 18.78c-3.05 3.05-8 3.05-11.05 0s-3.05-8.01-.01-11.05l18.79-18.79c3.04-3.04 8-3.05 11.05 0 .19.19.36.38.53.58 2.51 3.07 2.33 7.62-.53 10.48z"/><path d="m190.15 292.73-10.12 10.12c-3.05 3.05-8.01 3.05-11.05 0-3.05-3.05-3.05-8.01-.01-11.05l10.12-10.12c3.05-3.04 8.01-3.05 11.06 0s3.04 8.01 0 11.05z"/><path d="m145 108.02c-80.08 0-145 64.92-145 145 0 80.09 64.92 145 145 145s145-64.91 145-145c0-80.08-64.92-145-145-145zm81.77 112.61c-1.16 4.38-3.98 8.04-7.89 10.31l-26.56 15.33-6.7-6.7 28.68-16.55c1.81-1.05 3.1-2.73 3.64-4.75s.27-4.12-.78-5.93c-.35-.6-.76-1.15-1.24-1.62-2.44-2.44-6.31-3.05-9.44-1.24l-56.14 32.41-4.62 2.67 3.89 3.89c.15.15.3.29.43.45 2.52 2.7 3.99 6.02 4.4 9.45l9.33-9.32c4.96-4.97 12.26-6.21 18.39-3.72 2.04.83 3.95 2.07 5.6 3.72.76.76 1.44 1.58 2.02 2.44 4.01 5.87 3.91 13.72-.28 19.5 2.61.77 5.06 2.19 7.12 4.24 6.61 6.62 6.6 17.38-.01 23.99l-10.12 10.12c-6.61 6.61-17.36 6.61-23.98 0-3.45-3.46-5.1-8.04-4.95-12.57-4.53.15-9.12-1.5-12.57-4.96-3.97-3.97-5.55-9.43-4.76-14.6-5.16.8-10.63-.78-14.6-4.76l-6.03-6.03c1.35 12.18-2.63 24.84-11.95 34.16l-.08.08-6.47-6.47.08-.08c12.71-12.71 12.72-33.39.01-46.1l6.46-6.46 24.45 24.44c3.04 3.04 8 3.04 11.04 0 .27-.27.5-.54.72-.83 1.79-2.37 2.05-5.54.78-8.14-.37-.76-.87-1.46-1.49-2.08l-29.97-29.97-26.84 26.84c-19.41 19.4-19.41 50.98 0 70.38l2 2c19.4 19.4 50.97 19.4 70.38-.01l6.14-6.14 6.46 6.47-6.14 6.14c-22.97 22.97-60.34 22.97-83.31 0l-2-1.99c-22.97-22.98-22.97-60.35 0-83.32l33.31-33.31 9.66 9.67 31.76-55.02c4.68-8.09 15.07-10.88 23.17-6.2 3.93 2.26 6.73 5.92 7.9 10.3 1.18 4.37.57 8.94-1.69 12.87l-24.49 42.42 42.42-24.49c8.1-4.68 18.49-1.89 23.17 6.21 2.27 3.92 2.87 8.49 1.69 12.86z"/><path d="m401.37 193.82c-.85-1.69-1.94-2.93-3.29-3.73-1.33-.78-2.74-1.17-4.21-1.17-1.12 0-2.1.18-2.93.57-.85.39-1.55.89-2.1 1.53-.57.64-1.01 1.35-1.28 2.1h-.14v-11.4h-8.05v29.92h8v-3.68h.18c.3.75.75 1.44 1.33 2.06.57.59 1.28 1.05 2.1 1.42.82.34 1.76.5 2.81.5 1.6 0 3.06-.41 4.39-1.26 1.35-.85 2.42-2.1 3.22-3.82.8-1.69 1.21-3.84 1.21-6.45.01-2.68-.4-4.88-1.24-6.59zm-7.45 9.49c-.27.78-.69 1.39-1.21 1.83-.5.41-1.14.62-1.87.62-.75 0-1.39-.21-1.92-.64s-.94-1.05-1.23-1.85c-.27-.8-.41-1.74-.41-2.83 0-1.1.14-2.06.41-2.83.3-.8.71-1.42 1.23-1.83.53-.43 1.17-.64 1.92-.64.73 0 1.37.21 1.87.64.53.41.94 1.03 1.21 1.83.27.78.41 1.74.41 2.83 0 1.11-.14 2.07-.41 2.87zm33.82-1.01v-1.87c0-1.78-.27-3.38-.8-4.8s-1.26-2.63-2.24-3.61c-.98-1.01-2.15-1.78-3.52-2.31s-2.9-.78-4.59-.78c-2.33 0-4.34.48-6.03 1.44-1.71.96-3.04 2.31-3.98 4.05s-1.39 3.77-1.39 6.08c0 2.42.46 4.48 1.39 6.22.94 1.74 2.26 3.06 3.98 3.98 1.74.91 3.79 1.37 6.19 1.37 2.08 0 3.89-.3 5.44-.94 1.55-.62 2.81-1.51 3.75-2.65.96-1.14 1.55-2.51 1.81-4.07h-7.36c-.16.43-.41.78-.73 1.1-.34.27-.73.5-1.21.66-.46.16-.96.23-1.51.23-.8 0-1.49-.16-2.06-.48-.55-.32-.98-.75-1.28-1.33-.32-.57-.46-1.21-.46-1.92v-.37zm-14.1-6.15c.34-.48.78-.87 1.33-1.14s1.14-.41 1.78-.41c.69 0 1.28.14 1.81.41s.96.66 1.28 1.17c.32.48.48 1.05.48 1.69h-7.18c.02-.67.18-1.24.5-1.72zm37.14-2.76c-.48-.89-1.17-1.67-2.06-2.33s-1.99-1.19-3.27-1.55c-1.26-.39-2.7-.57-4.32-.57-2.22 0-4.09.34-5.58 1.05-1.49.69-2.63 1.6-3.41 2.77-.75 1.14-1.19 2.4-1.3 3.77h7.43c.09-.69.39-1.21.87-1.53.48-.34 1.12-.5 1.87-.5.71 0 1.28.14 1.74.46.43.32.66.75.66 1.35v.05c0 .43-.16.78-.5 1.05-.34.25-.91.46-1.67.59-.75.14-1.78.25-3.04.34-1.14.09-2.24.27-3.22.57-1.01.3-1.87.73-2.63 1.28-.75.55-1.33 1.26-1.76 2.15-.41.87-.62 1.92-.62 3.13 0 1.49.32 2.72.94 3.68.62.98 1.49 1.69 2.56 2.17 1.1.46 2.38.71 3.82.71.96 0 1.85-.11 2.67-.37.8-.23 1.53-.59 2.17-1.12s1.19-1.19 1.62-2.03h.18v3.15h7.54v-15.36c.02-1.06-.23-2.02-.69-2.91zm-7.29 10.33c0 .66-.18 1.26-.53 1.74-.34.48-.78.82-1.33 1.1-.53.25-1.12.37-1.71.37-.69 0-1.26-.16-1.69-.5-.43-.32-.66-.8-.66-1.42 0-.39.09-.75.27-1.05.21-.32.5-.59.89-.8.39-.23.91-.39 1.53-.48.32-.07.62-.11.91-.16.3-.07.59-.14.85-.21.27-.07.53-.14.78-.21.23-.09.46-.16.69-.25zm47.68-3.45c-1.12-.98-2.83-1.69-5.14-2.1l-4.55-.82c-.87-.16-1.44-.39-1.74-.66s-.43-.59-.43-.91c0-.48.23-.82.73-1.07.5-.27 1.1-.39 1.78-.39.55 0 1.03.09 1.46.27.46.18.82.43 1.1.75.27.34.43.73.48 1.19h7.43c-.09-2.38-1.1-4.23-2.97-5.58s-4.43-2.01-7.68-2.01c-2.13 0-3.98.27-5.53.85-1.55.57-2.74 1.39-3.57 2.49-.85 1.07-1.26 2.4-1.23 3.95-.02 1.76.55 3.2 1.69 4.32s2.86 1.9 5.14 2.29l3.98.71c.87.16 1.51.37 1.92.62.43.25.64.59.64 1.01 0 .48-.25.85-.73 1.1s-1.1.37-1.83.37c-.91 0-1.67-.18-2.29-.57-.59-.39-.94-.94-1.05-1.65h-8c.23 2.31 1.3 4.16 3.22 5.55 1.94 1.42 4.62 2.1 8.05 2.1 2.08 0 3.93-.32 5.55-.94 1.62-.64 2.9-1.55 3.84-2.72.94-1.19 1.42-2.58 1.42-4.16 0-1.69-.57-3.01-1.69-3.99zm34.97-6.45c-.82-1.69-1.92-2.93-3.27-3.73-1.33-.78-2.74-1.17-4.23-1.17-1.1 0-2.08.18-2.93.57-.82.39-1.53.89-2.1 1.53-.55.64-.98 1.35-1.28 2.1h-.18v-3.93h-8v30.86h8.07v-12.09h.11c.32.75.75 1.44 1.33 2.06.59.59 1.3 1.05 2.1 1.42.85.34 1.78.5 2.83.5 1.6 0 3.06-.41 4.39-1.26 1.35-.85 2.42-2.1 3.22-3.82.8-1.69 1.21-3.84 1.21-6.45.01-2.68-.43-4.88-1.27-6.59zm-7.46 9.49c-.27.78-.66 1.39-1.19 1.83-.53.41-1.14.62-1.9.62-.73 0-1.37-.21-1.9-.64s-.94-1.05-1.23-1.85c-.27-.8-.43-1.74-.43-2.83 0-1.1.16-2.06.43-2.83.3-.8.71-1.42 1.23-1.83.53-.43 1.17-.64 1.9-.64.75 0 1.37.21 1.9.64.53.41.91 1.03 1.19 1.83.3.78.43 1.74.43 2.83.01 1.11-.13 2.07-.43 2.87zm31.84-9.92c-.46-.89-1.14-1.67-2.03-2.33-.91-.66-1.99-1.19-3.27-1.55-1.28-.39-2.72-.57-4.32-.57-2.24 0-4.09.34-5.58 1.05-1.49.69-2.63 1.6-3.41 2.77-.78 1.14-1.21 2.4-1.3 3.77h7.43c.09-.69.37-1.21.85-1.53.5-.34 1.12-.5 1.9-.5.69 0 1.28.14 1.71.46.46.32.69.75.69 1.35v.05c0 .43-.18.78-.53 1.05-.34.25-.89.46-1.67.59-.75.14-1.76.25-3.02.34-1.17.09-2.24.27-3.25.57-.98.3-1.85.73-2.61 1.28-.75.55-1.35 1.26-1.76 2.15-.41.87-.62 1.92-.62 3.13 0 1.49.3 2.72.91 3.68.64.98 1.49 1.69 2.58 2.17 1.1.46 2.38.71 3.79.71.98 0 1.87-.11 2.67-.37.82-.23 1.55-.59 2.17-1.12.64-.53 1.19-1.19 1.65-2.03h.18v3.15h7.52v-15.36c.03-1.06-.2-2.02-.68-2.91zm-7.29 10.33c0 .66-.16 1.26-.5 1.74s-.8.82-1.33 1.1c-.55.25-1.12.37-1.74.37-.69 0-1.23-.16-1.67-.5-.43-.32-.66-.8-.66-1.42 0-.39.09-.75.27-1.05.21-.32.48-.59.87-.8.41-.23.91-.39 1.55-.48.32-.07.62-.11.91-.16.3-.07.57-.14.85-.21.27-.07.53-.14.75-.21.25-.09.48-.16.69-.25v1.87zm33.85-9.9c-.85-1.69-1.92-2.93-3.27-3.73-1.35-.78-2.74-1.17-4.23-1.17-1.1 0-2.08.18-2.93.57-.82.39-1.53.89-2.1 1.53-.55.64-.98 1.35-1.28 2.1h-.18v-3.93h-8v30.86h8.07v-12.09h.11c.32.75.75 1.44 1.33 2.06.59.59 1.28 1.05 2.1 1.42.82.34 1.78.5 2.83.5 1.58 0 3.06-.41 4.39-1.26 1.35-.85 2.42-2.1 3.22-3.82.8-1.69 1.21-3.84 1.21-6.45.01-2.68-.42-4.88-1.27-6.59zm-7.45 9.49c-.27.78-.66 1.39-1.19 1.83-.53.41-1.14.62-1.9.62-.73 0-1.37-.21-1.92-.64-.53-.43-.91-1.05-1.21-1.85s-.43-1.74-.43-2.83c0-1.1.14-2.06.43-2.83.3-.8.69-1.42 1.21-1.83.55-.43 1.19-.64 1.92-.64.75 0 1.37.21 1.9.64.53.41.91 1.03 1.19 1.83.27.78.43 1.74.43 2.83 0 1.11-.16 2.07-.43 2.87zm51.31-14.29c-.34-.07-.69-.09-1.03-.09-1.21 0-2.24.37-3.15 1.1-.87.73-1.53 1.87-1.94 3.45h-.23v-4.27h-7.82v22.44h8.05v-11.68c0-.87.18-1.6.55-2.24s.85-1.14 1.49-1.49c.62-.37 1.33-.55 2.13-.55.41 0 .91.05 1.51.11.57.07 1.07.16 1.46.3v-6.88c-.33-.08-.65-.15-1.02-.2z"/><path d="m469.13 211.28c-.37.09-.89.23-1.55.39s-1.44.25-2.35.3c-1.85.11-3.41-.09-4.66-.57-1.26-.48-2.22-1.23-2.83-2.29-.64-1.05-.96-2.35-.94-3.91v-10.15h-2.86v-5.85h2.86v-5.37h8.07v5.37h3.86v5.85h-3.86v9.39c0 .3.07.57.16.78.11.21.27.37.5.46.23.11.5.16.87.16.23 0 .53-.02.85-.09s.57-.11.73-.14z"/><path d="m603.48 202.3v-1.87c0-1.78-.27-3.38-.8-4.8s-1.28-2.63-2.24-3.61c-.98-1.01-2.15-1.78-3.52-2.31s-2.93-.78-4.62-.78c-2.31 0-4.32.48-6.03 1.44-1.69.96-3.02 2.31-3.95 4.05-.94 1.74-1.39 3.77-1.39 6.08 0 2.42.46 4.48 1.37 6.22.94 1.74 2.26 3.06 4 3.98 1.74.91 3.79 1.37 6.19 1.37 2.08 0 3.89-.3 5.44-.94 1.55-.62 2.81-1.51 3.75-2.65s1.55-2.51 1.81-4.07h-7.38c-.14.43-.39.78-.73 1.1-.32.27-.71.5-1.19.66-.46.16-.96.23-1.51.23-.8 0-1.49-.16-2.06-.48s-1.01-.75-1.3-1.33c-.3-.57-.46-1.21-.46-1.92v-.37zm-14.1-6.15c.32-.48.75-.87 1.3-1.14s1.14-.41 1.81-.41c.66 0 1.28.14 1.81.41s.96.66 1.26 1.17c.32.48.48 1.05.5 1.69h-7.2c.01-.67.2-1.24.52-1.72z"/><path d="m686.65 140.06c-.62-1.71-1.6-3.25-2.95-4.62-1.33-1.37-3.04-2.58-5.14-3.61-2.08-1.01-4.59-1.83-7.54-2.47l-4.37-.94c-1.26-.25-2.35-.55-3.27-.87-.94-.34-1.67-.71-2.26-1.1-.59-.41-1.03-.87-1.3-1.37-.25-.53-.37-1.1-.34-1.74.02-.78.25-1.49.71-2.08.46-.62 1.14-1.1 2.08-1.44.94-.37 2.17-.55 3.66-.55 2.33 0 4.07.5 5.21 1.46 1.17.96 1.83 2.33 1.97 4.05h13.8c-.02-3.47-.87-6.51-2.58-9.12s-4.11-4.64-7.25-6.06c-3.15-1.44-6.86-2.17-11.15-2.17-4.21 0-7.93.71-11.2 2.13-3.22 1.42-5.76 3.41-7.61 5.97-1.81 2.51-2.72 5.46-2.7 8.85-.02 4.16 1.33 7.43 4.02 9.85 2.72 2.38 6.45 4.09 11.15 5.12l5.3 1.14c1.97.43 3.52.89 4.69 1.39 1.17.48 1.99 1.03 2.49 1.67.53.59.8 1.3.82 2.13-.02.87-.3 1.65-.85 2.31-.53.69-1.33 1.21-2.35 1.58-1.05.39-2.33.57-3.89.57-1.83 0-3.41-.27-4.73-.85-1.33-.57-2.35-1.42-3.09-2.51-.71-1.12-1.12-2.49-1.21-4.11h-13.71c.02 4.46.96 8.11 2.86 10.97 1.9 2.83 4.57 4.94 8 6.31 3.45 1.37 7.47 2.06 12.11 2.06 4.5 0 8.34-.64 11.54-1.9 3.22-1.28 5.69-3.11 7.43-5.53 1.74-2.45 2.61-5.39 2.63-8.89-.02-2.04-.34-3.91-.98-5.63zm-101.23-20.25c-2.31-4.07-5.42-7.13-9.33-9.21-3.91-2.1-8.27-3.15-13.1-3.15-4.85 0-9.21 1.05-13.14 3.15-3.89 2.08-6.99 5.14-9.28 9.21-2.29 4.05-3.43 9.05-3.43 14.97 0 5.87 1.14 10.86 3.43 14.92 2.29 4.05 5.39 7.13 9.28 9.26 3.93 2.08 8.3 3.13 13.14 3.13 4.82 0 9.19-1.03 13.1-3.11 3.91-2.1 7.02-5.17 9.33-9.23 2.31-4.07 3.45-9.05 3.45-14.97 0-5.91-1.14-10.92-3.45-14.97zm-12.66 23.04c-.85 2.19-2.08 3.84-3.73 4.98-1.62 1.12-3.63 1.69-6.03 1.69-2.38 0-4.39-.57-6.03-1.69-1.65-1.14-2.88-2.79-3.73-4.98-.82-2.19-1.23-4.89-1.23-8.07 0-3.2.41-5.87 1.23-8.07.85-2.19 2.08-3.86 3.73-4.98 1.65-1.14 3.66-1.71 6.03-1.71 2.4 0 4.41.57 6.03 1.71 1.65 1.12 2.88 2.79 3.73 4.98s1.26 4.87 1.26 8.07c0 3.18-.41 5.88-1.26 8.07zm-41.89-2.79c-.62-1.71-1.6-3.25-2.93-4.62s-3.04-2.58-5.14-3.61c-2.1-1.01-4.62-1.83-7.57-2.47l-4.37-.94c-1.26-.25-2.35-.55-3.27-.87-.91-.34-1.67-.71-2.26-1.1-.59-.41-1.01-.87-1.3-1.37-.25-.53-.37-1.1-.32-1.74 0-.78.25-1.49.69-2.08.46-.62 1.14-1.1 2.08-1.44.96-.37 2.17-.55 3.66-.55 2.35 0 4.09.5 5.23 1.46 1.17.96 1.81 2.33 1.94 4.05h13.83c-.02-3.47-.89-6.51-2.61-9.12-1.69-2.61-4.11-4.64-7.25-6.06-3.13-1.44-6.86-2.17-11.15-2.17-4.21 0-7.93.71-11.18 2.13s-5.78 3.41-7.61 5.97c-1.83 2.51-2.72 5.46-2.7 8.85-.02 4.16 1.3 7.43 4.02 9.85 2.72 2.38 6.42 4.09 11.13 5.12l5.3 1.14c1.97.43 3.54.89 4.71 1.39 1.14.48 1.99 1.03 2.49 1.67.5.59.78 1.3.8 2.13-.02.87-.3 1.65-.82 2.31-.55.69-1.33 1.21-2.38 1.58-1.03.39-2.33.57-3.86.57-1.83 0-3.43-.27-4.75-.85s-2.33-1.42-3.06-2.51c-.73-1.12-1.14-2.49-1.23-4.11h-13.71c.02 4.46.98 8.11 2.86 10.97 1.92 2.83 4.57 4.94 8 6.31 3.45 1.37 7.5 2.06 12.11 2.06 4.5 0 8.37-.64 11.56-1.9 3.22-1.28 5.69-3.11 7.43-5.53 1.71-2.45 2.61-5.39 2.61-8.89 0-2.04-.34-3.91-.98-5.63zm-48.71 0c-.62-1.71-1.6-3.25-2.93-4.62-1.35-1.37-3.06-2.58-5.14-3.61-2.1-1.01-4.62-1.83-7.57-2.47l-4.37-.94c-1.26-.25-2.35-.55-3.27-.87-.91-.34-1.67-.71-2.26-1.1-.59-.41-1.03-.87-1.3-1.37-.25-.53-.37-1.1-.34-1.74.02-.78.25-1.49.71-2.08.46-.62 1.14-1.1 2.08-1.44.96-.37 2.17-.55 3.66-.55 2.33 0 4.09.5 5.23 1.46s1.81 2.33 1.94 4.05h13.8c0-3.47-.87-6.51-2.58-9.12s-4.11-4.64-7.25-6.06c-3.13-1.44-6.86-2.17-11.15-2.17-4.21 0-7.93.71-11.2 2.13-3.22 1.42-5.76 3.41-7.61 5.97-1.81 2.51-2.7 5.46-2.7 8.85 0 4.16 1.33 7.43 4.02 9.85 2.72 2.38 6.45 4.09 11.15 5.12l5.3 1.14c1.97.43 3.54.89 4.69 1.39 1.17.48 2.01 1.03 2.49 1.67.53.59.8 1.3.82 2.13-.02.87-.3 1.65-.85 2.31-.53.69-1.33 1.21-2.35 1.58-1.05.39-2.33.57-3.86.57-1.85 0-3.43-.27-4.75-.85-1.33-.57-2.35-1.42-3.06-2.51-.73-1.12-1.14-2.49-1.23-4.11h-13.71c.02 4.46.98 8.11 2.86 10.97 1.92 2.83 4.57 4.94 8 6.31 3.45 1.37 7.47 2.06 12.11 2.06 4.5 0 8.34-.64 11.54-1.9 3.22-1.28 5.71-3.11 7.43-5.53 1.74-2.45 2.61-5.39 2.63-8.89-.02-2.04-.34-3.91-.98-5.63zm-63.51-31.88v53.18h14.44v-53.18zm-22.22 37.07c-.48.89-1.12 1.67-1.9 2.31s-1.69 1.12-2.74 1.49c-1.05.32-2.26.48-3.59.48-2.33 0-4.34-.55-6.01-1.62-1.65-1.12-2.93-2.77-3.82-4.94-.87-2.22-1.28-4.94-1.28-8.18 0-3.09.41-5.74 1.26-7.93.87-2.19 2.13-3.89 3.79-5.07 1.69-1.17 3.73-1.76 6.15-1.76 1.39 0 2.63.21 3.73.59 1.1.39 2.01.94 2.79 1.67.78.71 1.37 1.55 1.81 2.54.46 1.01.73 2.1.82 3.31h14.65c-.27-3.31-1.05-6.24-2.35-8.8-1.3-2.58-3.02-4.73-5.14-6.47-2.13-1.78-4.62-3.11-7.43-4.05-2.83-.91-5.92-1.37-9.28-1.37-4.78 0-9.1 1.05-12.98 3.15-3.89 2.08-6.95 5.14-9.23 9.21-2.29 4.05-3.43 9.05-3.43 14.97 0 5.87 1.1 10.86 3.34 14.92 2.26 4.07 5.3 7.15 9.17 9.26 3.89 2.08 8.27 3.13 13.14 3.13 3.91 0 7.31-.59 10.26-1.78 2.95-1.21 5.42-2.79 7.41-4.73 2.01-1.97 3.57-4.11 4.64-6.45 1.1-2.33 1.74-4.64 1.9-6.88l-14.65-.11c-.18 1.15-.53 2.18-1.03 3.11zm-40.48-5.19c-.62-1.71-1.6-3.25-2.93-4.62-1.35-1.37-3.06-2.58-5.14-3.61-2.1-1.01-4.62-1.83-7.57-2.47l-4.37-.94c-1.26-.25-2.35-.55-3.27-.87-.91-.34-1.67-.71-2.26-1.1-.59-.41-1.03-.87-1.3-1.37-.25-.53-.37-1.1-.34-1.74.02-.78.25-1.49.71-2.08.46-.62 1.14-1.1 2.08-1.44.96-.37 2.17-.55 3.66-.55 2.35 0 4.09.5 5.23 1.46s1.81 2.33 1.94 4.05h13.8c0-3.47-.87-6.51-2.58-9.12-1.69-2.61-4.11-4.64-7.25-6.06-3.13-1.44-6.86-2.17-11.15-2.17-4.21 0-7.93.71-11.18 2.13s-5.78 3.41-7.61 5.97c-1.83 2.51-2.72 5.46-2.72 8.85 0 4.16 1.33 7.43 4.05 9.85 2.7 2.38 6.42 4.09 11.13 5.12l5.3 1.14c1.97.43 3.54.89 4.71 1.39 1.14.48 1.99 1.03 2.49 1.67.5.59.78 1.3.8 2.13-.02.87-.3 1.65-.85 2.31-.53.69-1.3 1.21-2.35 1.58-1.03.39-2.33.57-3.86.57-1.85 0-3.43-.27-4.75-.85-1.33-.57-2.33-1.42-3.06-2.51-.73-1.12-1.14-2.49-1.23-4.11h-13.71c.02 4.46.98 8.11 2.86 10.97 1.92 2.83 4.57 4.94 8 6.31 3.45 1.37 7.5 2.06 12.11 2.06 4.5 0 8.34-.64 11.56-1.9 3.2-1.28 5.69-3.11 7.43-5.53 1.71-2.45 2.61-5.39 2.61-8.89 0-2.04-.35-3.91-.99-5.63z"/><path d="m629.21 141.55c2.79-1.35 4.94-3.22 6.49-5.65 1.71-2.63 2.56-5.83 2.56-9.64 0-3.77-.82-7.02-2.47-9.71-1.65-2.7-3.95-4.78-6.9-6.22-2.97-1.44-6.42-2.15-10.38-2.15h-22.95v53.18h14.42v-17.55h5.03l9.33 17.55h15.68zm-19.22-21.83h5.1c1.69 0 3.15.23 4.34.69 1.21.46 2.13 1.17 2.79 2.13.64.96.98 2.19.98 3.73 0 1.51-.34 2.72-.98 3.66-.66.94-1.58 1.62-2.79 2.06-1.19.41-2.65.62-4.34.62h-5.1z"/><path d="m804.21 560.44c.27.53.39 1.08.35 1.61s-.23 1.04-.57 1.53c-.39.56-.92.95-1.54 1.16-.64.19-1.38.18-2.21-.04-.84-.23-1.75-.69-2.76-1.4s-1.76-1.4-2.26-2.11c-.5-.72-.75-1.39-.79-2.06s.17-1.28.56-1.84c.52-.75 1.19-1.18 2.01-1.27.83-.11 1.78.13 2.8.7l4.29-6.12c-1.59-1.11-3.24-1.71-4.92-1.82-1.71-.11-3.35.28-4.92 1.16-1.57.85-3 2.17-4.27 3.99-1.39 1.98-2.19 3.96-2.38 5.95-.21 1.97.15 3.85 1.04 5.61.9 1.75 2.27 3.29 4.14 4.6 1.89 1.32 3.81 2.08 5.78 2.35 1.96.23 3.83-.08 5.61-.96 1.8-.86 3.39-2.29 4.78-4.27 1.27-1.82 2.04-3.62 2.3-5.39s.07-3.44-.63-4.99-1.86-2.92-3.46-4.07l-4.29 6.12c.61.49 1.06 1 1.34 1.56zm-18.56 9.32c-1.95-.25-3.83.05-5.61.92-1.8.86-3.39 2.29-4.79 4.29-1.39 1.98-2.19 3.96-2.38 5.95-.21 1.97.15 3.85 1.04 5.61.9 1.75 2.27 3.29 4.14 4.6 1.89 1.32 3.81 2.08 5.78 2.35 1.96.23 3.83-.08 5.61-.96 1.8-.86 3.39-2.29 4.78-4.27 1.4-2 2.2-3.98 2.39-5.97.21-1.97-.13-3.83-1.03-5.58-.9-1.78-2.29-3.31-4.18-4.63-1.88-1.3-3.79-2.08-5.75-2.31zm3.22 11.1c.54.71.86 1.41.94 2.08.09.67-.05 1.27-.45 1.83-.42.6-.96.97-1.62 1.12-.68.17-1.44.11-2.29-.15s-1.75-.72-2.71-1.39c-.97-.68-1.72-1.37-2.24-2.07-.55-.72-.86-1.41-.93-2.1-.09-.67.08-1.31.5-1.91.39-.56.91-.9 1.57-1.05s1.41-.1 2.28.17c.83.25 1.73.71 2.71 1.39.96.68 1.7 1.37 2.24 2.08zm-21.1 4.95c-.25.24-.47.51-.68.81-.68.97-.99 2.04-.9 3.19s.68 2.34 1.73 3.58l-.13.19-3.5-2.45-4.5 6.42 18.39 12.87 4.63-6.61-9.59-6.71c-.69-.48-1.21-1.07-1.5-1.72-.33-.65-.45-1.35-.4-2.06.09-.72.34-1.41.79-2.04.25-.36.56-.75.94-1.18.4-.45.77-.78 1.11-1.03l-5.64-3.95c-.26.2-.52.44-.75.69zm-6.37 28.75c-1.47.34-3.02 1.32-4.68 2.97l-3.28 3.25c-.61.63-1.13.97-1.52 1.06-.41.07-.74.01-1.02-.18-.37-.26-.54-.66-.46-1.22s.31-1.12.7-1.68c.3-.43.66-.79 1.08-1.03.39-.28.81-.44 1.25-.47.42-.04.85.06 1.25.29l4.26-6.08c-2.01-1.27-4.11-1.54-6.29-.78-2.16.77-4.19 2.48-6.05 5.14-1.22 1.74-2.04 3.43-2.46 5.03s-.43 3.05 0 4.35c.39 1.31 1.24 2.41 2.53 3.28 1.43 1.03 2.94 1.39 4.51 1.09 1.57-.29 3.17-1.27 4.82-2.9l2.84-2.86c.63-.62 1.16-1.03 1.61-1.22.46-.21.85-.18 1.21.07.37.26.53.68.46 1.22s-.31 1.12-.73 1.72c-.52.75-1.11 1.26-1.78 1.54-.66.26-1.3.23-1.95-.08l-4.59 6.55c2 1.12 4.14 1.31 6.4.55 2.26-.79 4.37-2.58 6.34-5.38 1.19-1.7 1.99-3.4 2.4-5.1s.39-3.27-.03-4.71-1.28-2.63-2.59-3.55c-1.36-.95-2.77-1.25-4.23-.87zm-28.8 29.13c-.99-.14-2.04-.03-3.08.33-1.07.34-2.13.93-3.17 1.77-1.02.82-2.03 1.9-2.95 3.21-1.27 1.82-2.05 3.56-2.34 5.17s-.18 3.08.33 4.39c.49 1.29 1.27 2.37 2.34 3.23l4.26-6.08c-.53-.48-.77-1.01-.77-1.6.01-.58.22-1.19.66-1.82.41-.58.87-.96 1.38-1.13.51-.2 1.01-.13 1.48.2l.06.04c.36.25.53.6.55 1 .01.43-.15 1.01-.47 1.71-.33.72-.8 1.62-1.44 2.7-.58.99-1.06 1.99-1.39 2.99-.32.98-.48 1.92-.46 2.86.04.95.29 1.82.75 2.67.48.84 1.22 1.61 2.23 2.31 1.22.85 2.4 1.32 3.55 1.34 1.14.05 2.24-.25 3.23-.86 1.02-.62 1.94-1.54 2.76-2.7.56-.81.98-1.6 1.25-2.39.28-.81.39-1.63.34-2.44-.06-.83-.31-1.67-.74-2.5l.1-.15 2.58 1.81 4.33-6.18-12.6-8.82c-.83-.59-1.77-.94-2.77-1.06zm4.26 11.89c.56.39.94.85 1.13 1.41.2.56.25 1.12.14 1.72-.11.59-.32 1.14-.68 1.65-.38.54-.86.91-1.37 1.08-.53.16-1.04.08-1.56-.28-.32-.22-.55-.49-.7-.83-.14-.35-.18-.74-.14-1.19s.21-.97.49-1.53c.15-.29.28-.56.39-.84s.25-.55.34-.8c.1-.26.19-.51.25-.75.09-.25.14-.48.19-.71zm-10.16 12.08-1.54-1.07c-1.46-1.02-2.93-1.72-4.39-2.1-1.48-.4-2.87-.48-4.26-.25s-2.67.75-3.89 1.57-2.32 1.92-3.29 3.3c-1.34 1.91-2.1 3.83-2.28 5.77-.18 1.97.17 3.83 1.05 5.59.87 1.75 2.27 3.29 4.16 4.62 1.98 1.39 3.95 2.21 5.91 2.44 1.94.22 3.79-.11 5.54-.98 1.75-.9 3.3-2.32 4.68-4.29 1.19-1.7 1.97-3.37 2.35-4.99.37-1.64.36-3.18-.04-4.6-.39-1.44-1.15-2.7-2.28-3.8l-4.22 6.03c.25.37.4.78.46 1.22.05.45.01.9-.15 1.37-.13.47-.34.93-.66 1.38-.46.66-.98 1.13-1.57 1.41-.58.27-1.2.36-1.85.29-.62-.07-1.22-.33-1.82-.75l-.28-.2zm-13.13 8.02c-.22-.57-.27-1.13-.18-1.74.06-.6.3-1.19.67-1.71.39-.56.85-.97 1.39-1.23.53-.27 1.09-.41 1.66-.37.6.03 1.15.19 1.67.56l-4.12 5.88c-.5-.39-.88-.85-1.09-1.39zm-8.96 8.74c-1.86-.3-3.52-.12-4.93.54-1.42.63-2.55 1.56-3.39 2.76-.64.92-1.04 1.84-1.19 2.74-.19.9-.16 1.78.05 2.6.2.84.51 1.58.96 2.26l-.07.09-9.32-6.53-4.63 6.61 24.51 17.16 4.6-6.57-3.01-2.11.09-.13c.8.17 1.61.21 2.44.06.81-.13 1.61-.43 2.37-.91.75-.48 1.44-1.14 2.04-2 .92-1.31 1.4-2.76 1.49-4.32.08-1.59-.35-3.2-1.28-4.83-.95-1.64-2.47-3.21-4.58-4.69-2.23-1.55-4.26-2.47-6.15-2.73zm3.48 11.53c.51.66.76 1.34.82 2.02.04.67-.13 1.3-.55 1.9-.43.62-.99 1.01-1.64 1.19-.66.18-1.4.16-2.21-.04-.81-.23-1.66-.66-2.56-1.29-.92-.64-1.61-1.29-2.1-1.98-.48-.7-.74-1.38-.79-2.06-.04-.67.14-1.32.58-1.94.42-.6.96-.97 1.6-1.17.66-.18 1.38-.18 2.18.08.83.22 1.67.64 2.59 1.28.89.64 1.59 1.31 2.08 2.01z"/><path d="m757.78 638.89c-.12.36-.31.87-.57 1.5-.25.63-.61 1.36-1.1 2.13-.99 1.57-2.03 2.74-3.13 3.47-1.11.75-2.3 1.1-3.5 1.01-1.23-.08-2.48-.56-3.76-1.49l-8.29-5.81-1.64 2.34-4.79-3.36 1.64-2.34-4.4-3.08 4.63-6.61 4.4 3.08 2.22-3.16 4.79 3.36-2.22 3.16 7.68 5.37c.26.18.49.29.75.33.22.01.44-.03.66-.15.21-.13.4-.33.61-.63.13-.19.28-.44.43-.73.13-.3.23-.53.29-.69z"/><path d="m829.98 536.46-5.3 7.56-9.1-.79.56 1.87 5.22 3.66-4.62 6.61-24.51-17.16 4.63-6.61 12.3 8.61.17-.24-3.07-8.76 5.2-7.44 3.69 11.91z"/><path d="m731.68 516.74-9.53-6.67-21.98 31.4 43.57 30.51 21.92-31.3-9.53-6.67-13.65 19.49-7.49-5.24 12.59-17.97-9.53-6.67-12.59 17.97-7.49-5.24zm-28.69 36.19c-3.25-.26-6.37.37-9.33 1.89-2.98 1.54-5.59 3.92-7.86 7.16l-13.16 18.8 43.57 30.51 8.27-11.81-12.94-9.06 4.59-6.55c2.33-3.33 3.75-6.67 4.24-10 .52-3.37.11-6.53-1.22-9.5-1.3-3-3.51-5.58-6.64-7.77-3.09-2.18-6.25-3.39-9.52-3.67zm3.54 19.05c.52 1.17.71 2.42.5 3.75-.2 1.31-.79 2.68-1.76 4.07l-2.92 4.18-12-8.4 2.92-4.17c.97-1.39 2.05-2.41 3.22-3.05 1.16-.66 2.36-.94 3.64-.86 1.25.09 2.51.56 3.75 1.42 1.23.87 2.1 1.89 2.65 3.06z"/><path d="m772.88 495.75c.5-3.03.19-5.89-.9-8.56-1.16-2.88-3.32-5.42-6.45-7.61-3.09-2.16-6.2-3.34-9.37-3.55-3.15-.2-6.15.49-9.03 2.1-2.87 1.59-5.43 4.01-7.7 7.25l-13.17 18.82 43.57 30.51 8.29-11.83-14.38-10.07 2.87-4.1 19.73 2.43 9.01-12.86zm-28.91 3.23 2.92-4.18c.97-1.39 1.98-2.43 3.07-3.15 1.05-.74 2.17-1.07 3.33-1.05 1.17.01 2.36.45 3.6 1.32s2.06 1.84 2.45 2.92c.4 1.06.42 2.19.08 3.43s-1 2.54-1.97 3.92l-2.92 4.18z"/><path d="m659.62 599.37-11.31 16.16 33.49 44.9 8.94-12.77-6.58-8.37 10.05-14.36 10.12 3.32 8.93-12.75zm17.55 31.07-11.36-14.42.25-.36 17.44 5.74z"/><path d="m645.89 634.48c-3.25-.26-6.37.37-9.35 1.91-2.96 1.52-5.58 3.91-7.85 7.14l-13.17 18.82 43.57 30.51 8.29-11.83-12.94-9.06 4.59-6.55c2.32-3.31 3.73-6.65 4.24-10 .51-3.36.11-6.53-1.22-9.5-1.31-2.98-3.51-5.58-6.64-7.77-3.09-2.18-6.26-3.39-9.52-3.67zm3.52 19.07c.53 1.15.72 2.4.51 3.73s-.79 2.68-1.76 4.07l-2.92 4.17-12-8.4 2.92-4.17c.97-1.39 2.04-2.39 3.22-3.05 1.16-.66 2.36-.94 3.63-.84 1.26.07 2.51.56 3.75 1.42 1.23.88 2.12 1.89 2.65 3.07z"/><path d="m347.78 636.96 29.7 1.13-9.65-13.78-26.78-.78-.42-.6 17.6-12.32-8.29-11.83-43.57 30.51 8.29 11.83 11.23-7.87 7.85.33-9.49 21.24 9.88 14.12zm-40.92-35.13c-1.02.13-2.01.04-2.98-.23s-1.91-.73-2.79-1.39c-.87-.68-1.71-1.57-2.47-2.65-1.34-1.91-2.04-3.87-2.09-5.85-.06-2 .56-3.99 1.85-5.96 1.3-1.97 3.28-3.89 5.96-5.76 2.53-1.77 4.92-2.94 7.2-3.51 2.31-.56 4.42-.47 6.33.2 1.94.7 3.59 2.06 4.98 4.05.79 1.12 1.34 2.24 1.64 3.37.31 1.12.39 2.18.23 3.24-.13 1.04-.49 2.01-1.04 2.93-.54.94-1.28 1.79-2.21 2.58l8.4 12c2.53-2.13 4.5-4.46 5.84-6.99 1.35-2.54 2.13-5.17 2.35-7.92s-.09-5.55-.97-8.39c-.86-2.83-2.27-5.64-4.2-8.39-2.74-3.91-6.08-6.85-10.01-8.84-3.92-1.97-8.22-2.73-12.86-2.27-4.62.45-9.36 2.37-14.21 5.77-4.83 3.38-8.27 7.16-10.33 11.31-2.03 4.19-2.79 8.45-2.31 12.8.51 4.39 2.16 8.59 4.95 12.57 2.24 3.2 4.69 5.67 7.37 7.37 2.66 1.73 5.37 2.85 8.12 3.35 2.76.52 5.42.56 7.94.14 2.54-.47 4.78-1.26 6.74-2.41l-8.33-12.05c-1.03.51-2.07.81-3.1.93zm-4.5-50.73c2.02-4.21 2.77-8.52 2.22-12.93-.54-4.39-2.18-8.57-4.93-12.51-2.78-3.97-6.16-6.96-10.1-8.97-3.95-2.01-8.24-2.77-12.9-2.32-4.62.45-9.36 2.37-14.21 5.77-4.83 3.38-8.26 7.18-10.28 11.38-1.99 4.21-2.75 8.51-2.23 12.92s2.18 8.61 4.95 12.57c2.75 3.93 6.12 6.9 10.06 8.91 3.96 2.03 8.27 2.8 12.89 2.36 4.66-.44 9.41-2.38 14.26-5.77 4.86-3.41 8.28-7.2 10.27-11.41zm-26.13 2.84c-2.26.55-4.34.5-6.22-.19-1.85-.69-3.47-2.01-4.83-3.95-1.38-1.97-2.06-3.94-2.09-5.93.01-1.98.66-3.95 1.94-5.91 1.34-1.95 3.3-3.82 5.92-5.65 2.6-1.82 5.05-3.03 7.3-3.6 2.3-.55 4.37-.49 6.22.19 1.88.69 3.5 2.01 4.88 3.98 1.36 1.95 2.05 3.92 2.04 5.91.03 1.99-.63 3.96-1.94 5.91-1.29 1.94-3.27 3.82-5.87 5.64-2.63 1.82-5.05 3.02-7.35 3.6z"/><path d="m248.29 511.73c2.67 1.51 5.47 2.2 8.35 2.08 3.12-.09 6.24-1.25 9.37-3.44 3.09-2.16 5.26-4.69 6.54-7.59 1.27-2.89 1.63-5.97 1.1-9.23-.51-3.24-1.91-6.47-4.18-9.71l-13.17-18.82-43.57 30.51 8.29 11.83 14.38-10.07 2.87 4.1-9.02 17.73 8.99 12.84zm6.85-28.27 2.92 4.18c.97 1.39 1.61 2.7 1.91 3.96.34 1.24.26 2.41-.15 3.48-.41 1.09-1.22 2.08-2.46 2.95s-2.44 1.29-3.59 1.29c-1.13.01-2.22-.34-3.25-1.1-1.05-.74-2.04-1.8-3.02-3.19l-2.92-4.18z"/><path d="m173.08 495.5c.9-1.66 1.3-3.25 1.18-4.81s-.6-2.93-1.45-4.15c-.64-.92-1.36-1.59-2.16-2.06-.77-.46-1.61-.74-2.46-.84s-1.65-.04-2.44.14l-.07-.09 9.32-6.53-4.63-6.61-24.51 17.16 4.59 6.55 3.01-2.11.1.15c-.43.69-.75 1.44-.91 2.25-.15.83-.15 1.66.05 2.54.19.87.58 1.74 1.18 2.6.92 1.31 2.11 2.26 3.56 2.89 1.47.62 3.13.77 4.98.45 1.86-.33 3.86-1.22 5.97-2.7 2.25-1.56 3.79-3.17 4.69-4.83zm-12.02-.68c-.81.23-1.52.26-2.18.08-.64-.19-1.19-.59-1.61-1.19s-.6-1.25-.56-1.95c.05-.68.32-1.37.8-2.04.48-.7 1.17-1.35 2.07-1.98.92-.64 1.76-1.07 2.59-1.28.81-.23 1.54-.24 2.19-.06.65.21 1.21.61 1.63 1.21s.6 1.25.56 1.92c-.05.68-.32 1.34-.82 2.02s-1.19 1.33-2.1 1.98c-.89.62-1.76 1.06-2.57 1.29zm40.72 40.9c.45-.9.71-1.89.73-3.02.05-1.12-.14-2.31-.57-3.56-.43-1.26-1.09-2.56-2.01-3.87-1.28-1.83-2.65-3.14-4.07-3.98-1.43-.81-2.82-1.2-4.22-1.17-1.38.02-2.66.38-3.84 1.1l4.25 6.07c.65-.31 1.22-.38 1.77-.18.54.21 1.05.63 1.5 1.27.39.56.59 1.12.59 1.68.02.54-.24.98-.71 1.3l-.06.04c-.36.25-.73.31-1.13.18-.4-.14-.89-.47-1.46-1.01-.53-.55-1.22-1.3-2.01-2.27-.74-.9-1.51-1.68-2.33-2.33s-1.66-1.13-2.54-1.43c-.89-.27-1.81-.35-2.76-.19-.96.14-1.94.58-2.95 1.28-1.22.85-2.04 1.82-2.48 2.88-.43 1.06-.53 2.19-.28 3.35.24 1.17.77 2.33 1.6 3.51.56.8 1.17 1.47 1.81 1.99.66.54 1.38.9 2.16 1.14.8.22 1.67.28 2.61.18l.09.13-2.58 1.81 4.33 6.18 12.6-8.82c.85-.61 1.51-1.35 1.96-2.26zm-12.62-.06c-.56.39-1.13.57-1.71.58-.59-.01-1.15-.17-1.67-.48-.51-.29-.95-.68-1.3-1.18-.39-.56-.56-1.12-.56-1.67.01-.54.29-.98.81-1.35.32-.22.65-.34 1.02-.38.37-.03.74.07 1.15.25.42.21.84.53 1.27.98.22.24.44.47.67.68.23.2.42.4.63.59s.41.35.62.49c.2.17.41.3.6.42zm30.15 37.09c.18-1.49-.24-3.29-1.2-5.41l-1.95-4.22c-.37-.77-.53-1.39-.47-1.79.07-.41.24-.7.53-.87.36-.28.81-.28 1.3-.02.48.25.93.66 1.34 1.24.3.43.5.88.58 1.35.13.47.13.91.01 1.33-.09.43-.34.79-.7 1.07l4.26 6.08c1.89-1.44 2.87-3.32 2.88-5.65.02-2.28-.88-4.77-2.74-7.43-1.22-1.74-2.52-3.09-3.88-4.03-1.36-.95-2.72-1.45-4.1-1.51-1.35-.06-2.67.37-3.95 1.26-1.44 1.01-2.29 2.3-2.57 3.86-.26 1.58.1 3.42 1.08 5.52l1.72 3.65c.38.82.58 1.46.61 1.95.03.48-.13.85-.48 1.11-.39.24-.82.27-1.31 0-.48-.25-.93-.66-1.37-1.27-.52-.75-.81-1.47-.83-2.18s.22-1.32.74-1.81l-4.6-6.57c-1.74 1.5-2.64 3.44-2.69 5.84-.04 2.37.93 4.99 2.89 7.8 1.19 1.7 2.5 3.02 3.96 3.98 1.45.96 2.94 1.49 4.43 1.59s2.91-.31 4.23-1.21c1.36-.95 2.12-2.18 2.28-3.66zm18.58 26.53c.18-1.49-.24-3.29-1.21-5.43l-1.93-4.2c-.39-.79-.53-1.39-.47-1.79.07-.41.24-.7.52-.89.37-.26.82-.27 1.3-.02.49.27.95.68 1.34 1.24.31.45.52.89.6 1.37.13.47.13.91.01 1.33-.09.43-.34.79-.7 1.07l4.26 6.08c1.89-1.44 2.85-3.34 2.88-5.65.01-2.3-.88-4.77-2.74-7.43-1.23-1.76-2.52-3.09-3.9-4.05-1.35-.93-2.72-1.45-4.09-1.49-1.35-.06-2.67.37-3.95 1.26-1.44 1.01-2.31 2.28-2.57 3.86s.1 3.42 1.08 5.52l1.72 3.65c.37.8.58 1.46.6 1.93.04.5-.12.86-.46 1.13-.39.24-.83.25-1.31 0s-.95-.68-1.37-1.27c-.52-.75-.81-1.47-.84-2.2-.02-.71.23-1.31.74-1.81l-4.59-6.55c-1.74 1.5-2.64 3.44-2.7 5.83-.03 2.39.94 5.01 2.91 7.82 1.18 1.69 2.5 3.02 3.96 3.98 1.45.96 2.94 1.49 4.43 1.59s2.91-.31 4.23-1.21c1.33-.96 2.09-2.19 2.25-3.67zm7.26 17.38c-.59.08-1.13.01-1.62-.2-.49-.22-.9-.57-1.24-1.06-.41-.58-.61-1.19-.58-1.86.04-.67.29-1.34.8-2.04.5-.72 1.24-1.42 2.25-2.13s1.93-1.15 2.77-1.38c.81-.23 1.55-.25 2.19-.06.62.21 1.14.6 1.55 1.18.51.73.69 1.5.51 2.32s-.73 1.63-1.62 2.39l4.29 6.12c1.58-1.13 2.71-2.46 3.38-4.01.69-1.57.88-3.24.6-5-.28-1.79-1.03-3.58-2.29-5.38-1.4-2-3.01-3.42-4.79-4.29s-3.67-1.17-5.61-.92c-1.96.23-3.87 1.01-5.74 2.32-1.89 1.32-3.28 2.85-4.18 4.63-.9 1.75-1.24 3.6-1.03 5.58.19 1.99.99 3.97 2.39 5.97 1.27 1.82 2.7 3.13 4.27 3.99 1.59.87 3.21 1.24 4.91 1.11 1.71-.11 3.38-.75 5.02-1.84l-4.29-6.12c-.68.38-1.32.61-1.94.68zm18.85.64-18.39 12.87 4.63 6.61 18.39-12.87zm11 .67c.15-1.06-.1-2.02-.73-2.92s-1.45-1.47-2.49-1.69c-1.03-.23-1.96-.05-2.8.54-.82.58-1.31 1.39-1.45 2.44-.15 1.06.08 2.03.71 2.93s1.47 1.46 2.51 1.67c1.03.23 1.96.05 2.78-.53.84-.58 1.33-1.4 1.47-2.44zm-1.95 31.53c.18-1.49-.24-3.29-1.2-5.41l-1.95-4.22c-.37-.77-.51-1.37-.47-1.79.09-.4.24-.7.53-.87.36-.28.81-.28 1.3-.02.48.25.93.66 1.34 1.24.3.43.5.88.6 1.37.12.45.12.89.01 1.33-.1.41-.35.78-.7 1.07l4.25 6.07c1.89-1.44 2.87-3.32 2.9-5.63.01-2.3-.9-4.79-2.76-7.44-1.22-1.74-2.52-3.09-3.88-4.03-1.36-.95-2.72-1.45-4.1-1.51-1.35-.06-2.67.37-3.93 1.28-1.45.99-2.31 2.28-2.57 3.86s.1 3.42 1.08 5.52l1.72 3.65c.37.8.57 1.45.6 1.93s-.12.87-.48 1.11c-.37.26-.82.27-1.31 0-.47-.23-.93-.66-1.35-1.26-.54-.77-.82-1.49-.84-2.2s.22-1.32.74-1.81l-4.59-6.55c-1.75 1.48-2.65 3.42-2.7 5.83-.03 2.39.93 4.99 2.89 7.8 1.19 1.7 2.5 3.02 3.96 3.98 1.45.96 2.94 1.49 4.43 1.59 1.51.12 2.92-.29 4.23-1.21 1.34-.96 2.1-2.18 2.25-3.68zm13.87 19.8c.18-1.49-.23-3.27-1.2-5.41l-1.93-4.2c-.39-.79-.53-1.39-.47-1.79.07-.41.24-.7.52-.89.37-.26.81-.28 1.3-.02.49.27.95.68 1.34 1.24.3.43.52.89.6 1.37.12.45.12.89.01 1.33-.1.41-.35.78-.7 1.07l4.26 6.08c1.88-1.46 2.85-3.34 2.88-5.65.01-2.3-.9-4.79-2.76-7.44-1.22-1.74-2.52-3.09-3.88-4.03-1.36-.95-2.72-1.45-4.1-1.51-1.35-.06-2.67.37-3.93 1.28-1.45.99-2.31 2.28-2.57 3.86s.1 3.42 1.08 5.52l1.72 3.65c.37.8.57 1.45.6 1.93s-.12.87-.48 1.11c-.37.26-.82.27-1.3.02s-.95-.68-1.37-1.27c-.52-.75-.82-1.49-.84-2.2s.23-1.31.75-1.81l-4.59-6.55c-1.74 1.5-2.64 3.44-2.7 5.83-.03 2.39.93 4.99 2.89 7.8 1.19 1.7 2.52 3.04 3.96 3.98 1.47.98 2.95 1.51 4.44 1.6 1.49.1 2.91-.31 4.22-1.23 1.34-.94 2.1-2.17 2.25-3.67zm19.6 17.84c.9-1.75 1.26-3.62 1.05-5.59s-.99-3.97-2.39-5.97c-1.39-1.98-2.99-3.4-4.78-4.27-1.78-.87-3.67-1.17-5.63-.94-1.95.25-3.86 1.03-5.73 2.34-1.89 1.32-3.28 2.85-4.19 4.61-.89 1.76-1.23 3.62-1.02 5.6.19 1.99.99 3.97 2.38 5.95 1.4 2 2.99 3.43 4.79 4.29 1.78.87 3.65 1.18 5.59.94 1.98-.24 3.89-1.02 5.78-2.34 1.88-1.33 3.26-2.86 4.15-4.62zm-11.53-.77c-.85.26-1.62.32-2.28.17-.65-.13-1.18-.49-1.57-1.05-.42-.6-.59-1.24-.5-1.91.07-.69.39-1.39.93-2.1s1.28-1.4 2.24-2.07c.97-.68 1.88-1.15 2.71-1.39.85-.26 1.62-.32 2.29-.15.66.15 1.2.52 1.62 1.12.39.56.55 1.18.45 1.83-.09.67-.41 1.37-.94 2.08-.52.7-1.26 1.39-2.24 2.07-.96.67-1.86 1.14-2.71 1.4zm26.8 13.09c-.16-.31-.32-.61-.52-.89-.69-.99-1.6-1.64-2.71-1.95s-2.43-.17-3.96.4l-.13-.19 3.5-2.45-4.5-6.42-18.39 12.87 4.63 6.61 9.59-6.71c.69-.49 1.42-.77 2.13-.82.73-.07 1.42.04 2.07.33.65.33 1.2.8 1.66 1.46.24.34.51.76.79 1.29.27.51.47.98.58 1.38l5.64-3.95c-.08-.33-.22-.65-.38-.96zm3.98 25.34c.18-1.49-.24-3.29-1.2-5.41l-1.95-4.22c-.37-.77-.53-1.39-.47-1.79.07-.41.24-.7.53-.87.36-.28.81-.28 1.3-.02.48.25.93.66 1.34 1.24.3.43.5.88.6 1.37.12.45.12.89 0 1.31-.09.43-.34.79-.69 1.09l4.25 6.07c1.89-1.44 2.87-3.32 2.9-5.63.01-2.3-.9-4.79-2.76-7.44-1.22-1.74-2.52-3.09-3.88-4.03-1.36-.95-2.72-1.45-4.1-1.51-1.35-.06-2.67.37-3.95 1.26-1.44 1.01-2.29 2.3-2.56 3.88-.28 1.56.09 3.4 1.08 5.52l1.71 3.63c.38.82.58 1.46.61 1.95.03.48-.13.85-.48 1.11-.39.24-.82.27-1.31 0-.48-.25-.93-.66-1.37-1.27-.52-.75-.81-1.47-.83-2.18s.22-1.32.75-1.81l-4.6-6.57c-1.74 1.5-2.64 3.44-2.69 5.84-.04 2.37.93 4.99 2.89 7.8 1.19 1.7 2.5 3.02 3.96 3.98 1.45.96 2.94 1.49 4.43 1.59 1.51.12 2.91-.31 4.23-1.21 1.34-.97 2.1-2.2 2.26-3.68z"/><path d="m197.67 561.01c-.3-.23-.7-.57-1.21-1.05-.51-.45-1.05-1.02-1.61-1.74-1.14-1.46-1.88-2.84-2.21-4.15s-.23-2.52.25-3.63c.49-1.13 1.39-2.12 2.7-3l8.29-5.81-1.65-2.36 4.79-3.36 1.65 2.36 4.4-3.08 4.63 6.61-4.4 3.08 2.2 3.15-4.79 3.36-2.2-3.15-7.68 5.37c-.26.18-.44.37-.56.59-.12.19-.12.42-.1.66.06.24.19.51.39.79.14.21.32.42.54.65.25.24.42.4.55.51z"/><path d="m181.27 521.97 1.54-1.07c1.46-1.02 2.63-2.15 3.49-3.39.88-1.26 1.42-2.56 1.68-3.94.27-1.36.21-2.77-.15-4.19s-1.01-2.84-1.98-4.22c-1.32-1.89-2.87-3.26-4.66-4.1-1.77-.85-3.62-1.15-5.58-.92-1.94.22-3.88.99-5.77 2.31-1.98 1.39-3.41 2.98-4.31 4.72-.87 1.75-1.19 3.6-.96 5.56.23 1.93 1.05 3.89 2.43 5.86 1.18 1.68 2.49 3 3.87 3.9 1.43.92 2.87 1.42 4.35 1.56 1.47.11 2.92-.17 4.34-.86l-4.22-6.03c-.43.1-.86.13-1.3.02-.43-.09-.85-.3-1.22-.59-.39-.28-.76-.64-1.08-1.11-.46-.66-.71-1.29-.77-1.94-.07-.65.06-1.27.36-1.84.28-.56.71-1.06 1.31-1.48l.28-.2zm-3.04-15.06c.6-.03 1.14.12 1.68.41.56.28 1.01.69 1.39 1.23s.61 1.11.67 1.71c.09.61.01 1.17-.2 1.7-.23.55-.59 1-1.1 1.38l-4.13-5.9c.54-.34 1.1-.54 1.69-.53z"/><path d="m284.29 823.87c-2.25 3.87-7.25 5.15-11.08 2.82-29.71-18.04-57.34-39.77-82.23-64.66-40.13-40.11-71.64-86.85-93.67-138.91-13.18-31.17-22.64-63.64-28.25-96.87l-10.66 46.65c-.79 3.45-4.22 5.6-7.67 4.81s-5.6-4.22-4.81-7.67l22.39-97.84c.93-4.06 6.42-4.74 8.31-1.04l45.74 89.34c1.61 3.15.37 7.01-2.78 8.62s-7 .36-8.61-2.78l-27.93-54.55c5.03 36.12 14.77 71.4 29.03 105.1 21.22 50.15 51.58 95.18 90.24 133.83 23.99 23.99 50.62 44.92 79.23 62.3 3.71 2.27 4.94 7.09 2.75 10.85z"/><path d="m809.02 762.03c-11.08 11.08-22.76 21.58-34.9 31.38l46.04-13.55c3.39-1 6.94.94 7.94 4.33s-.94 6.94-4.33 7.94l-96.28 28.35c-3.99 1.18-7.27-3.27-4.97-6.74l55.53-83.61c1.95-2.94 5.92-3.74 8.87-1.79l.02.01c2.94 1.95 3.74 5.92 1.79 8.87l-33.86 50.97c15.03-11.45 29.39-24.01 42.84-37.47 38.67-38.65 69.03-83.68 90.24-133.83 20.19-47.71 31.23-98.21 32.87-150.22.14-4.36 3.73-7.81 8.09-7.75 4.47.06 8.04 3.78 7.9 8.25-1.7 54-13.16 106.42-34.12 155.96-22.03 52.05-53.55 98.79-93.67 138.9z"/></g></svg>