<svg width="408" height="189" fill="none" xmlns="http://www.w3.org/2000/svg"><path d="M0 153.631V2.072h65.42c11.248 0 21.09 2.048 29.526 6.142 8.437 4.095 14.998 9.99 19.685 17.687 4.687 7.697 7.031 16.922 7.031 27.677 0 10.854-2.418 20.006-7.253 27.456-4.785 7.45-11.52 13.074-20.203 16.873-8.633 3.798-18.722 5.698-30.267 5.698H24.865v-31.97h30.786c4.834 0 8.954-.592 12.358-1.776 3.454-1.233 6.093-3.182 7.919-5.846 1.874-2.664 2.812-6.142 2.812-10.435 0-4.341-.938-7.869-2.812-10.582-1.826-2.763-4.465-4.785-7.919-6.068-3.404-1.332-7.523-1.998-12.358-1.998H41.146V153.63H0Zm88.804-69.563 37.89 69.563H81.996L44.994 84.068h43.81ZM139.201 153.631V2.072h65.419c11.248 0 21.091 2.22 29.527 6.66 8.436 4.44 14.998 10.682 19.685 18.723 4.687 8.042 7.03 17.44 7.03 28.196 0 10.853-2.417 20.252-7.252 28.195-4.786 7.943-11.52 14.06-20.203 18.353-8.634 4.292-18.723 6.438-30.267 6.438h-39.074v-31.97h30.785c4.835 0 8.955-.838 12.359-2.516 3.453-1.726 6.093-4.168 7.918-7.326 1.875-3.157 2.812-6.882 2.812-11.174 0-4.342-.937-8.042-2.812-11.1-1.825-3.11-4.465-5.477-7.918-7.105-3.404-1.678-7.524-2.516-12.359-2.516h-14.505V153.63h-41.145ZM357.659 49.434c-.395-4.933-2.245-8.781-5.551-11.544-3.256-2.763-8.214-4.144-14.874-4.144-4.243 0-7.721.518-10.435 1.554-2.664.986-4.637 2.343-5.92 4.07-1.283 1.727-1.949 3.7-1.998 5.92-.099 1.825.222 3.478.962 4.958.789 1.431 2.023 2.739 3.7 3.922 1.678 1.135 3.824 2.171 6.438 3.109 2.615.937 5.723 1.776 9.325 2.516l12.432 2.664c8.388 1.776 15.566 4.12 21.535 7.03 5.97 2.911 10.854 6.34 14.653 10.287 3.799 3.897 6.586 8.288 8.363 13.172 1.825 4.885 2.762 10.213 2.812 15.985-.05 9.966-2.541 18.402-7.475 25.309-4.933 6.907-11.988 12.162-21.165 15.763-9.127 3.602-20.104 5.402-32.931 5.402-13.173 0-24.668-1.948-34.486-5.846-9.768-3.898-17.366-9.892-22.793-17.983-5.377-8.14-8.091-18.55-8.14-31.229h39.074c.246 4.637 1.406 8.535 3.478 11.692 2.072 3.158 4.983 5.551 8.732 7.179 3.799 1.628 8.313 2.442 13.543 2.442 4.391 0 8.066-.543 11.026-1.628 2.96-1.086 5.205-2.59 6.735-4.515 1.529-1.924 2.318-4.119 2.368-6.586-.05-2.319-.814-4.341-2.294-6.068-1.431-1.776-3.799-3.355-7.105-4.736-3.305-1.431-7.77-2.763-13.394-3.997l-15.097-3.256c-13.419-2.91-24.002-7.77-31.748-14.578-7.696-6.858-11.519-16.207-11.47-28.048-.049-9.62 2.516-18.032 7.696-25.235 5.23-7.252 12.458-12.901 21.683-16.947C314.613 2.023 325.245 0 337.234 0c12.235 0 22.818 2.047 31.747 6.142 8.93 4.095 15.812 9.867 20.647 17.317 4.884 7.4 7.351 16.059 7.401 25.975h-39.37ZM2.728 188.364v-23.997h10.358c1.78 0 3.34.324 4.675.972 1.336.649 2.375 1.582 3.117 2.801.742 1.218 1.113 2.679 1.113 4.382 0 1.718-.383 3.167-1.148 4.347-.758 1.179-1.824 2.07-3.2 2.671-1.366.602-2.964.903-4.792.903H6.665v-5.062h4.874c.766 0 1.418-.094 1.957-.281.547-.196.965-.504 1.254-.926.296-.422.445-.973.445-1.652 0-.688-.149-1.246-.445-1.676-.29-.437-.707-.757-1.254-.961-.54-.21-1.191-.316-1.957-.316H9.243v18.795H2.728Zm14.06-11.015 6 11.015H15.71l-5.858-11.015h6.936ZM48.015 176.365c0 2.672-.52 4.925-1.559 6.761-1.039 1.828-2.44 3.214-4.206 4.16-1.765.937-3.734 1.406-5.906 1.406-2.187 0-4.163-.473-5.928-1.418-1.758-.953-3.156-2.344-4.195-4.172-1.031-1.835-1.547-4.081-1.547-6.737 0-2.671.516-4.921 1.547-6.749 1.039-1.836 2.437-3.222 4.195-4.16 1.765-.945 3.741-1.417 5.928-1.417 2.172 0 4.14.472 5.906 1.417 1.765.938 3.167 2.324 4.206 4.16 1.04 1.828 1.559 4.078 1.559 6.749Zm-6.702 0c0-1.437-.192-2.648-.575-3.632-.374-.992-.933-1.742-1.675-2.25-.734-.516-1.64-.773-2.719-.773-1.078 0-1.988.257-2.73.773-.734.508-1.292 1.258-1.675 2.25-.375.984-.563 2.195-.563 3.632 0 1.437.188 2.652.563 3.644.383.984.941 1.734 1.675 2.25.742.508 1.653.761 2.73.761 1.078 0 1.985-.253 2.719-.761.742-.516 1.3-1.266 1.675-2.25.383-.992.575-2.207.575-3.644ZM73.432 173.365h-6.608a4.492 4.492 0 0 0-.375-1.488 3.359 3.359 0 0 0-.82-1.148 3.424 3.424 0 0 0-1.254-.75c-.492-.179-1.05-.269-1.676-.269-1.093 0-2.019.265-2.777.796-.75.532-1.32 1.293-1.71 2.285-.383.992-.574 2.184-.574 3.574 0 1.469.195 2.699.585 3.691.399.984.973 1.726 1.723 2.226.75.492 1.652.738 2.707.738.601 0 1.14-.074 1.616-.222.477-.156.891-.379 1.243-.668.351-.289.636-.637.855-1.043.226-.414.379-.879.457-1.394l6.608.047c-.078 1.015-.363 2.05-.855 3.105-.492 1.046-1.191 2.015-2.097 2.906-.899.882-2.012 1.593-3.34 2.132-1.328.539-2.87.809-4.628.809-2.203 0-4.18-.473-5.929-1.418-1.742-.945-3.12-2.336-4.136-4.172-1.008-1.835-1.512-4.081-1.512-6.737 0-2.671.516-4.921 1.547-6.749 1.031-1.836 2.422-3.222 4.171-4.16 1.75-.945 3.703-1.417 5.859-1.417 1.515 0 2.91.207 4.183.621 1.273.414 2.39 1.019 3.351 1.816a8.968 8.968 0 0 1 2.32 2.917c.586 1.156.941 2.48 1.066 3.972ZM76.388 188.364v-23.997h6.515v9.702h.328l7.218-9.702h7.593l-8.109 10.686 8.296 13.311h-7.78l-5.39-8.999-2.156 2.812v6.187h-6.515ZM103.584 188.738a3.22 3.22 0 0 1-2.332-.949c-.641-.64-.957-1.417-.949-2.331-.008-.891.308-1.652.949-2.285a3.22 3.22 0 0 1 2.332-.949c.859 0 1.617.316 2.273.949.664.633 1 1.394 1.008 2.285a3.148 3.148 0 0 1-.481 1.663 3.534 3.534 0 0 1-1.195 1.184 3.113 3.113 0 0 1-1.605.433ZM110.286 188.364v-23.997h10.358c1.781 0 3.339.351 4.675 1.054 1.336.703 2.375 1.691 3.117 2.965.742 1.273 1.113 2.761 1.113 4.464 0 1.718-.383 3.207-1.148 4.464-.758 1.258-1.824 2.226-3.199 2.906-1.367.68-2.964 1.019-4.792 1.019h-6.187v-5.061h4.874c.766 0 1.418-.133 1.957-.399.547-.273.965-.66 1.254-1.16.297-.5.445-1.089.445-1.769 0-.687-.148-1.273-.445-1.758a2.795 2.795 0 0 0-1.254-1.125c-.539-.265-1.191-.398-1.957-.398h-2.296v18.795h-6.515ZM135.176 188.364h-7.03l7.921-23.997h8.905l7.921 23.997h-7.031l-5.249-17.389h-.187l-5.25 17.389Zm-1.312-9.468h13.217v4.874h-13.217v-4.874ZM155.204 188.364v-23.997h10.358c1.781 0 3.339.351 4.675 1.054 1.336.703 2.375 1.691 3.117 2.965.742 1.273 1.113 2.761 1.113 4.464 0 1.718-.383 3.207-1.148 4.464-.758 1.258-1.824 2.226-3.199 2.906-1.367.68-2.965 1.019-4.792 1.019h-6.187v-5.061h4.874c.766 0 1.418-.133 1.957-.399.547-.273.965-.66 1.254-1.16.297-.5.445-1.089.445-1.769 0-.687-.148-1.273-.445-1.758a2.795 2.795 0 0 0-1.254-1.125c-.539-.265-1.191-.398-1.957-.398h-2.296v18.795h-6.515ZM176.857 188.364v-23.997h17.295v5.249h-10.78v4.124h9.889v5.25h-9.889v4.124h10.733v5.25h-17.248ZM197.383 188.364v-23.997h10.358c1.781 0 3.339.324 4.675.972 1.336.649 2.375 1.582 3.117 2.801.742 1.218 1.113 2.679 1.113 4.382 0 1.718-.383 3.167-1.148 4.347-.758 1.179-1.824 2.07-3.199 2.671-1.367.602-2.964.903-4.792.903h-6.187v-5.062h4.874c.766 0 1.418-.094 1.957-.281.547-.196.965-.504 1.254-.926.297-.422.445-.973.445-1.652 0-.688-.148-1.246-.445-1.676-.289-.437-.707-.757-1.254-.961-.539-.21-1.191-.316-1.957-.316h-2.296v18.795h-6.515Zm14.061-11.015 5.999 11.015h-7.077l-5.859-11.015h6.937ZM223.032 188.738a3.22 3.22 0 0 1-2.332-.949c-.64-.64-.957-1.417-.949-2.331-.008-.891.309-1.652.949-2.285a3.22 3.22 0 0 1 2.332-.949c.859 0 1.617.316 2.273.949.664.633 1 1.394 1.008 2.285a3.148 3.148 0 0 1-.481 1.663 3.525 3.525 0 0 1-1.195 1.184 3.113 3.113 0 0 1-1.605.433ZM242.67 171.866c-.063-.781-.355-1.391-.879-1.828-.515-.438-1.3-.656-2.355-.656-.672 0-1.222.082-1.652.246-.422.156-.734.371-.937.644a1.59 1.59 0 0 0-.317.938c-.015.289.035.55.152.785.125.226.321.433.586.621.266.179.606.343 1.02.492.414.148.906.281 1.476.398l1.969.422c1.328.281 2.464.652 3.409 1.113.945.461 1.719 1.004 2.32 1.629a5.8 5.8 0 0 1 1.324 2.085c.289.774.438 1.617.446 2.531-.008 1.578-.403 2.914-1.184 4.008-.781 1.093-1.898 1.925-3.351 2.495-1.445.571-3.183.856-5.214.856-2.086 0-3.906-.309-5.46-.926-1.547-.617-2.75-1.566-3.609-2.847-.852-1.289-1.281-2.937-1.289-4.945h6.187c.039.734.222 1.352.55 1.851.328.5.789.879 1.383 1.137.601.258 1.316.387 2.144.387.695 0 1.277-.086 1.746-.258.469-.172.824-.41 1.066-.715a1.69 1.69 0 0 0 .375-1.043 1.481 1.481 0 0 0-.363-.96c-.227-.282-.601-.532-1.125-.75-.523-.227-1.23-.438-2.121-.633l-2.39-.516c-2.125-.461-3.8-1.23-5.027-2.308-1.218-1.086-1.824-2.566-1.816-4.441-.008-1.523.399-2.855 1.219-3.995.828-1.149 1.972-2.043 3.433-2.684 1.468-.64 3.152-.96 5.05-.96 1.937 0 3.613.324 5.027.972 1.414.648 2.503 1.562 3.269 2.742.773 1.172 1.164 2.543 1.172 4.113h-6.234ZM274.113 173.365h-6.608a4.497 4.497 0 0 0-.375-1.488 3.364 3.364 0 0 0-.821-1.148 3.416 3.416 0 0 0-1.253-.75c-.492-.179-1.051-.269-1.676-.269-1.093 0-2.019.265-2.777.796-.75.532-1.32 1.293-1.711 2.285-.382.992-.574 2.184-.574 3.574 0 1.469.196 2.699.586 3.691.399.984.973 1.726 1.723 2.226.749.492 1.652.738 2.706.738a5.44 5.44 0 0 0 1.617-.222 3.78 3.78 0 0 0 1.242-.668c.352-.289.637-.637.856-1.043.226-.414.379-.879.457-1.394l6.608.047c-.078 1.015-.363 2.05-.855 3.105-.492 1.046-1.191 2.015-2.098 2.906-.898.882-2.011 1.593-3.339 2.132-1.328.539-2.871.809-4.628.809-2.203 0-4.179-.473-5.929-1.418-1.742-.945-3.121-2.336-4.136-4.172-1.008-1.835-1.512-4.081-1.512-6.737 0-2.671.516-4.921 1.547-6.749 1.031-1.836 2.421-3.222 4.171-4.16 1.75-.945 3.703-1.417 5.859-1.417 1.515 0 2.909.207 4.183.621 1.273.414 2.39 1.019 3.351 1.816a8.968 8.968 0 0 1 2.32 2.917c.586 1.156.941 2.48 1.066 3.972ZM283.584 164.367v23.997h-6.515v-23.997h6.515ZM299.607 171.866c-.063-.781-.356-1.391-.879-1.828-.516-.438-1.301-.656-2.355-.656-.672 0-1.223.082-1.652.246-.422.156-.735.371-.938.644a1.597 1.597 0 0 0-.316.938c-.016.289.035.55.152.785.125.226.321.433.586.621.266.179.606.343 1.02.492.414.148.906.281 1.476.398l1.968.422c1.328.281 2.465.652 3.41 1.113.945.461 1.719 1.004 2.32 1.629a5.8 5.8 0 0 1 1.324 2.085c.289.774.438 1.617.446 2.531-.008 1.578-.403 2.914-1.184 4.008-.781 1.093-1.898 1.925-3.351 2.495-1.445.571-3.183.856-5.214.856-2.086 0-3.906-.309-5.46-.926-1.547-.617-2.75-1.566-3.609-2.847-.852-1.289-1.281-2.937-1.289-4.945h6.186c.04.734.223 1.352.551 1.851.328.5.789.879 1.383 1.137.601.258 1.316.387 2.144.387.695 0 1.277-.086 1.746-.258.469-.172.824-.41 1.066-.715a1.69 1.69 0 0 0 .375-1.043 1.481 1.481 0 0 0-.363-.96c-.227-.282-.602-.532-1.125-.75-.523-.227-1.23-.438-2.121-.633l-2.39-.516c-2.125-.461-3.8-1.23-5.027-2.308-1.218-1.086-1.824-2.566-1.816-4.441-.008-1.523.398-2.855 1.219-3.995.828-1.149 1.972-2.043 3.433-2.684 1.468-.64 3.152-.96 5.05-.96 1.937 0 3.613.324 5.027.972 1.413.648 2.503 1.562 3.269 2.742.773 1.172 1.164 2.543 1.171 4.113h-6.233ZM321.582 171.866c-.062-.781-.355-1.391-.878-1.828-.516-.438-1.301-.656-2.355-.656-.672 0-1.223.082-1.653.246-.421.156-.734.371-.937.644a1.59 1.59 0 0 0-.316.938c-.016.289.035.55.152.785.125.226.32.433.586.621.265.179.605.343 1.019.492.414.148.906.281 1.477.398l1.968.422c1.328.281 2.465.652 3.41 1.113.945.461 1.718 1.004 2.32 1.629a5.813 5.813 0 0 1 1.324 2.085c.289.774.437 1.617.445 2.531-.008 1.578-.402 2.914-1.183 4.008-.781 1.093-1.899 1.925-3.351 2.495-1.446.571-3.184.856-5.215.856-2.085 0-3.905-.309-5.46-.926-1.546-.617-2.749-1.566-3.609-2.847-.851-1.289-1.281-2.937-1.289-4.945h6.187c.039.734.223 1.352.551 1.851.328.5.789.879 1.382 1.137.602.258 1.317.387 2.145.387.695 0 1.277-.086 1.746-.258.468-.172.824-.41 1.066-.715a1.69 1.69 0 0 0 .375-1.043 1.481 1.481 0 0 0-.363-.96c-.227-.282-.602-.532-1.125-.75-.524-.227-1.231-.438-2.121-.633l-2.39-.516c-2.125-.461-3.801-1.23-5.027-2.308-1.219-1.086-1.824-2.566-1.816-4.441-.008-1.523.398-2.855 1.218-3.995.828-1.149 1.973-2.043 3.433-2.684 1.469-.64 3.152-.96 5.051-.96 1.937 0 3.612.324 5.026.972 1.414.648 2.504 1.562 3.269 2.742.774 1.172 1.164 2.543 1.172 4.113h-6.234ZM353.869 176.365c0 2.672-.519 4.925-1.558 6.761-1.039 1.828-2.441 3.214-4.207 4.16-1.765.937-3.733 1.406-5.905 1.406-2.187 0-4.164-.473-5.929-1.418-1.758-.953-3.156-2.344-4.195-4.172-1.031-1.835-1.546-4.081-1.546-6.737 0-2.671.515-4.921 1.546-6.749 1.039-1.836 2.437-3.222 4.195-4.16 1.765-.945 3.742-1.417 5.929-1.417 2.172 0 4.14.472 5.905 1.417 1.766.938 3.168 2.324 4.207 4.16 1.039 1.828 1.558 4.078 1.558 6.749Zm-6.702 0c0-1.437-.191-2.648-.574-3.632-.375-.992-.934-1.742-1.676-2.25-.734-.516-1.64-.773-2.718-.773s-1.988.257-2.73.773c-.734.508-1.293 1.258-1.676 2.25-.375.984-.562 2.195-.562 3.632 0 1.437.187 2.652.562 3.644.383.984.942 1.734 1.676 2.25.742.508 1.652.761 2.73.761s1.984-.253 2.718-.761c.742-.516 1.301-1.266 1.676-2.25.383-.992.574-2.207.574-3.644ZM356.884 188.364v-23.997h10.358c1.781 0 3.339.324 4.675.972 1.335.649 2.374 1.582 3.117 2.801.742 1.218 1.113 2.679 1.113 4.382 0 1.718-.383 3.167-1.149 4.347-.757 1.179-1.824 2.07-3.198 2.671-1.367.602-2.965.903-4.793.903h-6.186v-5.062h4.874c.765 0 1.418-.094 1.957-.281.546-.196.964-.504 1.253-.926.297-.422.446-.973.446-1.652 0-.688-.149-1.246-.446-1.676-.289-.437-.707-.757-1.253-.961-.539-.21-1.192-.316-1.957-.316h-2.297v18.795h-6.514Zm14.06-11.015 5.999 11.015h-7.077l-5.858-11.015h6.936ZM391.859 171.866c-.062-.781-.355-1.391-.878-1.828-.516-.438-1.301-.656-2.356-.656-.671 0-1.222.082-1.652.246-.421.156-.734.371-.937.644a1.59 1.59 0 0 0-.316.938c-.016.289.035.55.152.785.125.226.32.433.586.621.265.179.605.343 1.019.492.414.148.906.281 1.477.398l1.968.422c1.328.281 2.465.652 3.41 1.113.945.461 1.718 1.004 2.32 1.629a5.813 5.813 0 0 1 1.324 2.085c.289.774.437 1.617.445 2.531-.008 1.578-.402 2.914-1.183 4.008-.782 1.093-1.899 1.925-3.351 2.495-1.446.571-3.184.856-5.215.856-2.085 0-3.905-.309-5.46-.926-1.547-.617-2.75-1.566-3.609-2.847-.851-1.289-1.281-2.937-1.289-4.945h6.187c.039.734.223 1.352.551 1.851.328.5.789.879 1.382 1.137.602.258 1.317.387 2.145.387.695 0 1.277-.086 1.745-.258.469-.172.825-.41 1.067-.715a1.69 1.69 0 0 0 .375-1.043 1.477 1.477 0 0 0-.364-.96c-.226-.282-.601-.532-1.124-.75-.524-.227-1.231-.438-2.121-.633l-2.391-.516c-2.124-.461-3.8-1.23-5.026-2.308-1.219-1.086-1.824-2.566-1.816-4.441-.008-1.523.398-2.855 1.218-3.995.828-1.149 1.973-2.043 3.433-2.684 1.469-.64 3.152-.96 5.05-.96 1.938 0 3.613.324 5.027.972 1.414.648 2.504 1.562 3.269 2.742.774 1.172 1.164 2.543 1.172 4.113h-6.234ZM404.508 188.738a3.22 3.22 0 0 1-2.332-.949c-.64-.64-.956-1.417-.949-2.331-.007-.891.309-1.652.949-2.285a3.22 3.22 0 0 1 2.332-.949c.859 0 1.617.316 2.273.949.664.633 1 1.394 1.008 2.285a3.156 3.156 0 0 1-.48 1.663 3.528 3.528 0 0 1-1.196 1.184 3.113 3.113 0 0 1-1.605.433Z" fill="#222"/></svg>